SplineFontDB: 3.2
FontName: AtkinsonHyperPro-Regular
FullName: Atkinson Hyperlegible Pro Regular
FamilyName: Atkinson Hyperlegible Pro
Weight: Regular
Copyright: Copyright 2020 Braille Institute of America, Inc.
UComments: "Update by Jacob Perez+AAoA-https://jacobxperez.github.io/atkinson-hyperlegible-pro/"
Version: 1.4.1
ItalicAngle: 0
UnderlinePosition: -106
UnderlineWidth: 57
Ascent: 800
Descent: 200
InvalidEm: 0
sfntRevision: 0x00010000
LayerCount: 2
Layer: 0 0 "Back" 1
Layer: 1 0 "Fore" 0
XUID: [1021 466 782043844 18134]
StyleMap: 0x0040
FSType: 0
OS2Version: 4
OS2_WeightWidthSlopeOnly: 0
OS2_UseTypoMetrics: 1
CreationTime: 1615339189
ModificationTime: 1700108169
PfmFamily: 81
TTFWeight: 400
TTFWidth: 5
LineGap: 0
VLineGap: 0
Panose: 0 0 0 0 0 0 0 0 0 0
OS2TypoAscent: 950
OS2TypoAOffset: 0
OS2TypoDescent: -290
OS2TypoDOffset: 0
OS2TypoLinegap: 0
OS2WinAscent: 950
OS2WinAOffset: 0
OS2WinDescent: 290
OS2WinDOffset: 0
HheadAscent: 950
HheadAOffset: 0
HheadDescent: -290
HheadDOffset: 0
OS2SubXSize: 650
OS2SubYSize: 699
OS2SubXOff: 0
OS2SubYOff: 140
OS2SupXSize: 650
OS2SupYSize: 699
OS2SupXOff: 0
OS2SupYOff: 479
OS2StrikeYSize: 49
OS2StrikeYPos: 258
OS2CapHeight: 668
OS2XHeight: 496
OS2Vendor: 'NONE'
OS2CodePages: 20000003.00000000
OS2UnicodeRanges: 800000ef.0000204b.00000000.00000000
Lookup: 4 0 1 "'liga' Standard Ligatures lookup 0" { "'liga' Standard Ligatures lookup 0-1"  } ['liga' ('DFLT' <'dflt' > 'grek' <'dflt' > 'latn' <'MOL ' 'dflt' > ) ]
Lookup: 1 0 0 "'zero' Slashed Zero lookup 0" { "'zero' Slashed Zero lookup 0-1"  } ['zero' ('DFLT' <'dflt' > 'grek' <'dflt' > 'latn' <'MOL ' 'dflt' > ) ]
Lookup: 1 0 0 "'aalt' Access All Alternates lookup 0" { "'aalt' Access All Alternates lookup 0 subtable"  } ['aalt' ('DFLT' <'dflt' > 'grek' <'dflt' > 'latn' <'dflt' > ) ]
Lookup: 3 0 0 "'aalt' Access All Alternates lookup 1" { "'aalt' Access All Alternates lookup 1 subtable"  } ['aalt' ('DFLT' <'dflt' > 'grek' <'dflt' > 'latn' <'dflt' > ) ]

StartChar: .notdef
Encoding: 1114112 -1 0
Width: 523
GlyphClass: 1
Flags: W
HStem: 0 21<77 447> 680 20<76 447>
VStem: 48 21<49 650> 455 20<47 652>
DStem2: 76 680 69 650 0.513698 -0.857971<22.1432 360.147 396.696 737.787> 69 49 77 21 0.513896 0.857853<0 339.381 374.897 715.649>
LayerCount: 2
Fore
SplineSet
77 21 m 1
 447 21 l 1
 262 329 l 1
 77 21 l 1
69 49 m 1
 249 350 l 1
 69 650 l 1
 69 49 l 1
455 47 m 1
 455 652 l 1
 274 350 l 1
 455 47 l 1
261 371 m 1
 447 680 l 1
 76 680 l 1
 261 371 l 1
48 0 m 1
 48 700 l 1
 475 700 l 1
 475 0 l 1
 48 0 l 1
EndSplineSet
EndChar

StartChar: zero
Encoding: 48 48 5
Width: 648
GlyphClass: 1
Flags: W
HStem: -12 74<241.862 405.664> 606 74<241.735 406.18>
VStem: 60 91<179.198 483.667> 497 91<193 489.851>
DStem2: 217 566 171 486 0.571572 -0.820552<39.3519 458.851>
LayerCount: 2
Fore
SplineSet
151 335 m 0
 151 155.052019425 209.967030624 62 324 62 c 0
 370 62 407 77 435 107 c 1
 171 486 l 1
 157.788762481 444.333789366 151 393.078632633 151 335 c 0
497 335 m 0
 497 513.789078619 438.134725465 606 324 606 c 0
 280.385354373 606 244.613568741 592.627369857 217 566 c 1
 480 190 l 1
 491.326913477 231.188776286 497 279.576867213 497 335 c 0
588 335 m 0
 588 110.119303008 495.090789642 -12 324 -12 c 0
 152.909210358 -12 60 110.119303008 60 335 c 0
 60 558.733031018 152.795593656 680 324 680 c 0
 495.204406344 680 588 558.733031018 588 335 c 0
EndSplineSet
Substitution2: "'zero' Slashed Zero lookup 0-1" zero.alt1
Substitution2: "'tnum' Tabular Numbers lookup 14 subtable" zero.tf
Substitution2: "'aalt' Access All Alternates lookup 0 subtable" zero.alt1
EndChar

StartChar: one
Encoding: 49 49 6
Width: 402
GlyphClass: 1
Flags: W
HStem: 0 21G<220 304> 504 67<42 178.877> 648 20G<235.977 304>
VStem: 220 84<0 504> 248 56<628.416 668>
LayerCount: 2
Fore
SplineSet
42 571 m 1xf0
 164.768162554 571 223.954544639 598.869315836 248 668 c 1
 304 668 l 1xe8
 304 0 l 1
 220 0 l 1
 220 504 l 1
 42 504 l 1
 42 571 l 1xf0
EndSplineSet
Substitution2: "'tnum' Tabular Numbers lookup 14 subtable" one.tf
Substitution2: "'sups' Superscript lookup 9 subtable" uni00B9
AlternateSubs2: "'aalt' Access All Alternates lookup 1 subtable" uni00B9 one.tf
EndChar

StartChar: two
Encoding: 50 50 7
Width: 549
GlyphClass: 1
Flags: W
HStem: 0 77<147 515> 498 21G<73 150.012> 610 70<202.747 362.064>
VStem: 59 84<520 552.957> 408 89<411.855 564.759>
LayerCount: 2
Fore
SplineSet
497 505 m 0
 497 379.08569755 402.173739638 263.126727736 147 77 c 1
 515 77 l 1
 515 0 l 1
 34 0 l 1
 34 75 l 1
 305.05649065 274.306243125 408 389.6360036 408 494 c 0
 408 565.728230808 360.293352164 610 283 610 c 0
 208.124951462 610 157.023420462 569.1187752 143 498 c 1
 59 522 l 1
 82.9380410077 620.744419158 167.696023732 680 285 680 c 0
 414.311593131 680 497 611.743060368 497 505 c 0
EndSplineSet
Substitution2: "'tnum' Tabular Numbers lookup 14 subtable" two.tf
Substitution2: "'sups' Superscript lookup 9 subtable" uni00B2
AlternateSubs2: "'aalt' Access All Alternates lookup 1 subtable" uni00B2 two.tf
EndChar

StartChar: three
Encoding: 51 51 8
Width: 574
GlyphClass: 1
Flags: W
HStem: -12 70<188.457 362.356> 314 76<218 352.734> 498 21G<65.6667 141.016> 610 70<193.217 360.553>
VStem: 42 83<122.733 153.024> 52 82<519.951 548.939> 407 88<435.875 565.318> 424 90<114.509 257.164>
LayerCount: 2
Fore
SplineSet
514 188 m 0xf1
 514 67.1693700786 418.205062205 -12 272 -12 c 0
 151.920232827 -12 69.9814182261 46.069681652 42 151 c 1
 125 175 l 1
 141.114628015 99.462681179 193.563147797 58 273 58 c 0
 365.736600088 58 424 107.77469264 424 187 c 0xf9
 424 274.272066277 359.559414591 314 218 314 c 1
 218 390 l 1
 349.554457525 390 407 423.737858279 407 501 c 0
 407 567.119277569 355.857853981 610 277 610 c 0
 200.174015287 610 148.031816427 569.161354739 134 498 c 1
 52 522 l 1
 76.9293795118 621.717518046 160.664337762 680 279 680 c 0
 417.247162717 680 495 618.805637324 495 510 c 0xf6
 495 440.439715423 455.44025754 384.185035778 386 355 c 1
 471.898706994 329.030623467 514 274.101592749 514 188 c 0xf1
EndSplineSet
Substitution2: "'tnum' Tabular Numbers lookup 14 subtable" three.tf
Substitution2: "'sups' Superscript lookup 9 subtable" uni00B3
AlternateSubs2: "'aalt' Access All Alternates lookup 1 subtable" uni00B3 three.tf
EndChar

StartChar: four
Encoding: 52 52 9
Width: 614
GlyphClass: 1
Flags: W
HStem: 0 21G<370 454> 165 79<129 370 454 576> 648 20G<353.387 454>
VStem: 370 84<0 165 244 553>
DStem2: 38 244 129 244 0.615355 0.78825<55.9973 447.867>
LayerCount: 2
Fore
SplineSet
129 244 m 1
 370 244 l 1
 370 553 l 1
 129 244 l 1
370 0 m 1
 370 165 l 1
 38 165 l 1
 38 244 l 1
 369 668 l 1
 454 668 l 1
 454 244 l 1
 576 244 l 1
 576 165 l 1
 454 165 l 1
 454 0 l 1
 370 0 l 1
EndSplineSet
Substitution2: "'tnum' Tabular Numbers lookup 14 subtable" four.tf
Substitution2: "'sups' Superscript lookup 9 subtable" uni2074
AlternateSubs2: "'aalt' Access All Alternates lookup 1 subtable" four.tf uni2074
EndChar

StartChar: five
Encoding: 53 53 10
Width: 583
GlyphClass: 1
Flags: W
HStem: -12 70<197.78 363.85> 378 72<201.803 364.298> 587 81<181 496>
VStem: 54 82<122.442 153.049> 433 88<131.827 307.844>
DStem2: 72 328 158 400 0.119721 0.992808<0 14.571 81.7781 270.187>
LayerCount: 2
Fore
SplineSet
521 220 m 0
 521 81.9873415261 424.987069217 -12 284 -12 c 0
 165.214630167 -12 85.0561635932 44.8079567457 54 151 c 1
 136 175 l 1
 153.034711597 96.8407350273 202.166581546 58 284 58 c 0
 371.959631209 58 433 123.956371646 433 219 c 0
 433 314.200089767 372.81140544 378 283 378 c 0
 225.148567555 378 173.048972838 348.113410783 154 304 c 1
 72 328 l 1
 113 668 l 1
 496 668 l 1
 496 587 l 1
 181 587 l 1
 158 400 l 1
 189.957460115 431.957460115 241.919974984 450 302 450 c 0
 430.771823377 450 521 355.239814506 521 220 c 0
EndSplineSet
Substitution2: "'tnum' Tabular Numbers lookup 14 subtable" five.tf
Substitution2: "'aalt' Access All Alternates lookup 0 subtable" five.tf
EndChar

StartChar: six
Encoding: 54 54 11
Width: 598
GlyphClass: 1
Flags: W
HStem: -12 71<225.537 381.049> 371 74<224.199 380.084> 610 70<239.361 386.936>
VStem: 60 87<352 474.993> 448 90<126.733 303.214>
LayerCount: 2
Fore
SplineSet
157 215 m 0
 157 120.986300939 215.01282011 59 303 59 c 0
 390.185982632 59 448 121.199908341 448 215 c 0
 448 308.800091659 390.185982632 371 303 371 c 0
 215.01282011 371 157 309.013699061 157 215 c 0
538 218 m 0
 538 84.9468041837 438.945656595 -12 303 -12 c 0
 142.128856443 -12 60 96.8291842578 60 310 c 0
 60 543.954025077 155.967566094 680 321 680 c 0
 408.617223737 680 474.850497112 642.303402919 509 573 c 1
 424 548 l 1
 402.980418275 588.037298523 362.951623648 610 311 610 c 0
 211.193711321 610 151.0077856 515.317263195 147 352 c 1
 182.900175823 412.830853478 243.779420853 445 323 445 c 0
 448.011013415 445 538 349.988372303 538 218 c 0
EndSplineSet
Substitution2: "'tnum' Tabular Numbers lookup 14 subtable" six.tf
Substitution2: "'aalt' Access All Alternates lookup 0 subtable" six.tf
EndChar

StartChar: seven
Encoding: 55 55 12
Width: 510
GlyphClass: 1
Flags: W
HStem: 0 21G<93 207.472> 587 81<15 383>
LayerCount: 2
Fore
SplineSet
93 0 m 1
 383 587 l 1
 15 587 l 1
 15 668 l 1
 476 668 l 1
 476 587 l 1
 198 0 l 1
 93 0 l 1
EndSplineSet
Substitution2: "'tnum' Tabular Numbers lookup 14 subtable" seven.tf
Substitution2: "'aalt' Access All Alternates lookup 0 subtable" seven.tf
EndChar

StartChar: eight
Encoding: 56 56 13
Width: 615
GlyphClass: 1
Flags: W
HStem: -12 74<212.085 402.629> 317 74<242.617 371.383> 606 74<243.719 370.599>
VStem: 60 91<119.723 258.791> 126 74<434.668 562.481> 414 75<434.668 562.625> 464 91<119.546 259.106>
LayerCount: 2
Fore
SplineSet
151 188 m 0xf2
 151 110.730561811 211.333076528 62 307 62 c 0
 404.095259004 62 464 110.076416341 464 188 c 0
 464 266.93950067 403.073655854 317 307 317 c 0
 211.732393132 317 151 266.778982603 151 188 c 0xf2
200 500 m 0xec
 200 438.939240579 247.059621486 391 307 391 c 0
 366.940378514 391 414 438.939240579 414 500 c 0
 414 559.219784028 366.778461236 606 307 606 c 0
 247.221538764 606 200 559.219784028 200 500 c 0xec
555 188 m 0xe2
 555 67.9193432217 455.900014405 -12 307 -12 c 0
 158.899985545 -12 60 68.0809599554 60 188 c 0xf2
 60 269.939034935 104.941902376 334.976909919 183 366 c 1
 146.120036307 400.886452142 126 447.833203525 126 499 c 0
 126 599 207 680 307 680 c 0
 408.279153675 680 489 599.722674808 489 499 c 0xec
 489 447.833203525 468.879963693 400.886452142 432 366 c 1
 510.845909708 335.060465811 555 271.162676607 555 188 c 0xe2
EndSplineSet
Substitution2: "'tnum' Tabular Numbers lookup 14 subtable" eight.tf
Substitution2: "'aalt' Access All Alternates lookup 0 subtable" eight.tf
EndChar

StartChar: nine
Encoding: 57 57 14
Width: 598
GlyphClass: 1
Flags: W
HStem: 0 21G<213 336.381> 201 86<222.597 349.887> 594 85<222.235 376.627>
VStem: 60 86<364.188 517.604> 454 84<364.214 517.291>
DStem2: 226 19 317 0 0.557474 0.830195<34.9564 226.318>
LayerCount: 2
Fore
SplineSet
146 441 m 0
 146 355.722049001 214.275801929 287 299 287 c 0
 384.276143482 287 454 356.274025186 454 441 c 0
 454 525.945168092 385.055562447 594 299 594 c 0
 214 594 146 526 146 441 c 0
299 679 m 0
 434.216735142 679 538 574.78249554 538 439 c 0
 538 372.243893705 505.699002763 300.87614981 390 112 c 0
 372.169132051 82.5403051271 355.762756448 57.3688795445 317 0 c 1
 213 0 l 1
 226 19 l 1
 272.284154904 83.6049662198 314.586974772 146.723459356 352 207 c 1
 334.689491213 202.926939109 317.668195751 201 299 201 c 0
 167.274890802 201 60 308.723739718 60 441 c 0
 60 573.721870086 165.720474997 679 299 679 c 0
EndSplineSet
Substitution2: "'tnum' Tabular Numbers lookup 14 subtable" nine.tf
Substitution2: "'aalt' Access All Alternates lookup 0 subtable" nine.tf
EndChar

StartChar: A
Encoding: 65 65 15
Width: 626
GlyphClass: 2
Flags: W
HStem: 0 21G<10 116.986 509.014 616> 146 81<190 436> 574 95<261 366>
DStem2: 10 0 110 0 0.351277 0.936272<35.1277 189.738 275.763 643.857> 366 669 313 574 0.350049 -0.936731<70.4369 438.539 524.565 679.181>
AnchorPoint: "Anchor-2" 615 0 basechar 0
AnchorPoint: "Anchor-1" 313 0 basechar 0
AnchorPoint: "Anchor-0" 313 668 basechar 0
LayerCount: 2
Fore
SplineSet
190 227 m 1
 436 227 l 1
 313 574 l 1
 190 227 l 1
10 0 m 1
 261 669 l 1
 366 669 l 1
 616 0 l 1
 516 0 l 1
 465 146 l 1
 161 146 l 1
 110 0 l 1
 10 0 l 1
EndSplineSet
Substitution2: "Single Substitution lookup 12 subtable" ordfeminine
Substitution2: "'aalt' Access All Alternates lookup 0 subtable" ordfeminine
EndChar

StartChar: B
Encoding: 66 66 16
Width: 619
GlyphClass: 1
Flags: W
HStem: 0 79<170 434.554> 308 74<170 418.779> 589 79<170 416.093>
VStem: 76 94<79 308 382 589> 457 95<419.72 550.467> 484 97<126.1 263.766>
AnchorPoint: "Anchor-1" 288 0 basechar 0
AnchorPoint: "Anchor-0" 290 668 basechar 0
LayerCount: 2
Fore
SplineSet
484 195 m 0xf4
 484 261.706411402 437.296733627 308 370 308 c 2
 170 308 l 1
 170 79 l 1
 371 79 l 2
 436.133676184 79 484 128.137111173 484 195 c 0xf4
457 484 m 0xf8
 457 544.86770579 414.128628481 589 355 589 c 2
 170 589 l 1
 170 382 l 1
 355 382 l 2
 415 382 457 424 457 484 c 0xf8
581 192 m 0xf4
 581 79.2090103087 490.239675688 0 361 0 c 2
 76 0 l 1
 76 668 l 1
 345 668 l 2
 471.473374727 668 552 603.423092776 552 502 c 0xf8
 552 447.299619902 526.242954491 393.209824333 482 355 c 1
 543.964259525 323.018446697 581 262.040409349 581 192 c 0xf4
EndSplineSet
EndChar

StartChar: C
Encoding: 67 67 17
Width: 656
GlyphClass: 2
Flags: W
HStem: -12 79<268.901 455.548> 499 21G<515.916 586.667> 601 79<267.155 453.015>
VStem: 50 96<207.13 461.96>
AnchorPoint: "Anchor-1" 348 0 basechar 0
AnchorPoint: "Anchor-0" 353 668 basechar 0
LayerCount: 2
Fore
SplineSet
618 139 m 1
 570.898738894 42.7931688053 474.738541984 -12 353 -12 c 0
 168.877503835 -12 50 124.140243666 50 335 c 0
 50 543.77657922 172.79850395 680 361 680 c 0
 476.086107478 680 570.032884936 623.928998434 614 529 c 1
 532 499 l 1
 499.83149508 564.34227562 436.578951051 601 356 601 c 0
 227.657694098 601 146 497.56692081 146 335 c 0
 146 171.715854212 229.225660251 67 359 67 c 0
 440.264911081 67 503.107059801 103.214119601 536 169 c 1
 618 139 l 1
EndSplineSet
EndChar

StartChar: D
Encoding: 68 68 18
Width: 673
GlyphClass: 2
Flags: W
HStem: 0 79<170 398.832> 589 79<170 398.477>
VStem: 76 94<79 589> 527 96<201.667 467.282>
AnchorPoint: "Anchor-1" 337 0 basechar 0
AnchorPoint: "Anchor-0" 327 668 basechar 0
LayerCount: 2
Fore
SplineSet
527 335 m 0
 527 515.946498842 449.057091284 589 256 589 c 2
 170 589 l 1
 170 79 l 1
 256 79 l 2
 449.861355743 79 527 151.868977601 527 335 c 0
623 335 m 0
 623 108.650547412 504.61955282 0 258 0 c 2
 76 0 l 1
 76 668 l 1
 258 668 l 2
 504.810847849 668 623 560.17263653 623 335 c 0
EndSplineSet
EndChar

StartChar: E
Encoding: 69 69 19
Width: 567
GlyphClass: 2
Flags: W
HStem: 0 81<170 529> 303 81<170 435> 587 81<170 529>
VStem: 76 94<81 303 384 587>
AnchorPoint: "Anchor-2" 506 0 basechar 0
AnchorPoint: "Anchor-1" 284 0 basechar 0
AnchorPoint: "Anchor-0" 304 668 basechar 0
LayerCount: 2
Fore
SplineSet
76 0 m 1
 76 668 l 1
 529 668 l 1
 529 587 l 1
 170 587 l 1
 170 384 l 1
 435 384 l 1
 435 303 l 1
 170 303 l 1
 170 81 l 1
 529 81 l 1
 529 0 l 1
 76 0 l 1
EndSplineSet
EndChar

StartChar: F
Encoding: 70 70 20
Width: 548
GlyphClass: 1
Flags: W
HStem: 0 21G<76 170> 303 81<170 510> 587 81<170 510>
VStem: 76 94<0 303 384 587>
AnchorPoint: "Anchor-0" 305 668 basechar 0
LayerCount: 2
Fore
SplineSet
76 0 m 1
 76 668 l 1
 510 668 l 1
 510 587 l 1
 170 587 l 1
 170 384 l 1
 510 384 l 1
 510 303 l 1
 170 303 l 1
 170 0 l 1
 76 0 l 1
EndSplineSet
EndChar

StartChar: G
Encoding: 71 71 21
Width: 710
GlyphClass: 2
Flags: W
HStem: -12 79<263.637 463.848> 0 21G<582.048 642> 264 81<358 553> 499 21G<515.916 587.333> 601 79<267.155 452.98>
VStem: 50 96<206.759 461.96> 553 89<152.217 264> 588 54<0 23.52>
AnchorPoint: "Anchor-1" 355 0 basechar 0
AnchorPoint: "Anchor-0" 359 668 basechar 0
LayerCount: 2
Fore
SplineSet
563 84 m 1x7d
 522.892026577 20.8299418588 450.7345502 -12 352 -12 c 0
 167.246325289 -12 50 122.716804222 50 335 c 0
 50 543.77657922 172.79850395 680 361 680 c 0
 476.241839632 680 569.096237064 624.799157432 615 529 c 1
 532 499 l 1
 499.83149508 564.34227562 436.578951051 601 356 601 c 0
 227.657694098 601 146 497.56692081 146 335 c 0
 146 171.323668715 227.746158322 67 356 67 c 0
 480.977143828 67 553 130.979694569 553 242 c 2
 553 264 l 1xbe
 358 264 l 1
 358 345 l 1
 642 345 l 1
 642 0 l 1
 588 0 l 1
 563 84 l 1x7d
EndSplineSet
EndChar

StartChar: H
Encoding: 72 72 22
Width: 690
GlyphClass: 2
Flags: W
HStem: 0 21G<76 170 520 614> 303 81<170 520> 648 20G<76 170 520 614>
VStem: 76 94<0 303 384 668> 520 94<0 303 384 668>
AnchorPoint: "Anchor-1" 345 0 basechar 0
AnchorPoint: "Anchor-0" 345 668 basechar 0
LayerCount: 2
Fore
SplineSet
76 0 m 1
 76 668 l 1
 170 668 l 1
 170 384 l 1
 520 384 l 1
 520 668 l 1
 614 668 l 1
 614 0 l 1
 520 0 l 1
 520 303 l 1
 170 303 l 1
 170 0 l 1
 76 0 l 1
EndSplineSet
EndChar

StartChar: I
Encoding: 73 73 23
Width: 414
GlyphClass: 2
Flags: W
HStem: 0 74<66 160 254 348> 594 74<66 160 254 348>
VStem: 160 94<74 594>
AnchorPoint: "Anchor-2" 273 0 basechar 0
AnchorPoint: "Anchor-1" 207 0 basechar 0
AnchorPoint: "Anchor-0" 207 668 basechar 0
LayerCount: 2
Fore
SplineSet
66 0 m 1
 66 74 l 1
 160 74 l 1
 160 594 l 1
 66 594 l 1
 66 668 l 1
 348 668 l 1
 348 594 l 1
 254 594 l 1
 254 74 l 1
 348 74 l 1
 348 0 l 1
 66 0 l 1
EndSplineSet
EndChar

StartChar: J
Encoding: 74 74 24
Width: 510
GlyphClass: 1
Flags: W
HStem: -12 77<152.532 293.629> 648 20G<340 434>
VStem: 340 94<116.686 668>
AnchorPoint: "Anchor-0" 388 668 basechar 0
LayerCount: 2
Fore
SplineSet
434 212 m 2
 434 69.0333315124 358.031251707 -12 224 -12 c 0
 95.41261692 -12 22.0225691105 58.5808593766 15 189 c 1
 102 214 l 1
 102 207 l 2
 102 119.852403725 149.12671306 65 224 65 c 0
 300.013514099 65 340 116.017240632 340 213 c 2
 340 668 l 1
 434 668 l 1
 434 212 l 2
EndSplineSet
EndChar

StartChar: K
Encoding: 75 75 25
Width: 627
GlyphClass: 2
Flags: W
HStem: 0 21G<76 170 487.5 617> 648 20G<76 170 453.083 588>
VStem: 76 94<0 210 332 668> 471 117<551 668> 502 115<0 115>
DStem2: 170 332 270 320 0.674116 0.738625<0 58.5481 151.983 451.087> 333 389 270 320 0.589652 -0.807657<18.5803 413.83>
AnchorPoint: "Anchor-1" 314 0 basechar 0
AnchorPoint: "Anchor-0" 314 668 basechar 0
LayerCount: 2
Fore
SplineSet
76 0 m 1xe8
 76 668 l 1
 170 668 l 1
 170 332 l 1
 471 668 l 1
 588 668 l 1xf0
 333 389 l 1
 617 0 l 1
 502 0 l 1
 270 320 l 1
 170 210 l 1
 170 0 l 1
 76 0 l 1xe8
EndSplineSet
EndChar

StartChar: L
Encoding: 76 76 26
Width: 539
GlyphClass: 2
Flags: W
HStem: 0 81<170 529> 648 20G<76 170>
VStem: 76 94<81 668>
AnchorPoint: "Anchor-1" 305 0 basechar 0
AnchorPoint: "Anchor-0" 135 668 basechar 0
LayerCount: 2
Fore
SplineSet
76 0 m 1
 76 668 l 1
 170 668 l 1
 170 81 l 1
 529 81 l 1
 529 0 l 1
 76 0 l 1
EndSplineSet
EndChar

StartChar: M
Encoding: 77 77 27
Width: 820
GlyphClass: 1
Flags: W
HStem: 0 122<303 518> 648 20G<76 238.52 581.48 744>
VStem: 76 94<0 570> 650 94<0 570>
DStem2: 410 122 457 0 0.320711 0.947177<0 501.306>
AnchorPoint: "Anchor-1" 411 0 basechar 0
AnchorPoint: "Anchor-0" 410 668 basechar 0
LayerCount: 2
Fore
SplineSet
76 0 m 1
 76 668 l 1
 232 668 l 1
 410 122 l 1
 588 668 l 1
 744 668 l 1
 744 0 l 1
 650 0 l 1
 650 570 l 1
 457 0 l 1
 364 0 l 1
 170 570 l 1
 170 0 l 1
 76 0 l 1
EndSplineSet
EndChar

StartChar: N
Encoding: 78 78 28
Width: 689
GlyphClass: 2
Flags: W
HStem: 0 21G<76 170 464.317 613> 648 20G<76 225.704 519 613>
VStem: 76 94<0 571> 519 94<100 668>
DStem2: 215 668 170 571 0.471149 -0.882053<64.3575 644.236>
AnchorPoint: "Anchor-1" 311 0 basechar 0
AnchorPoint: "Anchor-0" 362 668 basechar 0
LayerCount: 2
Fore
SplineSet
76 0 m 1
 76 668 l 1
 215 668 l 1
 519 100 l 1
 519 668 l 1
 613 668 l 1
 613 0 l 1
 475 0 l 1
 170 571 l 1
 170 0 l 1
 76 0 l 1
EndSplineSet
EndChar

StartChar: O
Encoding: 79 79 29
Width: 727
GlyphClass: 2
Flags: W
HStem: -12 79<270.535 455.905> 601 79<270.581 455.939>
VStem: 50 96<208.078 461.024> 581 96<207.98 461.222>
AnchorPoint: "Anchor-2" 454 0 basechar 0
AnchorPoint: "Anchor-1" 364 0 basechar 0
AnchorPoint: "Anchor-0" 364 668 basechar 0
LayerCount: 2
Fore
SplineSet
146 335 m 0
 146 173.105975769 231.914166947 67 363 67 c 0
 494.888080303 67 581 172.862359994 581 335 c 0
 581 496.032111481 494.973685349 601 363 601 c 0
 231.828899059 601 146 495.790381799 146 335 c 0
677 335 m 0
 677 127.121004045 551.109523718 -12 363 -12 c 0
 175.690092341 -12 50 127.343329209 50 335 c 0
 50 541.059109041 176.053619914 680 363 680 c 0
 551.200045475 680 677 541.780304742 677 335 c 0
EndSplineSet
Substitution2: "Single Substitution lookup 12 subtable" ordmasculine
Substitution2: "'aalt' Access All Alternates lookup 0 subtable" ordmasculine
EndChar

StartChar: P
Encoding: 80 80 30
Width: 601
GlyphClass: 1
Flags: W
HStem: 1 21G<76 170> 266 81<170 418.383> 589 79<170 416.579>
VStem: 76 94<1 266 347 589> 467 96<389.409 543.7>
AnchorPoint: "Anchor-0" 294 668 basechar 0
LayerCount: 2
Fore
SplineSet
467 466 m 0
 467 555.88797126 420.15859349 589 293 589 c 2
 170 589 l 1
 170 347 l 1
 293 347 l 2
 423.06723726 347 467 377.04596992 467 466 c 0
563 466 m 0
 563 323.776881941 482.690134102 266 285 266 c 2
 170 266 l 1
 170 1 l 1
 76 1 l 1
 76 668 l 1
 285 668 l 2
 481.901003748 668 563 609.071952364 563 466 c 0
EndSplineSet
EndChar

StartChar: Q
Encoding: 81 81 31
Width: 753
GlyphClass: 1
Flags: W
HStem: -12 79<270.535 458.537> 601 79<270.581 455.939>
VStem: 50 96<208.078 461.024> 581 96<208.113 461.222>
DStem2: 393 362 329 294 0.729032 -0.68448<0 227.798 331.748 493.692>
LayerCount: 2
Fore
SplineSet
146 335 m 0
 146 173.105975769 231.914166947 67 363 67 c 0
 421.425152849 67 469.620511958 86.6105254306 508 126 c 1
 329 294 l 1
 393 362 l 1
 559 206 l 1
 573.719207159 241.326097182 581 284.01801884 581 335 c 0
 581 496.032111481 494.973685349 601 363 601 c 0
 231.828899059 601 146 495.790381799 146 335 c 0
677 335 m 0
 677 260.861638832 660.942306566 193.897640681 630 139 c 1
 753 24 l 1
 689 -44 l 1
 572 65 l 1
 518.587310438 14.6106702249 446.358348399 -12 363 -12 c 0
 175.690092341 -12 50 127.343329209 50 335 c 0
 50 541.059109041 176.053619914 680 363 680 c 0
 551.200045475 680 677 541.780304742 677 335 c 0
EndSplineSet
EndChar

StartChar: R
Encoding: 82 82 32
Width: 618
GlyphClass: 2
Flags: W
HStem: 0 21G<76 170 458.552 588> 281 79<170 270> 589 79<170 422.121>
VStem: 76 94<0 281 360 589> 470 96<400.739 546.275> 473 115<0 115>
DStem2: 381 288 270 281 0.583636 -0.812015<0 287.555>
AnchorPoint: "Anchor-1" 309 0 basechar 0
AnchorPoint: "Anchor-0" 303 668 basechar 0
LayerCount: 2
Fore
SplineSet
470 474 m 0xf8
 470 558.885759289 424.173981527 589 295 589 c 2
 170 589 l 1
 170 360 l 1
 295 360 l 2
 424.474312273 360 470 389.656733719 470 474 c 0xf8
566 476 m 0
 566 360.937828642 511.929276123 305.990282215 381 288 c 1
 588 0 l 1
 473 0 l 1xf4
 270 281 l 1
 170 281 l 1
 170 0 l 1
 76 0 l 1
 76 668 l 1
 288 668 l 2
 487.406481411 668 566 613.719584284 566 476 c 0
EndSplineSet
EndChar

StartChar: S
Encoding: 83 83 33
Width: 596
GlyphClass: 2
Flags: W
HStem: -12 79<202.021 393.751> 601 79<197.36 381.837>
VStem: 46 97<442.201 553.094> 457 99<122.37 241.044>
DStem2: 286 392 238 313 0.975916 -0.218146<-126.856 168.386>
AnchorPoint: "Anchor-1" 298 0 basechar 0
AnchorPoint: "Anchor-0" 298 668 basechar 0
LayerCount: 2
Fore
SplineSet
556 182 m 0
 556 70.9115243316 444.881462236 -12 296 -12 c 0
 170.917709544 -12 71.9789674629 49.0637548782 40 146 c 1
 127 172 l 1
 148.987690408 107.03636925 214.952374981 67 300 67 c 0
 393.836195435 67 457 114.875749957 457 186 c 0
 457 239.992537611 421.013547678 268.99654396 323 294 c 1
 238 313 l 1
 101.101762098 348.973259595 46 402.927068316 46 501 c 0
 46 604.008163396 150.011173006 680 291 680 c 0
 397.384312644 680 485.13655889 632.719694911 523 555 c 1
 437 530 l 1
 413.973732327 573.049109129 354.92255443 601 287 601 c 0
 202.269052471 601 143 558.194573216 143 497 c 0
 143 443.216520365 178.566446227 417.101297611 286 392 c 1
 359 376 l 1
 497.739710102 342.823112802 556 285.45003544 556 182 c 0
EndSplineSet
EndChar

StartChar: T
Encoding: 84 84 34
Width: 558
GlyphClass: 2
Flags: W
HStem: 0 21G<232 326> 587 81<10 232 326 548>
VStem: 232 94<0 587>
AnchorPoint: "Anchor-1" 279 0 basechar 0
AnchorPoint: "Anchor-0" 279 668 basechar 0
LayerCount: 2
Fore
SplineSet
232 0 m 1
 232 587 l 1
 10 587 l 1
 10 668 l 1
 548 668 l 1
 548 587 l 1
 326 587 l 1
 326 0 l 1
 232 0 l 1
EndSplineSet
EndChar

StartChar: U
Encoding: 85 85 35
Width: 690
GlyphClass: 2
Flags: W
HStem: -12 81<249.142 441.037> 648 20G<76 170 520 614>
VStem: 76 94<155.65 668> 520 94<155.221 668>
AnchorPoint: "Anchor-2" 427 0 basechar 0
AnchorPoint: "Anchor-1" 345 0 basechar 0
AnchorPoint: "Anchor-0" 345 668 basechar 0
LayerCount: 2
Fore
SplineSet
614 279 m 2
 614 76.853131469 531.864287405 -12 345 -12 c 0
 159.097924523 -12 76 77.8940373093 76 279 c 2
 76 668 l 1
 170 668 l 1
 170 272 l 2
 170 131.819939056 224.155119876 69 345 69 c 0
 465.844880124 69 520 131.819939056 520 272 c 2
 520 668 l 1
 614 668 l 1
 614 279 l 2
EndSplineSet
EndChar

StartChar: V
Encoding: 86 86 36
Width: 589
GlyphClass: 1
Flags: W
HStem: 0 21G<232.144 355.886> 648 20G<10 119.487 469.477 579>
VStem: 10 103<565 668> 476 103<565 668>
DStem2: 113 668 10 668 0.324288 -0.945958<0 586.541> 294 110 349 0 0.325554 0.945523<0 586.853>
LayerCount: 2
Fore
SplineSet
239 0 m 1
 10 668 l 1
 113 668 l 1
 294 110 l 1
 476 668 l 1
 579 668 l 1
 349 0 l 1
 239 0 l 1
EndSplineSet
EndChar

StartChar: W
Encoding: 87 87 37
Width: 840
GlyphClass: 1
Flags: W
HStem: 0 21G<172.97 295.674 544.326 668> 552 116<307 533>
VStem: 10 103<565 668> 727 103<565 668>
DStem2: 113 668 10 668 0.243902 -0.9698<0 567.037> 243 116 291 0 0.227564 0.973763<0 464.84> 597 116 663 0 0.242536 0.970143<0 567.048>
AnchorPoint: "Anchor-1" 420 0 basechar 0
AnchorPoint: "Anchor-0" 420 668 basechar 0
LayerCount: 2
Fore
SplineSet
178 0 m 1
 10 668 l 1
 113 668 l 1
 243 116 l 1
 365 668 l 1
 475 668 l 1
 597 116 l 1
 727 668 l 1
 830 668 l 1
 663 0 l 1
 549 0 l 1
 420 552 l 1
 291 0 l 1
 178 0 l 1
EndSplineSet
EndChar

StartChar: X
Encoding: 88 88 38
Width: 623
GlyphClass: 1
Flags: W
HStem: 0 21G<10 137.189 485.736 613> 648 20G<24 150.286 471.714 599>
VStem: 10 113<0 113> 24 112<556 668> 486 113<555 668> 500 113<0 113>
DStem2: 10 0 123 0 0.580315 0.814392<65.5756 390.489 519.163 820.244> 136 668 24 668 0.581123 -0.813816<0 301.081 429.664 755.158>
AnchorPoint: "Anchor-1" 311 0 basechar 0
AnchorPoint: "Anchor-0" 311 668 basechar 0
LayerCount: 2
Fore
SplineSet
10 0 m 1xe4
 255 344 l 1
 24 668 l 1
 136 668 l 1
 311 423 l 1
 486 668 l 1
 599 668 l 1xd8
 368 344 l 1
 613 0 l 1
 500 0 l 1
 311 265 l 1
 123 0 l 1
 10 0 l 1xe4
EndSplineSet
EndChar

StartChar: Y
Encoding: 89 89 39
Width: 595
GlyphClass: 2
Flags: W
HStem: 0 21G<251 345> 648 20G<10 124.455 470.607 585>
VStem: 251 94<0 259>
DStem2: 113 668 10 668 0.507664 -0.861555<0 372.2> 298 345 345 259 0.506098 0.862476<0 371.702>
AnchorPoint: "Anchor-1" 298 0 basechar 0
AnchorPoint: "Anchor-0" 298 668 basechar 0
LayerCount: 2
Fore
SplineSet
251 0 m 1
 251 259 l 1
 10 668 l 1
 113 668 l 1
 298 345 l 1
 482 668 l 1
 585 668 l 1
 345 259 l 1
 345 0 l 1
 251 0 l 1
EndSplineSet
EndChar

StartChar: Z
Encoding: 90 90 40
Width: 607
GlyphClass: 2
Flags: W
HStem: 0 81<156 563> 587 81<59 438>
DStem2: 44 81 156 81 0.614372 0.789016<68.8097 641.305>
AnchorPoint: "Anchor-1" 304 0 basechar 0
AnchorPoint: "Anchor-0" 304 668 basechar 0
LayerCount: 2
Fore
SplineSet
44 0 m 1
 44 81 l 1
 438 587 l 1
 59 587 l 1
 59 668 l 1
 548 668 l 1
 548 587 l 1
 156 81 l 1
 563 81 l 1
 563 0 l 1
 44 0 l 1
EndSplineSet
EndChar

StartChar: a
Encoding: 97 97 41
Width: 526
GlyphClass: 2
Flags: W
HStem: -12 67<158.307 314.832> 0 21G<392.118 475> 239 67<242.337 373> 437 67<186.889 334.88>
VStem: 38 93<79.7467 179.224> 373 85<304.72 397.764> 380 78<120.061 239>
AnchorPoint: "Anchor-2" 475 0 basechar 0
AnchorPoint: "Anchor-1" 263 0 basechar 0
AnchorPoint: "Anchor-0" 263 496 basechar 0
LayerCount: 2
Fore
SplineSet
131 133 m 0xba
 131 85.0312454804 167.961532899 55 227 55 c 0
 325 55 380 110 380 208 c 2
 380 239 l 1
 196.510246769 220.052688525 131 192.16479231 131 133 c 0xba
378 68 m 1
 345.792068067 14.6556127356 289.482086163 -12 209 -12 c 0
 107.678106709 -12 38 46.2688260782 38 131 c 0
 38 231.992537472 127.981894383 278.998004687 373 306 c 1
 373 315 l 2xbc
 373 396.348587025 335.680670055 437 261 437 c 0
 202 437 162 409 151 360 c 1
 70 384 l 1
 95.894975124 458.697043628 167.624656047 504 260 504 c 0
 396.962689255 504 458 442.037881516 458 303 c 2
 458 187 l 2
 458 114.985471386 463.321968333 56.4438197209 475 0 c 1
 398 0 l 1x7a
 378 68 l 1
EndSplineSet
Substitution2: "Single Substitution lookup 12 subtable" ordfeminine
Substitution2: "'aalt' Access All Alternates lookup 0 subtable" ordfeminine
EndChar

StartChar: b
Encoding: 98 98 42
Width: 566
GlyphClass: 1
Flags: W
HStem: -12 72<221.837 366.423> 0 21G<70 137.867> 432 72<220.619 366.507> 648 20G<70 154>
VStem: 70 84<132.749 359.468 418 668> 70 62<0 23.8636> 434 94<136.225 355.884>
AnchorPoint: "Anchor-1" 315 0 basechar 0
AnchorPoint: "Anchor-0" 315 496 basechar 0
LayerCount: 2
Fore
SplineSet
293 432 m 0xb2
 205.032255383 432 152 362.042556729 152 246 c 0
 152 130.456872904 205.410855266 60 293 60 c 0
 380.589144734 60 434 130.456872904 434 246 c 0
 434 362.042556729 380.967744617 432 293 432 c 0xb2
528 246 m 0
 528 94.7957174819 439.831442544 -12 315 -12 c 0
 242.258395522 -12 187.117847519 17.7964451941 154 75 c 1xba
 132 0 l 1
 70 0 l 1x76
 70 668 l 1
 154 668 l 1
 154 418 l 1x7a
 187.037400973 474.063468318 243.081373075 504 315 504 c 0
 439.831442544 504 528 397.204282518 528 246 c 0
EndSplineSet
EndChar

StartChar: c
Encoding: 99 99 43
Width: 500
GlyphClass: 2
Flags: W
HStem: -12 74<201.354 348.112> 430 74<197.126 346.098>
VStem: 38 91<144.872 350.669>
AnchorPoint: "Anchor-1" 270 0 basechar 0
AnchorPoint: "Anchor-0" 275 496 basechar 0
LayerCount: 2
Fore
SplineSet
467 99 m 1
 427.019516395 30.0336657821 352.040545 -12 269 -12 c 0
 130.610230672 -12 38 91.4348030881 38 246 c 0
 38 399.362681181 135.337040762 504 278 504 c 0
 358.438403182 504 427.739018245 462.493749267 465 392 c 1
 388 364 l 1
 366.013315376 404.975184981 322.030307161 430 272 430 c 0
 184.740267659 430 129 358.66804908 129 247 c 0
 129 135.870597044 186.099975012 62 272 62 c 0
 323.215591979 62 367.096227936 86.171536756 390 127 c 1
 467 99 l 1
EndSplineSet
EndChar

StartChar: d
Encoding: 100 100 44
Width: 564
GlyphClass: 2
Flags: W
HStem: -12 72<199.577 344.855> 0 21G<428.133 513> 432 72<199.493 345.809> 648 20G<412 496>
VStem: 38 94<136.225 355.884> 412 84<133.244 359.468 418 668>
AnchorPoint: "Anchor-1" 282 0 basechar 0
AnchorPoint: "Anchor-0" 251 496 basechar 0
LayerCount: 2
Fore
SplineSet
273 432 m 0xbc
 185.032255383 432 132 362.042556729 132 246 c 0
 132 130.456872904 185.410855266 60 273 60 c 0
 360.589144734 60 414 130.456872904 414 246 c 0
 414 362.042556729 360.967744617 432 273 432 c 0xbc
412 75 m 1
 381.100383781 18.1845766298 325.241569558 -12 251 -12 c 0xbc
 126.168557456 -12 38 94.7957174819 38 246 c 0
 38 397.204282518 126.168557456 504 251 504 c 0
 324.419729173 504 379.744078115 474.447863298 412 418 c 1
 412 668 l 1
 496 668 l 1
 496 187 l 2
 496 114.47516311 500.567170819 64.2362840993 513 0 c 1
 434 0 l 1x7c
 412 75 l 1
EndSplineSet
EndChar

StartChar: e
Encoding: 101 101 45
Width: 539
GlyphClass: 2
Flags: W
HStem: -12 74<202.329 366.501> 225 67<129 421> 432 72<196.394 355.774>
VStem: 38 90<140.8 225 292 356.967> 421 90<292 361.963>
AnchorPoint: "Anchor-2" 364 0 basechar 0
AnchorPoint: "Anchor-1" 270 0 basechar 0
AnchorPoint: "Anchor-0" 281 496 basechar 0
LayerCount: 2
Fore
SplineSet
421 292 m 1
 421 369.943669826 358.057150824 432 279 432 c 0
 190.821344567 432 135.985859525 380.82021396 129 292 c 1
 421 292 l 1
478 87 m 1
 437.850775322 23.7649711318 366.682095393 -12 281 -12 c 0
 134.818484366 -12 38 91.193363995 38 247 c 0
 38 398.713806077 136.731411422 504 279 504 c 0
 413.133885427 504 511 396.853478011 511 250 c 0
 511 237.595917933 510.775255129 231.977296152 510 225 c 1
 128 225 l 1
 131.000206828 126.993243609 192.006134878 62 281 62 c 0
 332.379412669 62 371.692488733 78.6063855788 397 111 c 1
 478 87 l 1
EndSplineSet
EndChar

StartChar: f
Encoding: 102 102 46
Width: 311
GlyphClass: 1
Flags: W
HStem: 0 21G<99 183> 429 67<15 99 183 286> 635 71<188.373 286>
VStem: 99 84<0 429 496 629.809>
AnchorPoint: "Anchor-0" 90 668 basechar 0
LayerCount: 2
Fore
SplineSet
234 635 m 2
 193.179423624 635 183 622.225821334 183 571 c 2
 183 496 l 1
 286 496 l 1
 286 429 l 1
 183 429 l 1
 183 0 l 1
 99 0 l 1
 99 429 l 1
 15 429 l 1
 15 496 l 1
 99 496 l 1
 99 570 l 2
 99 677.684513976 126.690879715 706 232 706 c 2
 286 706 l 1
 286 635 l 1
 234 635 l 2
EndSplineSet
EndChar

StartChar: g
Encoding: 103 103 47
Width: 560
GlyphClass: 2
Flags: W
HStem: -192 74<197.858 361.689> 9 70<196.876 340.828> 432 72<196.949 340.967> 476 20G<423.103 490>
VStem: 38 91<154.229 357.575> 406 84<-72.1092 94 144.352 367.152> 429 61<472.261 496>
AnchorPoint: "Anchor-1" 280 -251 basechar 0
AnchorPoint: "Anchor-0" 268 496 basechar 0
LayerCount: 2
Fore
SplineSet
129 256 m 0xe8
 129 147.135676718 182.892625653 79 269 79 c 0
 356.898332002 79 409 144.87139454 409 256 c 0
 409 366.814357215 357.147784148 432 269 432 c 0
 183.045449222 432 129 364.05714955 129 256 c 0xe8
490 47 m 2xdc
 490 -120.539693597 425.416626849 -192 274 -192 c 0
 177.103423388 -192 104.024587318 -148.076968994 81 -76 c 1
 165 -53 l 1
 179.854872859 -95.5839688616 217.444832768 -118 274 -118 c 0
 368.466393197 -118 406 -76.4855561119 406 28 c 2
 406 94 l 1
 371.988880705 36.9813588288 319.976472529 9 248 9 c 0
 124.860291027 9 38 111.164247065 38 256 c 0
 38 401.128594985 125.108851021 504 248 504 c 0
 320.279342278 504 372.130641535 475.777140911 406 418 c 1xec
 429 496 l 1
 490 496 l 1xda
 490 47 l 2xdc
EndSplineSet
EndChar

StartChar: h
Encoding: 104 104 48
Width: 546
GlyphClass: 2
Flags: W
HStem: 0 21G<70 154 394 478> 432 72<218.189 357.532> 648 20G<70 154>
VStem: 70 84<0 369.554 421 668> 394 84<0 392.615>
AnchorPoint: "Anchor-1" 273 0 basechar 0
AnchorPoint: "Anchor-0" 114 668 basechar 0
LayerCount: 2
Fore
SplineSet
285 432 m 0
 201.208466883 432 154 373.259693879 154 269 c 2
 154 0 l 1
 70 0 l 1
 70 668 l 1
 154 668 l 1
 154 421 l 1
 187.220874425 476.368124041 240.487141334 504 314 504 c 0
 423.310746781 504 478 440.640499319 478 314 c 2
 478 0 l 1
 394 0 l 1
 394 289 l 2
 394 392.321383123 363.755459863 432 285 432 c 0
EndSplineSet
EndChar

StartChar: i
Encoding: 105 105 49
Width: 278
GlyphClass: 1
Flags: W
HStem: 0 21G<114 198> 429 67<45 114> 590 125<109.2 203.707>
VStem: 94 125<605.369 699.8> 114 84<0 429>
AnchorPoint: "Anchor-2" 198 0 basechar 0
LayerCount: 2
Fore
SplineSet
114 0 m 1xe8
 114 429 l 1
 45 429 l 1
 45 496 l 1
 198 496 l 1
 198 0 l 1
 114 0 l 1xe8
219 653 m 0xf0
 219 618 191 590 156 590 c 0
 121.77750275 590 94 618.225526988 94 653 c 0
 94 687 122 715 156 715 c 0
 191.282697173 715 219 687.72265436 219 653 c 0xf0
EndSplineSet
Substitution2: "Single Substitution lookup 4 subtable" dotlessi
Substitution2: "Single Substitution lookup 3 subtable" dotlessi
EndChar

StartChar: j
Encoding: 106 106 50
Width: 254
GlyphClass: 1
Flags: W
HStem: -161 74<-58 72.9596> 476 20G<90 174> 590 125<84.2933 179.043>
VStem: 69 125<605.293 700.043> 90 84<-69.3502 496>
LayerCount: 2
Fore
SplineSet
174 7 m 2xe8
 174 -121.568246878 132.455831532 -161 -3 -161 c 1
 -58 -159 l 1
 -58 -86 l 1
 -11 -87 l 1
 72.8284075908 -87 90 -70.1684391237 90 12 c 2
 90 496 l 1
 174 496 l 1
 174 7 l 2xe8
194 653 m 0xf0
 194 617.717302827 166.72265436 590 132 590 c 0
 97 590 69 618 69 653 c 0
 69 687.72265436 96.7173028276 715 132 715 c 0
 167 715 194 688 194 653 c 0xf0
EndSplineSet
EndChar

StartChar: k
Encoding: 107 107 51
Width: 490
GlyphClass: 2
Flags: W
HStem: 0 21G<70 154 362.59 480> 476 20G<336.063 455> 648 20G<70 154>
VStem: 70 84<0 166 273 668> 354 101<395 496> 377 103<0 103>
DStem2: 154 273 212 229 0.673898 0.738825<0 6.57778 90.1232 299.537> 268 291 212 229 0.588832 -0.808255<17.1372 299.385>
AnchorPoint: "Anchor-1" 251 0 basechar 0
AnchorPoint: "Anchor-0" 304 668 basechar 0
LayerCount: 2
Fore
SplineSet
70 0 m 1xf4
 70 668 l 1
 154 668 l 1
 154 273 l 1
 354 496 l 1
 455 496 l 1xf8
 268 291 l 1
 480 0 l 1
 377 0 l 1
 212 229 l 1
 154 166 l 1
 154 0 l 1
 70 0 l 1xf4
EndSplineSet
EndChar

StartChar: l
Encoding: 108 108 52
Width: 239
GlyphClass: 2
Flags: W
HStem: 0 74<158.349 224> 647 20G<70 154>
VStem: 70 84<78.6111 667>
AnchorPoint: "Anchor-1" 145 0 basechar 0
AnchorPoint: "Anchor-0" 117 668 basechar 0
LayerCount: 2
Fore
SplineSet
154 138 m 2
 154 84.0196052456 161.98437293 74 205 74 c 2
 224 74 l 1
 224 0 l 1
 187 0 l 2
 91.8507262982 0 70 23.1580347092 70 124 c 2
 70 667 l 1
 154 667 l 1
 154 138 l 2
EndSplineSet
EndChar

StartChar: m
Encoding: 109 109 53
Width: 841
GlyphClass: 2
Flags: W
HStem: 0 21G<70 154 380 464 689 773> 432 72<217.287 344.215 516.66 651.762> 476 20G<70 137.867>
VStem: 70 84<0 372.152> 70 62<472.136 496> 380 84<0 372.044> 689 84<0 391.874>
AnchorPoint: "Anchor-1" 421 0 basechar 0
AnchorPoint: "Anchor-0" 433 496 basechar 0
LayerCount: 2
Fore
SplineSet
274 432 m 0xd6
 198.085867091 432 154 372.116697201 154 269 c 2
 154 0 l 1
 70 0 l 1xd6
 70 496 l 1
 132 496 l 1xae
 154 421 l 1
 187.27414995 475.448609009 238.529056669 504 303 504 c 0
 375.166762562 504 423.0529649 474.86643634 446 417 c 1
 484.172924001 475.263936633 539.332953682 504 613 504 c 0
 718.131619235 504 773 438.843797841 773 314 c 2
 773 0 l 1
 689 0 l 1
 689 289 l 2
 689 390.089644361 657.933582533 432 583 432 c 0
 507.901810917 432 464 371.865586727 464 269 c 2
 464 0 l 1
 380 0 l 1
 380 289 l 2
 380 390.089644361 348.933582533 432 274 432 c 0xd6
EndSplineSet
EndChar

StartChar: n
Encoding: 110 110 54
Width: 546
GlyphClass: 2
Flags: W
HStem: 0 21G<70 154 394 478> 432 72<218.189 357.532> 476 20G<70 137.867>
VStem: 70 84<0 369.554> 70 62<472.136 496> 394 84<0 392.615>
AnchorPoint: "Anchor-1" 257 0 basechar 0
AnchorPoint: "Anchor-0" 288 496 basechar 0
LayerCount: 2
Fore
SplineSet
285 432 m 0xd4
 201.208466883 432 154 373.259693879 154 269 c 2
 154 0 l 1
 70 0 l 1xd4
 70 496 l 1
 132 496 l 1xac
 154 421 l 1
 187.220874425 476.368124041 240.487141334 504 314 504 c 0
 423.310746781 504 478 440.640499319 478 314 c 2
 478 0 l 1
 394 0 l 1
 394 289 l 2
 394 392.321383123 363.755459863 432 285 432 c 0xd4
EndSplineSet
EndChar

StartChar: o
Encoding: 111 111 55
Width: 552
GlyphClass: 2
Flags: W
HStem: -12 74<202.202 350.066> 430 74<202.202 350.066>
VStem: 38 90<145.284 346.716> 424 90<144.959 347.041>
AnchorPoint: "Anchor-2" 355 0 basechar 0
AnchorPoint: "Anchor-1" 276 0 basechar 0
AnchorPoint: "Anchor-0" 276 496 basechar 0
LayerCount: 2
Fore
SplineSet
128 246 m 0
 128 136.797217914 188.162979626 62 276 62 c 0
 364.239268053 62 424 136.297126204 424 246 c 0
 424 355.702873796 364.239268053 430 276 430 c 0
 188.162979626 430 128 355.202782086 128 246 c 0
514 246 m 0
 514 92.0336118852 418.031009191 -12 276 -12 c 0
 134.930225292 -12 38 93.0756223753 38 246 c 0
 38 398.924377625 134.930225292 504 276 504 c 0
 418.031009191 504 514 399.966388115 514 246 c 0
EndSplineSet
Substitution2: "Single Substitution lookup 12 subtable" ordmasculine
Substitution2: "'aalt' Access All Alternates lookup 0 subtable" ordmasculine
EndChar

StartChar: p
Encoding: 112 112 56
Width: 566
GlyphClass: 1
Flags: W
HStem: -161 21G<70 154> -12 72<221.837 366.423> 432 72<220.619 366.507> 476 20G<70 136.897>
VStem: 70 84<-161 75 132.749 359.468> 70 61<472.261 496> 434 94<136.225 355.884>
AnchorPoint: "Anchor-0" 306 496 basechar 0
LayerCount: 2
Fore
SplineSet
293 432 m 0xe2
 205.032255383 432 152 362.042556729 152 246 c 0
 152 130.456872904 205.410855266 60 293 60 c 0
 380.589144734 60 434 130.456872904 434 246 c 0
 434 362.042556729 380.967744617 432 293 432 c 0xe2
315 -12 m 0
 242.258395522 -12 187.117847519 17.7964451941 154 75 c 1
 154 -161 l 1
 70 -161 l 1xea
 70 496 l 1
 131 496 l 1xd6
 154 418 l 1xda
 187.037400973 474.063468318 243.081373075 504 315 504 c 0
 439.831442544 504 528 397.204282518 528 246 c 0
 528 94.7957174819 439.831442544 -12 315 -12 c 0
EndSplineSet
EndChar

StartChar: q
Encoding: 113 113 57
Width: 576
GlyphClass: 1
Flags: W
HStem: -173 79<512.748 626.807> -12 72<199.032 344.74> 432 72<198.947 345.647> 476 20G<429.103 496>
VStem: 38 93<136.369 355.74> 412 84<-76.0937 75 132.749 359.468> 435 61<472.261 496>
LayerCount: 2
Fore
SplineSet
628 -159 m 1xdc
 598.797715958 -168.062777807 568.82172407 -173 543 -173 c 0
 456.931493517 -173 412 -122.923678982 412 -27 c 2
 412 75 l 1
 381.02844706 18.0523058847 325.06898093 -12 250 -12 c 0
 125.961237806 -12 38 95.0471667639 38 246 c 0
 38 396.952833236 125.961237806 504 250 504 c 0
 323.744401354 504 379.88851384 474.195100779 412 418 c 1xec
 435 496 l 1
 496 496 l 1xda
 496 -24 l 2
 496 -67.1903275695 523.192667751 -94 567 -94 c 0
 585.132002582 -94 606.314124912 -89.4857772084 628 -81 c 1
 628 -159 l 1xdc
273 432 m 256
 184.720230437 432 131 361.634064358 131 246 c 0
 131 130.866162334 185.102123932 60 273 60 c 256
 360.589144734 60 414 130.456872904 414 246 c 0
 414 362.042556729 360.967744617 432 273 432 c 256
EndSplineSet
EndChar

StartChar: r
Encoding: 114 114 58
Width: 340
GlyphClass: 2
Flags: W
HStem: 0 21G<70 154> 417 87<239.771 335> 476 20G<70 136.87>
VStem: 70 84<0 333.862> 70 61<472.148 496>
AnchorPoint: "Anchor-1" 113 0 basechar 0
AnchorPoint: "Anchor-0" 199 496 basechar 0
LayerCount: 2
Fore
SplineSet
70 0 m 1xd0
 70 496 l 1
 131 496 l 1xa8
 158 404 l 1
 194.751522794 468.563485989 257.474152593 504 335 504 c 1
 335 417 l 1
 320 417 l 2
 208.259650698 417 154 350.319465408 154 213 c 2
 154 0 l 1
 70 0 l 1xd0
EndSplineSet
EndChar

StartChar: s
Encoding: 115 115 59
Width: 471
GlyphClass: 2
Flags: W
HStem: -12 71<157.993 320.914> 434 71<151.191 305.417>
VStem: 41 85<325.315 409.404> 356 85<90.2529 182.902>
DStem2: 218 299 177 231 0.980031 -0.198847<-87.1902 144.809>
AnchorPoint: "Anchor-1" 230 0 basechar 0
AnchorPoint: "Anchor-0" 240 496 basechar 0
LayerCount: 2
Fore
SplineSet
441 136 m 0
 441 51.004950437 355.006756836 -12 239 -12 c 0
 142.25791184 -12 62.0829644673 35.7966032414 31 112 c 1
 112 142 l 1
 125.096490782 90.621459239 173.481133232 59 239 59 c 0
 305.202825137 59 356 91.1281276911 356 133 c 0
 356 178.04546763 325.919378053 201.016124389 246 217 c 2
 177 231 l 1
 82 252 41 293 41 367 c 0
 41 446.738394481 121.637439523 505 232 505 c 0
 321.00990124 505 391.003002927 466.99299317 418 404 c 1
 339 375 l 1
 322.992316732 411.017287354 278.974578952 434 226 434 c 0
 168.211963014 434 126 406.140104411 126 368 c 0
 126 331.749522954 152.451192191 311.911128811 218 299 c 2
 283 286 l 2
 394.78156396 264.042907079 441 220.164645016 441 136 c 0
EndSplineSet
EndChar

StartChar: t
Encoding: 116 116 60
Width: 324
GlyphClass: 2
Flags: W
HStem: 0 74<192.349 284> 429 67<20 104 188 284>
VStem: 104 84<78.6111 429 496 621>
AnchorPoint: "Anchor-1" 183 0 basechar 0
AnchorPoint: "Anchor-0" 145 621 basechar 0
LayerCount: 2
Fore
SplineSet
188 138 m 2
 188 84.0196052456 195.98437293 74 239 74 c 2
 284 74 l 1
 284 0 l 1
 221 0 l 2
 125.850726298 0 104 23.158034709 104 124 c 2
 104 429 l 1
 20 429 l 1
 20 496 l 1
 104 496 l 1
 104 621 l 1
 188 621 l 1
 188 496 l 1
 284 496 l 1
 284 429 l 1
 188 429 l 1
 188 138 l 2
EndSplineSet
EndChar

StartChar: u
Encoding: 117 117 61
Width: 536
GlyphClass: 2
Flags: W
HStem: -12 74<188.532 321.326> 0 21G<397.167 466> 477 20G<68 152 382 466>
VStem: 68 84<101.002 497> 382 84<120.799 497> 403 63<0 24>
AnchorPoint: "Anchor-2" 466 0 basechar 0
AnchorPoint: "Anchor-1" 268 0 basechar 0
AnchorPoint: "Anchor-0" 267 496 basechar 0
LayerCount: 2
Fore
SplineSet
256 62 m 0xb8
 336.944453466 62 382 119.928559829 382 224 c 2
 382 497 l 1
 466 497 l 1xb8
 466 0 l 1
 403 0 l 1x74
 382 72 l 1
 349.040808418 15.0704872683 299.089314054 -12 227 -12 c 0
 121.914045157 -12 68 53.1037526424 68 180 c 2
 68 497 l 1
 152 497 l 1
 152 200 l 2
 152 103.067295043 182.949265829 62 256 62 c 0xb8
EndSplineSet
EndChar

StartChar: v
Encoding: 118 118 62
Width: 441
GlyphClass: 1
Flags: W
HStem: 0 21G<169.863 271.137> 476 20G<0 97.7358 343.316 441>
DStem2: 91 496 0 496 0.336096 -0.941828<0 407.238> 221 110 264 0 0.336096 0.941828<0 406.902>
LayerCount: 2
Fore
SplineSet
177 0 m 1
 0 496 l 1
 91 496 l 1
 221 110 l 1
 350 496 l 1
 441 496 l 1
 264 0 l 1
 177 0 l 1
EndSplineSet
EndChar

StartChar: w
Encoding: 119 119 63
Width: 654
GlyphClass: 1
Flags: W
HStem: 0 21G<137.234 224.414 429.586 517.726> 399 97<235.5 419.5>
VStem: 0 90<406 496> 564 90<406 496>
DStem2: 90 496 0 496 0.277023 -0.960863<0 378.954> 185 129 219 0 0.261275 0.965265<0 297.722> 371 496 327 399 0.261275 -0.965265<82.1346 379.857> 469 129 512 0 0.275233 0.961378<0 378.973>
AnchorPoint: "Anchor-0" 327 496 basechar 0
LayerCount: 2
Fore
SplineSet
143 0 m 1
 0 496 l 1
 90 496 l 1
 185 129 l 1
 284 496 l 1
 371 496 l 1
 469 129 l 1
 564 496 l 1
 654 496 l 1
 512 0 l 1
 435 0 l 1
 327 399 l 1
 219 0 l 1
 143 0 l 1
EndSplineSet
EndChar

StartChar: x
Encoding: 120 120 64
Width: 461
GlyphClass: 1
Flags: W
HStem: 0 21G<0 113.162 347.73 461> 476 20G<9 122.186 338.698 452>
VStem: 0 99<0 99> 9 99<397 496> 353 99<397 496> 362 99<0 99>
DStem2: 0 0 99 0 0.579839 0.814731<57.4041 284.088 397.336 608.79> 108 496 9 496 0.579839 -0.814731<0 210.874 324.122 551.386>
AnchorPoint: "Anchor-1" 230 0 basechar 0
AnchorPoint: "Anchor-0" 230 496 basechar 0
LayerCount: 2
Fore
SplineSet
0 0 m 1xe4
 181 255 l 1
 9 496 l 1
 108 496 l 1
 230 324 l 1
 353 496 l 1
 452 496 l 1xd8
 280 255 l 1
 461 0 l 1
 362 0 l 1
 230 185 l 1
 99 0 l 1
 0 0 l 1xe4
EndSplineSet
EndChar

StartChar: y
Encoding: 121 121 65
Width: 429
GlyphClass: 2
Flags: W
HStem: -161 74<37 148.799> 475 20G<0 99.3874 330.613 429>
VStem: 0 93<402 495> 337 92<403 495>
DStem2: 215 113 253 -22 0.322264 0.94665<0 400.936>
AnchorPoint: "Anchor-1" 215 0 basechar 0
AnchorPoint: "Anchor-0" 220 496 basechar 0
LayerCount: 2
Fore
SplineSet
37 -161 m 1
 37 -87 l 1
 71 -87 l 2
 142.965122669 -87 157.989813847 -75.0358940619 179 -1 c 1
 0 495 l 1
 93 495 l 1
 215 113 l 1
 337 495 l 1
 429 495 l 1
 253 -22 l 2
 214.024245063 -136.928508148 184.064762398 -161 80 -161 c 2
 37 -161 l 1
EndSplineSet
EndChar

StartChar: z
Encoding: 122 122 66
Width: 460
GlyphClass: 2
Flags: W
HStem: 0 74<135 430> 422 74<49 325>
DStem2: 40 74 135 74 0.633601 0.77366<60.1921 449.81>
AnchorPoint: "Anchor-1" 230 0 basechar 0
AnchorPoint: "Anchor-0" 237 496 basechar 0
LayerCount: 2
Fore
SplineSet
40 0 m 1
 40 74 l 1
 325 422 l 1
 49 422 l 1
 49 496 l 1
 420 496 l 1
 420 422 l 1
 135 74 l 1
 430 74 l 1
 430 0 l 1
 40 0 l 1
EndSplineSet
EndChar

StartChar: circumflex
Encoding: 710 710 67
Width: 429
GlyphClass: 1
Flags: W
HStem: 575 120
VStem: 53 323
DStem2: 53 575 147 575 0.742634 0.669697<69.8076 160.416> 376 575 214 636 0.742634 -0.669697<-161.158 -69.8076>
LayerCount: 2
Fore
SplineSet
53 575 m 1
 165 676 l 2
 177.6317445 688.6317445 194.390311605 695 215 695 c 0
 234.770395818 695 251.478749315 688.521250685 264 676 c 2
 376 575 l 1
 282 575 l 1
 214 636 l 1
 147 575 l 1
 53 575 l 1
EndSplineSet
EndChar

StartChar: caron
Encoding: 711 711 68
Width: 429
GlyphClass: 1
Flags: W
HStem: 569 120
VStem: 53 323
DStem2: 147 689 53 689 0.742634 -0.669697<0 90.608> 214 628 264 588 0.742634 0.669697<0 91.3507>
LayerCount: 2
Fore
SplineSet
215 569 m 0
 194.390311605 569 177.6317445 575.3682555 165 588 c 2
 53 689 l 1
 147 689 l 1
 214 628 l 1
 282 689 l 1
 376 689 l 1
 264 588 l 2
 251.478749315 575.478749315 234.770395818 569 215 569 c 0
EndSplineSet
EndChar

StartChar: breve
Encoding: 728 728 69
Width: 399
GlyphClass: 1
Flags: W
HStem: 569 67<144.574 254.521>
VStem: 53 294
LayerCount: 2
Fore
SplineSet
347 689 m 1
 332.975601002 618.878005008 271.875044867 569 200 569 c 0
 128.012499544 569 68.0026051662 617.98766888 53 689 c 1
 122 689 l 1
 135.173160575 656.573758586 165.451522267 636 200 636 c 0
 233.047184339 636 264.019948244 657.045595987 278 689 c 1
 347 689 l 1
EndSplineSet
EndChar

StartChar: dotaccent
Encoding: 729 729 70
Width: 214
GlyphClass: 1
Flags: W
HStem: 590 108<63.676 149.846>
VStem: 53 108<600.676 686.846>
LayerCount: 2
Fore
SplineSet
161 644 m 0
 161 614 137 590 107 590 c 0
 77 590 53 614 53 644 c 0
 53 674 77 698 107 698 c 0
 138 698 161 675 161 644 c 0
EndSplineSet
EndChar

StartChar: ring
Encoding: 730 730 71
Width: 253
GlyphClass: 1
Flags: W
HStem: 559 58<82.1682 166.074> 719 58<82.1682 166.074>
VStem: 15 57<627.195 708.805> 176 57<626.966 709.034>
LayerCount: 2
Fore
SplineSet
72 668 m 0
 72 639.278315609 94.7151453268 617 124 617 c 0
 153.284854673 617 176 639.278315609 176 668 c 0
 176 696.721684391 153.284854673 719 124 719 c 0
 94.7151453268 719 72 696.721684391 72 668 c 0
233 668 m 0
 233 606.939240579 185.940378514 559 126 559 c 0
 64.9495333745 559 15 608.049541782 15 668 c 0
 15 727.950458218 64.9495333745 777 126 777 c 0
 185.940378514 777 233 729.060759421 233 668 c 0
EndSplineSet
EndChar

StartChar: ogonek
Encoding: 731 731 72
Width: 263
GlyphClass: 1
Flags: W
HStem: -173 58<127.179 209.139> -20 20G<108.887 210>
VStem: 53 70<-109.112 -35.0554>
LayerCount: 2
Fore
SplineSet
172 -115 m 0
 183.383484193 -115 196.233926097 -112.29464381 210 -107 c 1
 210 -161 l 1
 187 -169 166 -173 147 -173 c 0
 91.9878043188 -173 53 -138.98936219 53 -91 c 0
 53 -48.1997983869 84.7744207176 -12.0563948206 133 0 c 1
 210 0 l 1
 150.728530588 -21.7328721178 123 -45.6367777971 123 -75 c 0
 123 -100.153274799 141.187238372 -115 172 -115 c 0
EndSplineSet
EndChar

StartChar: quoteleft
Encoding: 8216 8216 73
Width: 235
GlyphClass: 1
Flags: W
HStem: 418 250<120 127.898>
VStem: 53 129<434.494 529.641>
DStem2: 58 507 128 546 0.359367 0.933196<61.5504 172.525>
LayerCount: 2
Fore
SplineSet
182 482 m 0
 182 446 154 418 118 418 c 0
 81.7183279835 418 53 446.276507553 53 482 c 0
 53 489.507896706 54.7823299832 498.419546622 58 507 c 2
 120 668 l 1
 175 668 l 1
 128 546 l 1
 159.126708688 540.979563115 182 513.870477115 182 482 c 0
EndSplineSet
EndChar

StartChar: quoteright
Encoding: 8217 8217 74
Width: 235
GlyphClass: 1
Flags: W
HStem: 429 251<107.282 115>
VStem: 53 129<568.219 663.07>
DStem2: 60 429 115 429 0.357433 0.933939<19.6588 131.674>
LayerCount: 2
Fore
SplineSet
117 680 m 0
 153.281672017 680 182 651.723492447 182 616 c 0
 182 608.492103293 180.217670017 599.580453376 177 591 c 2
 115 429 l 1
 60 429 l 1
 107 552 l 1
 75.1700225832 557.968120766 53 583.833147113 53 615 c 0
 53 650.773709879 81.7766548884 680 117 680 c 0
EndSplineSet
EndChar

StartChar: quotesinglbase
Encoding: 8218 8218 75
Width: 235
GlyphClass: 1
Flags: W
HStem: -134 251<107.282 115>
VStem: 53 129<5.21875 100.07>
DStem2: 60 -134 115 -134 0.357433 0.933939<19.6588 131.674>
LayerCount: 2
Fore
SplineSet
117 117 m 0
 153.281672017 117 182 88.7234924474 182 53 c 0
 182 45.4921032933 180.217670017 36.5804533774 177 28 c 2
 115 -134 l 1
 60 -134 l 1
 107 -11 l 1
 75.1700225839 -5.03187923447 53 20.8331471134 53 52 c 0
 53 87.7737098788 81.7766548885 117 117 117 c 0
EndSplineSet
EndChar

StartChar: quotedblleft
Encoding: 8220 8220 76
Width: 398
GlyphClass: 1
Flags: W
HStem: 418 250<120 127.898 283 290.898>
VStem: 54 128<434.153 529.344> 217 128<434.153 529.344>
DStem2: 61 515 128 546 0.359796 0.933031<53.0303 163.982> 224 515 291 546 0.359796 0.933031<53.0303 163.982>
LayerCount: 2
Fore
SplineSet
345 482 m 0
 345 446 317 418 281 418 c 0
 242.903173721 418 217 443.093699543 217 480 c 0
 217 492.020500415 219.37673061 503.904153463 224 515 c 2
 283 668 l 1
 338 668 l 1
 291 546 l 1
 322.126708688 540.979563115 345 513.870477115 345 482 c 0
182 482 m 0
 182 446 154 418 118 418 c 0
 79.9031737217 418 54 443.093699543 54 480 c 0
 54 492.020500415 56.3767306096 503.904153463 61 515 c 2
 120 668 l 1
 175 668 l 1
 128 546 l 1
 159.126708688 540.979563115 182 513.870477115 182 482 c 0
EndSplineSet
EndChar

StartChar: quotedblright
Encoding: 8221 8221 77
Width: 398
GlyphClass: 1
Flags: W
HStem: 429 251<-56.7182 -49 107.078 115>
VStem: 53 129<568.219 663.07> 216 129<568.219 663.15>
DStem2: 60 429 115 429 0.357433 0.933939<19.6588 131.674> 223 429 279 429 0.352389 0.935854<19.7338 131.672>
LayerCount: 2
Fore
SplineSet
281 680 m 0
 317 680 345 652 345 616 c 0
 345 607.967356555 343.442561476 600.180163933 340 591 c 2
 279 429 l 1
 223 429 l 1
 270 552 l 1
 238.170022583 557.968120766 216 583.833147113 216 615 c 0
 216 651 245 680 281 680 c 0
117 680 m 0
 153.281672017 680 182 651.723492447 182 616 c 0
 182 608.492103293 180.217670017 599.580453376 177 591 c 2
 115 429 l 1
 60 429 l 1
 107 552 l 1
 75.1700225832 557.968120766 53 583.833147113 53 615 c 0
 53 650.773709879 81.7766548884 680 117 680 c 0
EndSplineSet
EndChar

StartChar: quotedblbase
Encoding: 8222 8222 78
Width: 398
GlyphClass: 1
Flags: W
HStem: -134 251<-56.7182 -49 107.078 115>
VStem: 53 129<5.21875 100.07> 216 129<5.21875 100.15>
DStem2: 60 -134 115 -134 0.357433 0.933939<19.6588 131.674> 223 -134 279 -134 0.352389 0.935854<19.7338 131.672>
LayerCount: 2
Fore
SplineSet
281 117 m 0
 317 117 345 89 345 53 c 0
 345 44.9673565552 343.442561476 37.1801639333 340 28 c 2
 279 -134 l 1
 223 -134 l 1
 270 -11 l 1
 238.170022584 -5.03187923446 216 20.8331471135 216 52 c 0
 216 88 245 117 281 117 c 0
117 117 m 0
 153.281672017 117 182 88.7234924474 182 53 c 0
 182 45.4921032933 180.217670017 36.5804533774 177 28 c 2
 115 -134 l 1
 60 -134 l 1
 107 -11 l 1
 75.1700225839 -5.03187923447 53 20.8331471134 53 52 c 0
 53 87.7737098788 81.7766548885 117 117 117 c 0
EndSplineSet
EndChar

StartChar: dagger
Encoding: 8224 8224 79
Width: 541
GlyphClass: 1
Flags: W
HStem: 0 21G<230 311> 416 80<40 230 311 501> 648 20G<230 311>
VStem: 230 81<0 416 496 668>
LayerCount: 2
Fore
SplineSet
230 0 m 1
 230 416 l 1
 40 416 l 1
 40 496 l 1
 230 496 l 1
 230 668 l 1
 311 668 l 1
 311 496 l 1
 501 496 l 1
 501 416 l 1
 311 416 l 1
 311 0 l 1
 230 0 l 1
EndSplineSet
EndChar

StartChar: daggerdbl
Encoding: 8225 8225 80
Width: 541
GlyphClass: 1
Flags: W
HStem: 0 21G<230 311> 172 79<40 230 311 501> 416 80<40 230 311 501> 648 20G<230 311>
VStem: 230 81<0 172 251 416 496 668>
LayerCount: 2
Fore
SplineSet
230 0 m 1
 230 172 l 1
 40 172 l 1
 40 251 l 1
 230 251 l 1
 230 416 l 1
 40 416 l 1
 40 496 l 1
 230 496 l 1
 230 668 l 1
 311 668 l 1
 311 496 l 1
 501 496 l 1
 501 416 l 1
 311 416 l 1
 311 251 l 1
 501 251 l 1
 501 172 l 1
 311 172 l 1
 311 0 l 1
 230 0 l 1
EndSplineSet
EndChar

StartChar: bullet
Encoding: 8226 8226 81
Width: 438
GlyphClass: 1
Flags: W
HStem: 88 332<136.23 301.77>
VStem: 53 332<171.23 336.77>
LayerCount: 2
Fore
SplineSet
385 254 m 0
 385 162 311 88 219 88 c 0
 127 88 53 162 53 254 c 0
 53 346 127 420 219 420 c 0
 311 420 385 346 385 254 c 0
EndSplineSet
EndChar

StartChar: ellipsis
Encoding: 8230 8230 82
Width: 696
GlyphClass: 1
Flags: W
HStem: -12 129<69.7473 165.07 300.397 396.07 530.93 626.253>
VStem: 53 129<4.74728 100.07> 284 129<4.66907 100.15> 514 129<4.74728 100.07>
LayerCount: 2
Fore
SplineSet
413 52 m 0
 413 16.7766548884 383.773709879 -12 348 -12 c 0
 312 -12 284 16 284 52 c 0
 284 88.7815066632 311.78436267 117 348 117 c 0
 384 117 413 88 413 52 c 0
182 52 m 0
 182 16.7766548884 152.773709879 -12 117 -12 c 0
 82 -12 53 17 53 52 c 0
 53 87.7737098788 81.7766548885 117 117 117 c 0
 153 117 182 88 182 52 c 0
643 52 m 0
 643 17 614 -12 579 -12 c 0
 543.226290121 -12 514 16.7766548884 514 52 c 0
 514 88 543 117 579 117 c 0
 614.223345111 117 643 87.7737098785 643 52 c 0
EndSplineSet
EndChar

StartChar: perthousand
Encoding: 8240 8240 83
Width: 1328
GlyphClass: 1
Flags: W
HStem: -12 74<644.214 771.114 1045.21 1172.11> 0 21G<186 288.012> 277 74<644.014 771.414 1045.01 1172.41> 316 75<156.277 283.158> 605 75<156.277 283.158> 648 20G<639.988 742>
VStem: 38 74<434.577 561.423> 186 88<0 88> 327 74<434.669 561.331> 526 74<105.686 232.986> 654 88<580 668> 815 74<105.886 232.887> 927 74<105.686 232.986> 1216 74<105.886 232.887>
DStem2: 186 0 274 0 0.573791 0.819001<50.4936 815.627>
LayerCount: 2
Fore
SplineSet
1001 169 m 0xa3fc
 1001 109.277527707 1048.71937376 62 1109 62 c 0
 1168 62 1216 110 1216 169 c 0
 1216 229.280626237 1168.72247229 277 1109 277 c 0
 1048 277 1001 230 1001 169 c 0xa3fc
600 169 m 0
 600 109.277527708 647.719373761 62 708 62 c 0
 767 62 815 110 815 169 c 0
 815 229.280626239 767.722472292 277 708 277 c 0
 647 277 600 230 600 169 c 0
1290 169 m 0
 1290 69 1209 -12 1109 -12 c 0
 1008.2236618 -12 927 68.7773779445 927 169 c 0
 927 270 1008 351 1109 351 c 0
 1209.72267481 351 1290 270.279153676 1290 169 c 0
889 169 m 0
 889 69 808 -12 708 -12 c 0
 607.223661802 -12 526 68.777377946 526 169 c 0
 526 270 607 351 708 351 c 0
 808.722674808 351 889 270.279153675 889 169 c 0
112 498 m 0
 112 438.77761825 160.224138047 391 220 391 c 0
 279 391 327 439 327 498 c 0
 327 557 279 605 220 605 c 0x1bfc
 160.224138047 605 112 557.22238175 112 498 c 0
186 0 m 1x47fc
 654 668 l 1
 742 668 l 1
 274 0 l 1
 186 0 l 1x47fc
401 498 m 0
 401 397.223661802 320.222622054 316 220 316 c 0
 119 316 38 397 38 498 c 0
 38 599 119 680 220 680 c 0x1bfc
 320.222622054 680 401 598.776338198 401 498 c 0
EndSplineSet
EndChar

StartChar: guilsinglleft
Encoding: 8249 8249 84
Width: 353
GlyphClass: 1
Flags: W
VStem: 201 99<40 139 362 461>
DStem2: 53 250 151 250 0.576835 0.816861<56.5298 257.729> 151 250 53 250 0.578664 -0.815566<0 200.202>
LayerCount: 2
Fore
SplineSet
201 40 m 1
 53 250 l 1
 201 461 l 1
 300 461 l 1
 151 250 l 1
 300 40 l 1
 201 40 l 1
EndSplineSet
EndChar

StartChar: guilsinglright
Encoding: 8250 8250 85
Width: 353
GlyphClass: 1
Flags: W
VStem: 53 100<40 140 361 461>
DStem2: 153 461 53 461 0.576835 -0.816861<0 200.623> 53 40 153 40 0.578664 0.815566<57.8664 257.49>
LayerCount: 2
Fore
SplineSet
53 40 m 1
 202 250 l 1
 53 461 l 1
 153 461 l 1
 300 250 l 1
 153 40 l 1
 53 40 l 1
EndSplineSet
EndChar

StartChar: fraction
Encoding: 8260 8260 86
Width: 586
GlyphClass: 1
Flags: W
HStem: 0 21G<15 117.012> 648 20G<468.988 571>
VStem: 15 88<0 88> 483 88<580 668>
DStem2: 15 0 103 0 0.573791 0.819001<50.4936 815.627>
LayerCount: 2
Fore
SplineSet
15 0 m 1
 483 668 l 1
 571 668 l 1
 103 0 l 1
 15 0 l 1
EndSplineSet
EndChar

StartChar: ordfeminine
Encoding: 170 170 87
Width: 371
GlyphClass: 1
Flags: W
HStem: 397 51<125.522 223.164> 527 49<137.724 239> 643 49<136.273 232.042>
VStem: 53 70<453.365 510.265> 239 68<463.447 530 578 635.531> 260 58<403 425.75>
LayerCount: 2
Fore
SplineSet
123 483 m 0xf8
 123 460.928518203 141.099925484 448 172 448 c 0
 214.232688627 448 239 474.245956828 239 519 c 2
 239 530 l 1
 217 527 l 2
 144.546690571 516.937040357 123 506.851355409 123 483 c 0xf8
248 442 m 1
 232.786947089 413.602301232 197.36870446 397 152 397 c 0
 92.0555443776 397 53 428.954536309 53 478 c 0
 53 535.713403405 103.40951152 564.944954464 222 576 c 1
 239 578 l 1
 239 627.028306833 225.97692711 643 186 643 c 0
 154.498061987 643 134.906613378 630.62645351 129 607 c 1
 68 625 l 1
 82.8953102693 666.706868755 128.57395028 692 189 692 c 0
 267.16815671 692 307 651.830598716 307 573 c 2
 307 491 l 2xf8
 307 468.495173295 307.770533316 462.330906767 318 403 c 1
 260 403 l 1xf4
 248 442 l 1
EndSplineSet
EndChar

StartChar: guillemotleft
Encoding: 171 171 88
Width: 562
GlyphClass: 1
Flags: W
VStem: 201 99<40 139 362 461> 409 100<40 140 361 461>
DStem2: 53 251 151 251 0.578664 0.815566<56.709 256.911> 151 251 53 251 0.576835 -0.816861<0 201.199> 262 251 359 251 0.581238 0.813733<56.3801 256.326> 359 251 262 251 0.57941 -0.815036<0 200.943>
LayerCount: 2
Fore
SplineSet
201 40 m 1
 53 251 l 1
 201 461 l 1
 300 461 l 1
 151 251 l 1
 300 40 l 1
 201 40 l 1
409 40 m 1
 262 251 l 1
 409 461 l 1
 509 461 l 1
 359 251 l 1
 509 40 l 1
 409 40 l 1
EndSplineSet
EndChar

StartChar: logicalnot
Encoding: 172 172 89
Width: 602
GlyphClass: 1
Flags: W
HStem: 317 79<53 468>
VStem: 468 81<90 317>
LayerCount: 2
Fore
SplineSet
468 90 m 1
 468 317 l 1
 53 317 l 1
 53 396 l 1
 549 396 l 1
 549 90 l 1
 468 90 l 1
EndSplineSet
EndChar

StartChar: registered
Encoding: 174 174 90
Width: 798
GlyphClass: 1
Flags: W
HStem: -12 61<295.515 502.485> 301 58<340 382> 469 61<340 460.996> 619 61<295.442 502.558>
VStem: 53 62<229.663 437.073> 264 76<162 301 359 469> 474 76<371.977 456.343> 484 86<162 248> 683 62<229.663 437.073>
DStem2: 462 311 382 301 0.586879 -0.809675<0 133.553>
LayerCount: 2
Fore
SplineSet
474 413 m 0xfe80
 474 452.03489206 447.946441377 469 388 469 c 2
 340 469 l 1
 340 359 l 1
 393 359 l 2
 447.501162797 359 474 376.665891469 474 413 c 0xfe80
550 414 m 0
 550 361.971587001 520.967806219 327.990723826 462 311 c 1
 570 162 l 1
 484 162 l 1xfd80
 382 301 l 1
 340 301 l 1
 340 162 l 1
 264 162 l 1
 264 530 l 1
 376 530 l 2
 503.250141563 530 550 498.833427709 550 414 c 0
115 333 m 0
 115 176 242 49 399 49 c 0
 556 49 683 176 683 333 c 0
 683 491.052820271 555.947555794 619 399 619 c 0
 242.052444206 619 115 491.052820271 115 333 c 0
745 333 m 0
 745 142.775961367 589.775412658 -12 399 -12 c 0
 208.224587342 -12 53 142.775961367 53 333 c 0
 53 524.776061509 207.776607256 680 399 680 c 0
 590.223392744 680 745 524.776061509 745 333 c 0
EndSplineSet
EndChar

StartChar: macron
Encoding: 175 175 91
Width: 382
GlyphClass: 1
Flags: W
HStem: 601 67<53 329>
VStem: 53 276<601 668>
LayerCount: 2
Fore
SplineSet
53 601 m 1
 53 668 l 1
 329 668 l 1
 329 601 l 1
 53 601 l 1
EndSplineSet
EndChar

StartChar: degree
Encoding: 176 176 92
Width: 352
GlyphClass: 1
Flags: W
HStem: 408 63<125.339 226.849> 617 63<125.151 229.172>
VStem: 40 63<493.339 594.849> 249 63<493.151 597.172>
LayerCount: 2
Fore
SplineSet
103 544 m 0
 103 504 136 471 176 471 c 0
 217 471 249 503 249 544 c 0
 249 586 218 617 176 617 c 0
 135 617 103 585 103 544 c 0
312 544 m 0
 312 469 251 408 176 408 c 0
 101 408 40 469 40 544 c 0
 40 619 101 680 176 680 c 0
 251 680 312 619 312 544 c 0
EndSplineSet
EndChar

StartChar: plusminus
Encoding: 177 177 93
Width: 579
GlyphClass: 1
Flags: W
HStem: 0 79<53 526> 270 79<53 250 329 526> 476 20G<250 329>
VStem: 250 79<124 270 349 496>
LayerCount: 2
Fore
SplineSet
53 0 m 1
 53 79 l 1
 526 79 l 1
 526 0 l 1
 53 0 l 1
250 124 m 1
 250 270 l 1
 53 270 l 1
 53 349 l 1
 250 349 l 1
 250 496 l 1
 329 496 l 1
 329 349 l 1
 526 349 l 1
 526 270 l 1
 329 270 l 1
 329 124 l 1
 250 124 l 1
EndSplineSet
EndChar

StartChar: uni00B2
Encoding: 178 178 94
Width: 382
GlyphClass: 1
Flags: W
HStem: 403 58<134 329> 677 21G<65 131.531> 736 50<143.684 241.408>
VStem: 65 64<693.031 720.256> 250 70<622.1 725.728>
LayerCount: 2
Fore
SplineSet
320 686 m 0
 320 618.080619999 262.152211051 548.103455948 134 461 c 1
 329 461 l 1
 329 403 l 1
 53 403 l 1
 53 458 l 1
 204.445223263 578.353819811 250 630.152144629 250 682 c 0
 250 716.052650309 228.944464215 736 193 736 c 0
 157.430982247 736 134.061678841 714.456423422 129 677 c 1
 65 695 l 1
 79.945898355 752.790806974 127.752538866 786 196 786 c 0
 271.320296502 786 320 746.742174599 320 686 c 0
EndSplineSet
EndChar

StartChar: uni00B3
Encoding: 179 179 95
Width: 383
GlyphClass: 1
Flags: W
HStem: 397 51<135.239 245.476> 484 20G<53 121.571> 572 54<151 238.466> 736 50<135.736 241.318>
VStem: 58 61<698.934 717.945> 252 69<639.689 724.544> 261 69<464.094 556.131>
LayerCount: 2
Fore
SplineSet
330 511 m 0xfa
 330 442.220127343 273.27650693 397 187 397 c 0
 121.842609776 397 71.9542657609 430.134795652 53 486 c 1
 115 504 l 1
 128.142045286 466.595717263 152.382891004 448 188 448 c 0
 231.040991763 448 261 473.034239759 261 509 c 0xfa
 261 551.123620376 232.833456063 572 176 572 c 2
 151 572 l 1
 151 626 l 1
 172 626 l 2
 223.964917979 626 252 645.97499594 252 683 c 0
 252 715.742390024 228.302418519 736 190 736 c 0
 153.554459515 736 130.171267141 718.544940904 119 683 c 1
 58 701 l 1
 76.0790281287 755.237084385 125.299693112 786 194 786 c 0
 270.351832863 786 321 745.72074897 321 685 c 0xfc
 321 650.659628899 300.677534851 618.83388159 268 602 c 1
 306.888389427 587.042927143 330 553.121047109 330 511 c 0xfa
EndSplineSet
EndChar

StartChar: acute
Encoding: 180 180 96
Width: 268
GlyphClass: 1
Flags: W
HStem: 571 136
VStem: 53 162
LayerCount: 2
Fore
SplineSet
177 707 m 0
 199 707 215 691 215 669 c 0
 215 651.319925713 201.082426622 635.877138814 142 588 c 0
 134.551632211 581.9058809 128.416994756 576.416994756 123 571 c 1
 53 571 l 1
 118.31794613 656.809850798 141.457840644 686.457840644 149 694 c 0
 155.891747488 702.860818199 164.80690829 707 177 707 c 0
EndSplineSet
EndChar

StartChar: uni03BC
Encoding: 956 956 97
Width: 538
GlyphClass: 1
Flags: W
HStem: -162 21G<70 154> -12 74<188.114 330.569> 0 21G<399.167 468> 477 20G<70 154 384 468>
VStem: 70 84<-162 41 96.9569 497> 384 84<120.799 497> 405 63<0 24>
LayerCount: 2
Fore
SplineSet
254 -12 m 0xdc
 214.981129828 -12 180.986951772 6.01691436969 154 41 c 1
 154 -162 l 1
 70 -162 l 1
 70 497 l 1
 154 497 l 1
 154 191 l 2
 154 101.345797965 185.72064332 62 258 62 c 0
 338.944453466 62 384 119.928559829 384 224 c 2
 384 497 l 1
 468 497 l 1xdc
 468 0 l 1
 405 0 l 1xba
 384 72 l 1
 347.311548927 8.53889544128 315.525163125 -12 254 -12 c 0xdc
EndSplineSet
EndChar

StartChar: paragraph
Encoding: 182 182 98
Width: 508
GlyphClass: 1
Flags: W
HStem: -161 21G<187 268 362 443> 601 67<268 362 443 483>
VStem: 38 230<393.336 565.315> 187 81<-161 299.493> 362 81<-161 601>
LayerCount: 2
Fore
SplineSet
38 479 m 0xe8
 38 584 122 668 227 668 c 2
 483 668 l 1
 483 601 l 1
 443 601 l 1
 443 -161 l 1
 362 -161 l 1
 362 601 l 1
 268 601 l 1
 268 -161 l 1
 187 -161 l 1
 187 294 l 1xd8
 100.009838432 312.997851377 38 389.989932651 38 479 c 0xe8
EndSplineSet
EndChar

StartChar: periodcentered
Encoding: 183 183 99
Width: 235
GlyphClass: 1
Flags: W
HStem: 183 129<69.7473 165.07>
VStem: 53 129<199.93 295.253>
LayerCount: 2
Fore
SplineSet
182 248 m 0
 182 212 153 183 117 183 c 0
 81.7766548884 183 53 212.226290121 53 248 c 0
 53 283 82 312 117 312 c 0
 152.773709879 312 182 283.223345111 182 248 c 0
EndSplineSet
EndChar

StartChar: cedilla
Encoding: 184 184 100
Width: 291
GlyphClass: 1
Flags: W
HStem: -181 41<81.4005 191.543> -81 40<140.068 195.055>
VStem: 196 62<-134.092 -82.6367>
DStem2: 104 -57 159 -45 0.528136 0.84916<39.2374 96.566>
LayerCount: 2
Fore
SplineSet
258 -102 m 0
 258 -147.804294696 217.240716272 -181 161 -181 c 0
 135.699059412 -181 108.579447704 -174.836451885 73 -161 c 1
 87 -126 l 1
 111.400188503 -135.547899849 129.844603415 -140 145 -140 c 0
 175 -140 196 -126 196 -106 c 0
 196 -90.3592135466 182.522732493 -81 160 -81 c 0
 146 -81 134 -87 120 -87 c 0
 109.455497178 -87 100.659556625 -78.0854225782 100.659556625 -67.3986988317 c 0
 100.659556625 -63.640889182 101.806260223 -60.071235688 104 -57 c 2
 155 25 l 1
 189 4 l 1
 159 -45 l 1
 169.296120855 -42.1919670395 178.235873651 -41 189 -41 c 0
 230.427170097 -41 258 -65.3759800591 258 -102 c 0
EndSplineSet
EndChar

StartChar: uni00B9
Encoding: 185 185 101
Width: 256
GlyphClass: 1
Flags: W
HStem: 683 47<53 127.901>
VStem: 136 67<403 683> 147 56<749.037 779>
LayerCount: 2
Fore
SplineSet
53 730 m 1xc0
 104.153176962 730 135.035772453 746.098374245 147 779 c 1
 203 779 l 1xa0
 203 403 l 1
 136 403 l 1
 136 683 l 1
 53 683 l 1
 53 730 l 1xc0
EndSplineSet
EndChar

StartChar: ordmasculine
Encoding: 186 186 102
Width: 381
GlyphClass: 1
Flags: W
HStem: 398 54<147.681 240.895> 638 54<147.681 240.895>
VStem: 57 69<473.893 616.107> 263 69<474.51 615.49>
LayerCount: 2
Fore
SplineSet
126 545 m 0
 126 487.77922284 152.161152184 452 194 452 c 0
 236.145271206 452 263 488.195504027 263 545 c 0
 263 601.804495973 236.145271206 638 194 638 c 0
 152.161152184 638 126 602.22077716 126 545 c 0
332 545 m 0
 332 456.293268489 277.275707133 398 194 398 c 0
 111.993197158 398 57 457.007299141 57 545 c 0
 57 632.992700859 111.993197158 692 194 692 c 0
 277.275707133 692 332 633.706731511 332 545 c 0
EndSplineSet
EndChar

StartChar: guillemotright
Encoding: 187 187 103
Width: 562
GlyphClass: 1
Flags: W
VStem: 53 100<40 140 361 461> 262 99<40 139 362 461>
DStem2: 153 461 53 461 0.578664 -0.815566<0 199.623> 53 40 153 40 0.576835 0.816861<57.6835 258.306> 361 461 262 461 0.578664 -0.815566<0 200.202> 262 40 361 40 0.576835 0.816861<57.1067 258.306>
LayerCount: 2
Fore
SplineSet
53 40 m 1
 202 251 l 1
 53 461 l 1
 153 461 l 1
 300 251 l 1
 153 40 l 1
 53 40 l 1
262 40 m 1
 411 251 l 1
 262 461 l 1
 361 461 l 1
 509 251 l 1
 361 40 l 1
 262 40 l 1
EndSplineSet
EndChar

StartChar: onequarter
Encoding: 188 188 104
Width: 826
GlyphClass: 1
Flags: W
HStem: 0 21G<115 217.982 640 708> 86 57<528 640 708 773> 571 48<53 127.901> 648 20G<141.018 204 568.988 671>
VStem: 115 89<0 89> 136 68<292 571> 147 57<638.037 668> 583 88<580 668> 640 68<0 86 143 289>
DStem2: 115 0 204 0 0.573791 0.819001<51.0674 815.627> 455 140 528 143 0.618997 0.785394<47.5429 231.538>
LayerCount: 2
Fore
SplineSet
528 143 m 1xf080
 640 143 l 1
 640 289 l 1
 528 143 l 1xf080
640 0 m 1
 640 86 l 1
 455 86 l 1
 455 140 l 1
 641 376 l 1
 708 376 l 1
 708 143 l 1
 773 143 l 1
 773 86 l 1
 708 86 l 1
 708 0 l 1
 640 0 l 1
53 619 m 1
 104.153176962 619 135.035772453 635.098374245 147 668 c 1
 204 668 l 1xf2
 204 292 l 1
 136 292 l 1
 136 571 l 1xf4
 53 571 l 1
 53 619 l 1
115 0 m 1xf9
 583 668 l 1
 671 668 l 1
 204 0 l 1
 115 0 l 1xf9
EndSplineSet
Ligature2: "'frac' Diagonal Fractions lookup 10 subtable" one slash four
EndChar

StartChar: onehalf
Encoding: 189 189 105
Width: 812
GlyphClass: 1
Flags: W
HStem: 0 58<565 759> 332 50<574.736 672.359> 571 48<53 127.901> 648 20G<141.018 203 568.988 671>
VStem: 115 88<0 88> 136 67<292 571> 147 56<638.037 668> 495 64<289.922 314.399> 583 88<580 668> 681 70<217.484 321.993>
DStem2: 115 0 203 0 0.573791 0.819001<50.4936 815.627>
LayerCount: 2
Fore
SplineSet
751 283 m 0xf1c0
 751 214.080620365 693.149999246 144.100780743 565 58 c 1
 759 58 l 1
 759 0 l 1
 484 0 l 1
 484 54 l 1
 637.839445835 177.870722621 681 226.946682686 681 278 c 0
 681 312.052650309 659.944464215 332 624 332 c 0
 589.11855144 332 565.020493803 310.126378453 559 273 c 1
 495 292 l 1
 510.096963779 348.36199811 559.432699885 382 627 382 c 0
 702.07577417 382 751 342.939529378 751 283 c 0xf1c0
53 619 m 1
 104.153176962 619 135.035772453 635.098374245 147 668 c 1
 203 668 l 1xf3c0
 203 292 l 1
 136 292 l 1
 136 571 l 1xf5c0
 53 571 l 1
 53 619 l 1
115 0 m 1xf9c0
 583 668 l 1
 671 668 l 1
 203 0 l 1
 115 0 l 1xf9c0
EndSplineSet
LCarets2: 2 0 0
Ligature2: "'frac' Diagonal Fractions lookup 10 subtable" one slash two
EndChar

StartChar: threequarters
Encoding: 190 190 106
Width: 868
GlyphClass: 1
Flags: W
HStem: 0 21G<157 259.042 682 751> 86 57<570 682 751 815> 291 51<135.101 245.476> 466 53<151 239.229> 629 51<135.986 240.698> 648 20G<611.958 714>
VStem: 58 61<591.934 610.979> 157 88<0 88> 252 69<532.916 617.526> 261 69<358.094 450.465> 626 88<580 668> 682 69<0 86 143 289>
DStem2: 157 0 245 0 0.574613 0.818425<50.5659 816.202> 497 140 570 143 0.618997 0.785394<47.5429 231.538>
LayerCount: 2
Fore
SplineSet
570 143 m 1xf310
 682 143 l 1
 682 289 l 1
 570 143 l 1xf310
682 0 m 1
 682 86 l 1
 497 86 l 1
 497 140 l 1
 683 376 l 1
 751 376 l 1
 751 143 l 1
 815 143 l 1
 815 86 l 1
 751 86 l 1
 751 0 l 1
 682 0 l 1
157 0 m 1
 626 668 l 1
 714 668 l 1xf720
 245 0 l 1
 157 0 l 1
330 405 m 0xfb40
 330 336.220127343 273.27650693 291 187 291 c 0
 121.842609776 291 71.9542657609 324.134795652 53 380 c 1
 115 398 l 1
 127.904870816 360.278069923 151.731640537 342 188 342 c 0
 231.040991763 342 261 367.034239759 261 403 c 0xfb40
 261 446.807917282 233.278102741 466 170 466 c 2
 151 466 l 1
 151 519 l 1
 169 519 l 2
 224.16679198 519 252 538.114371773 252 576 c 0
 252 607.814748009 227.217252388 629 190 629 c 0
 154.056581751 629 130.017356908 611.055226526 119 576 c 1
 58 594 l 1
 76.0808283911 648.242485173 126.302014629 680 194 680 c 0
 269.975491883 680 321 639.019686394 321 578 c 0xfb80
 321 543.160209367 301.152771391 512.078700414 268 495 c 1
 306.719991862 481.100515742 330 447.306955541 330 405 c 0xfb40
EndSplineSet
LCarets2: 2 0 0
Ligature2: "'frac' Diagonal Fractions lookup 10 subtable" three slash four
EndChar

StartChar: less
Encoding: 60 60 107
Width: 553
GlyphClass: 1
Flags: W
HStem: 0 21G<468.587 513> 476 20G<468.587 513>
VStem: 40 105<160.5 335.5>
DStem2: 145 248 40 213 0.911813 -0.410605<0 400.423>
LayerCount: 2
Fore
SplineSet
513 0 m 1
 40 213 l 1
 40 283 l 1
 513 496 l 1
 513 406 l 1
 145 248 l 1
 513 90 l 1
 513 0 l 1
EndSplineSet
EndChar

StartChar: equal
Encoding: 61 61 108
Width: 602
GlyphClass: 1
Flags: W
HStem: 121 79<53 549> 307 79<53 549>
LayerCount: 2
Fore
SplineSet
53 121 m 1
 53 200 l 1
 549 200 l 1
 549 121 l 1
 53 121 l 1
53 307 m 1
 53 386 l 1
 549 386 l 1
 549 307 l 1
 53 307 l 1
EndSplineSet
EndChar

StartChar: greater
Encoding: 62 62 109
Width: 553
GlyphClass: 1
Flags: W
HStem: 0 21G<40 84.4131> 476 20G<40 84.4131>
VStem: 408 105<160.5 335.5>
DStem2: 40 90 40 0 0.911813 0.410605<0 400.423>
LayerCount: 2
Fore
SplineSet
40 0 m 1
 40 90 l 1
 408 248 l 1
 40 406 l 1
 40 496 l 1
 513 283 l 1
 513 213 l 1
 40 0 l 1
EndSplineSet
EndChar

StartChar: question
Encoding: 63 63 110
Width: 520
GlyphClass: 1
Flags: W
HStem: -12 129<178.93 274.253> 501 21G<50.6957 128.469> 610 70<176.048 338.037>
VStem: 40 82<522.037 553.961> 162 129<4.74728 100.07> 182 86<190 285.722> 382 88<444.323 568.529>
LayerCount: 2
Fore
SplineSet
291 52 m 0xfa
 291 17 262 -12 227 -12 c 0
 191.226290121 -12 162 16.7766548884 162 52 c 0
 162 88 191 117 227 117 c 0
 262.223345111 117 291 87.7737098785 291 52 c 0xfa
261 680 m 0
 385.94512709 680 470 614.043066233 470 516 c 0
 470 444.331608138 429.391400084 383.256273865 345 328 c 0
 281.31041068 287.198856842 268 269.2211593 268 224 c 2
 268 190 l 1
 182 190 l 1
 182 227 l 2xf6
 182 295.457102873 207.587860775 331.369889926 296 387 c 0
 355.649632792 425.418407561 382 462.492761423 382 508 c 0
 382 570.008000225 332.990196355 610 257 610 c 0
 183.650987013 610 134.938572315 570.66923554 122 501 c 1
 40 524 l 1
 60.0363781202 619.172796071 146.208250353 680 261 680 c 0
EndSplineSet
EndChar

StartChar: at
Encoding: 64 64 111
Width: 780
GlyphClass: 1
Flags: W
HStem: -12 61<288.485 503.425> 155 74<321.07 419.191 536.855 628.448> 445 74<338.671 450.402> 618 62<292.457 502.149>
VStem: 50 62<226.276 438.21> 218 84<248.323 404.847> 451 81<262.124 444.121> 668 62<273.954 461.409>
LayerCount: 2
Fore
SplineSet
451 441 m 1
 439.440093297 443.667670777 424.451389541 445 406 445 c 0
 335.939380625 445 302 401.923093822 302 313 c 0
 302 261.798333662 328.160575659 229 369 229 c 0
 416.197414255 229 451 275.261973734 451 338 c 2
 451 441 l 1
532 16 m 1
 489.112058766 -2.38054624313 443.076101501 -12 398 -12 c 0
 204.721825098 -12 50 142.277222152 50 335 c 0
 50 525.224038633 205.224587342 680 396 680 c 0
 580.009554234 680 730 538.991018053 730 366 c 0
 730 236.83866526 669.881549217 155 575 155 c 0
 528.103400819 155 486.028753052 178.924799711 473 213 c 1
 442 176 400 155 357 155 c 0
 275.993864935 155 218 223.007194133 218 318 c 0
 218 446.923087757 287.925362624 519 413 519 c 0
 449.675702566 519 490.632632592 512.116482349 532 499 c 1
 532 273 l 2
 532 245.685234402 548.306024529 229 575 229 c 0
 629.992700933 229 668 284.989247012 668 366 c 0
 668 504.022059488 544.976191194 618 396 618 c 0
 238.722521174 618 112 491.723684887 112 335 c 0
 112 174.940136496 237.059436241 49 396 49 c 0
 443.833479276 49 488.849518695 60.9160104344 532 85 c 1
 532 16 l 1
EndSplineSet
EndChar

StartChar: colon
Encoding: 58 58 112
Width: 205
GlyphClass: 1
Flags: W
HStem: -12 129<54.7473 150.07> 375 129<54.7473 150.07>
VStem: 38 129<4.74728 100.07 391.93 487.253>
LayerCount: 2
Fore
SplineSet
167 52 m 0
 167 16.7766548884 137.773709879 -12 102 -12 c 0
 67 -12 38 17 38 52 c 0
 38 87.7737098788 66.7766548885 117 102 117 c 0
 138 117 167 88 167 52 c 0
167 440 m 0
 167 404 138 375 102 375 c 0
 66.7766548884 375 38 404.226290121 38 440 c 0
 38 475 67 504 102 504 c 0
 137.773709879 504 167 475.223345111 167 440 c 0
EndSplineSet
EndChar

StartChar: semicolon
Encoding: 59 59 113
Width: 205
GlyphClass: 1
Flags: W
HStem: 375 129<54.7473 150.07>
VStem: 38 129<5.35938 100.253 391.93 487.253>
DStem2: 45 -133 100 -133 0.359367 0.933196<19.7652 130.74>
LayerCount: 2
Fore
SplineSet
102 117 m 0
 138.281672017 117 167 88.7234924474 167 53 c 0
 167 45.4921032933 165.217670017 36.5804533774 162 28 c 2
 100 -133 l 1
 45 -133 l 1
 92 -11 l 1
 60.8732913121 -5.97956311485 38 21.1295228847 38 53 c 0
 38 88 67 117 102 117 c 0
167 440 m 0
 167 404 138 375 102 375 c 0
 66.7766548884 375 38 404.226290121 38 440 c 0
 38 475 67 504 102 504 c 0
 137.773709879 504 167 475.223345111 167 440 c 0
EndSplineSet
EndChar

StartChar: bracketleft
Encoding: 91 91 114
Width: 315
GlyphClass: 1
Flags: W
HStem: -161 74<157 282> 594 74<157 282>
VStem: 76 206<-161 -87 594 668> 76 81<-87 594>
LayerCount: 2
Fore
SplineSet
76 -161 m 1xe0
 76 668 l 1
 282 668 l 1
 282 594 l 1xe0
 157 594 l 1
 157 -87 l 1xd0
 282 -87 l 1
 282 -161 l 1
 76 -161 l 1xe0
EndSplineSet
EndChar

StartChar: backslash
Encoding: 92 92 115
Width: 377
GlyphClass: 1
Flags: W
HStem: 0 21G<267.216 362> 648 20G<15 109.784>
DStem2: 102 668 15 668 0.362716 -0.9319<0 685.259>
LayerCount: 2
Fore
SplineSet
275 0 m 1
 15 668 l 1
 102 668 l 1
 362 0 l 1
 275 0 l 1
EndSplineSet
EndChar

StartChar: bracketright
Encoding: 93 93 116
Width: 315
GlyphClass: 1
Flags: W
HStem: -161 74<33 158> 594 74<33 158>
VStem: 33 206<-161 -87 594 668> 158 81<-87 594>
LayerCount: 2
Fore
SplineSet
33 -161 m 1xe0
 33 -87 l 1xe0
 158 -87 l 1
 158 594 l 1xd0
 33 594 l 1
 33 668 l 1
 239 668 l 1
 239 -161 l 1
 33 -161 l 1xe0
EndSplineSet
EndChar

StartChar: asciicircum
Encoding: 94 94 117
Width: 552
GlyphClass: 1
Flags: W
HStem: 569 99<188.5 363.5>
DStem2: 53 311 142 311 0.460099 0.887867<40.9488 331.672> 314 668 276 569 0.460099 -0.887867<70.4151 361.138>
LayerCount: 2
Fore
SplineSet
53 311 m 1
 238 668 l 1
 314 668 l 1
 499 311 l 1
 410 311 l 1
 276 569 l 1
 142 311 l 1
 53 311 l 1
EndSplineSet
EndChar

StartChar: underscore
Encoding: 95 95 118
Width: 396
GlyphClass: 1
Flags: W
HStem: -79 79<10 386>
LayerCount: 2
Fore
SplineSet
10 -79 m 1
 10 0 l 1
 386 0 l 1
 386 -79 l 1
 10 -79 l 1
EndSplineSet
EndChar

StartChar: grave
Encoding: 96 96 119
Width: 268
GlyphClass: 1
Flags: W
HStem: 571 136
VStem: 53 162
LayerCount: 2
Fore
SplineSet
53 669 m 0
 53 691 69 707 91 707 c 0
 103.833885216 707 113.894388285 702.132014644 122 692 c 2
 215 571 l 1
 145 571 l 1
 55.5593512618 646.371333207 53 649.097598681 53 669 c 0
EndSplineSet
EndChar

StartChar: exclam
Encoding: 33 33 120
Width: 281
GlyphClass: 1
Flags: W
HStem: -12 129<92.7473 188.07> 648 20G<96 185>
VStem: 76 129<4.74728 100.07> 96 89<378.944 668>
LayerCount: 2
Fore
SplineSet
205 52 m 0xe0
 205 16.7766548884 175.773709879 -12 140 -12 c 0
 105 -12 76 17 76 52 c 0
 76 87.7737098785 104.776654889 117 140 117 c 0
 176 117 205 88 205 52 c 0xe0
114 195 m 1
 96 496 l 1
 96 668 l 1
 185 668 l 1
 185 496 l 1xd0
 167 195 l 1
 114 195 l 1
EndSplineSet
EndChar

StartChar: quotedbl
Encoding: 34 34 121
Width: 301
GlyphClass: 1
Flags: W
HStem: 447 221<54 106 195 247>
VStem: 54 52<447 557.5> 195 52<447 557.5>
LayerCount: 2
Fore
SplineSet
54 447 m 1
 40 668 l 1
 120 668 l 1
 106 447 l 1
 54 447 l 1
195 447 m 1
 181 668 l 1
 261 668 l 1
 247 447 l 1
 195 447 l 1
EndSplineSet
EndChar

StartChar: numbersign
Encoding: 35 35 122
Width: 655
GlyphClass: 1
Flags: W
HStem: 0 21G<137 221.791 342 426.791> 172 81<49 162 255 366 460 572> 415 81<83 196 289 400 494 606> 648 20G<228.209 313 433.209 518>
VStem: 137 82<0 82> 231 82<586 668> 342 82<0 82> 436 82<586 668>
DStem2: 137 0 219 0 0.139346 0.990244<11.4263 173.806 266.974 419.173 512.341 674.581> 342 0 424 0 0.139346 0.990244<11.4263 173.666 266.974 419.033 512.341 674.581>
LayerCount: 2
Fore
SplineSet
255 253 m 1
 378 253 l 1
 400 415 l 1
 277 415 l 1
 255 253 l 1
137 0 m 1
 162 172 l 1
 38 172 l 1
 49 253 l 1
 173 253 l 1
 196 415 l 1
 72 415 l 1
 83 496 l 1
 207 496 l 1
 231 668 l 1
 313 668 l 1
 289 496 l 1
 412 496 l 1
 436 668 l 1
 518 668 l 1
 494 496 l 1
 617 496 l 1
 606 415 l 1
 482 415 l 1
 460 253 l 1
 583 253 l 1
 572 172 l 1
 448 172 l 1
 424 0 l 1
 342 0 l 1
 366 172 l 1
 243 172 l 1
 219 0 l 1
 137 0 l 1
EndSplineSet
EndChar

StartChar: dollar
Encoding: 36 36 123
Width: 594
GlyphClass: 1
Flags: W
HStem: -11 80<198.066 267 317 402.081> 600 79<192.28 267 317 381.979>
VStem: 47 96<444.283 555.883> 267 50<-87 -12 69 297 398 599 677.246 742> 457 97<118.24 240.828>
DStem2: 252 401 231 315 0.978791 -0.204863<-89.401 15.2964 84.9272 196.382>
LayerCount: 2
Fore
SplineSet
317 68 m 1
 403.59639724 72.9768044391 457 115.699686647 457 180 c 0
 457 240.368464446 415.40137801 275.133027109 317 297 c 1
 317 68 l 1
267 600 m 1
 191.764423897 593.981153912 143 555.834790057 143 503 c 0
 143 450.779593703 181.2978089 414.941277118 252 401 c 2
 267 398 l 1
 267 600 l 1
554 188 m 0
 554 74.662231016 459.575640423 -5.0207728464 317 -12 c 1
 317 -87 l 1
 267 -87 l 1
 267 -11 l 1
 153.721858144 0.0270757558422 73.9168190185 55.2226314506 40 146 c 1
 127 172 l 1
 150.317318029 112.186010274 196.946884003 77.8799724502 267 69 c 1
 267 308 l 1
 231 315 l 2
 113.224182401 337.95630343 47 403.820571797 47 498 c 0
 47 596.800087007 134.732135041 668.9797072 267 679 c 1
 267 742 l 1
 317 742 l 1
 317 679 l 1
 415.513048929 671.963353648 489.17572138 627.622715862 523 555 c 1
 437 530 l 1
 413.872185288 568.211172133 370.703977978 593.032891336 317 599 c 1
 317 386 l 1
 329 383 l 1
 498.444504004 337.881640946 554 289.733544416 554 188 c 0
EndSplineSet
EndChar

StartChar: percent
Encoding: 37 37 124
Width: 927
GlyphClass: 1
Flags: W
HStem: -12 74<644.229 771.206> 0 21G<186 288.012> 277 75<644.169 771.158> 317 74<156.322 283.114> 606 74<156.014 283.414> 648 20G<639.988 742>
VStem: 38 74<434.794 561.986> 186 88<0 88> 327 74<434.886 561.887> 526 74<106.229 233.531> 654 88<580 668> 815 74<106.322 233.331>
DStem2: 186 0 274 0 0.573791 0.819001<50.4936 815.627>
LayerCount: 2
Fore
SplineSet
600 170 m 0xa3f0
 600 110 648 62 708 62 c 0
 767.22238175 62 815 110.224138047 815 170 c 0
 815 229 767 277 708 277 c 0
 647.719373761 277 600 229.722472292 600 170 c 0xa3f0
889 170 m 0
 889 69.2236618021 808.222622054 -12 708 -12 c 0
 607 -12 526 69 526 170 c 0
 526 271 607 352 708 352 c 0
 808.222622054 352 889 270.776338198 889 170 c 0
112 498 m 0
 112 438.77761825 160.224138047 391 220 391 c 0
 279 391 327 439 327 498 c 0
 327 558.280626239 279.722472292 606 220 606 c 0x1bf0
 159 606 112 559 112 498 c 0
186 0 m 1x47f0
 654 668 l 1
 742 668 l 1
 274 0 l 1
 186 0 l 1x47f0
401 498 m 0
 401 398 320 317 220 317 c 0
 119.223661802 317 38 397.777377946 38 498 c 0
 38 599 119 680 220 680 c 0x1bf0
 320.722674808 680 401 599.279153675 401 498 c 0
EndSplineSet
EndChar

StartChar: ampersand
Encoding: 38 38 125
Width: 705
GlyphClass: 1
Flags: W
HStem: -12 74<186.898 361.558> 0 21G<557.149 695> 606 74<246.413 387.033>
VStem: 38 90<118.025 260.894> 135 90<477.495 583.729> 409 82<472.35 583.88> 521 87<252.495 361> 576 119<0 119>
DStem2: 300 415 209 387 0.688109 -0.725608<-128.281 -42.3009 72.8251 270.895 371.492 491.045>
LayerCount: 2
Fore
SplineSet
128 187 m 0xbc
 128 115.351504786 185.619625168 62 263 62 c 0
 332.907437282 62 393.938972358 89.9296855433 440 143 c 1
 259 334 l 1
 170.561381339 303.19553732 128 255.435819329 128 187 c 0xbc
319 606 m 0
 261.514134843 606 225 580.362415961 225 540 c 0
 225 479.928764511 292.713895098 427.14350817 300 415 c 1
 371.315777895 441.115636976 409 481.219946739 409 531 c 0
 409 579.166803055 376.800163666 606 319 606 c 0
494 87 m 1
 432.887817233 21.8804609858 353.833408266 -12 263 -12 c 0
 130.15380884 -12 38 67.866634328 38 183 c 0
 38 278.807112473 96.773833756 348.923265024 209 387 c 1
 158.036599469 443.959094711 135 490.966209844 135 538 c 0
 135 623.021979236 208.028167458 680 317 680 c 0
 424.77094264 680 491 625.189745633 491 536 c 0
 491 460.039280658 444.048129253 402.020183235 351 363 c 1
 487 219 l 1
 505.435016447 262.661881062 516.871517743 310.426092356 521 361 c 1
 608 361 l 1xbe
 601.896247944 284.703099295 580.419719201 214.038391818 546 157 c 1
 695 0 l 1
 576 0 l 1x7d
 494 87 l 1
EndSplineSet
EndChar

StartChar: quotesingle
Encoding: 39 39 126
Width: 160
GlyphClass: 1
Flags: W
HStem: 447 221<54 106>
VStem: 54 52<447 557.5>
LayerCount: 2
Fore
SplineSet
54 447 m 1
 40 668 l 1
 120 668 l 1
 106 447 l 1
 54 447 l 1
EndSplineSet
EndChar

StartChar: parenleft
Encoding: 40 40 127
Width: 300
GlyphClass: 1
Flags: W
HStem: -161 21G<143.841 265> 648 20G<124.08 235>
VStem: 50 74<104.962 456.882> 189 76<-161 -85>
LayerCount: 2
Fore
SplineSet
265 -161 m 1
 189 -161 l 1
 98.6819576872 -32.5476731551 50 121.553487869 50 279 c 0
 50 418.309257175 88.1593100125 553.254453492 160 668 c 1
 235 668 l 1
 163.194758761 565.278613228 124 430.392146141 124 286 c 0
 124 122.83940319 174.533448092 -37.3623790596 265 -161 c 1
EndSplineSet
EndChar

StartChar: parenright
Encoding: 41 41 128
Width: 300
GlyphClass: 1
Flags: W
HStem: -161 21G<35 156.731> 648 20G<66 176.572>
VStem: 35 77<-161 -84> 177 73<106.103 459.523>
LayerCount: 2
Fore
SplineSet
112 -161 m 1
 35 -161 l 1
 125.895403918 -38.141377123 177 123.809807645 177 289 c 0
 177 433.419209312 137.791896549 567.291922896 66 668 c 1
 141 668 l 1
 212.144893095 555.771436244 250 421.715736563 250 282 c 0
 250 123.042098031 201.462440749 -32.7705015944 112 -161 c 1
EndSplineSet
EndChar

StartChar: asterisk
Encoding: 42 42 129
Width: 433
GlyphClass: 1
Flags: W
HStem: 388 280
VStem: 187 57<562 668>
DStem2: 86 595 68 540 0.950549 -0.310575<0 105.916> 107 422 153 388 0.584802 0.811176<0 105.34> 261 508 215 474 0.590957 -0.806703<0.243887 106.607> 244 562 261 508 0.954146 0.29934<0.0561263 106.247>
LayerCount: 2
Fore
SplineSet
153 388 m 1
 107 422 l 1
 169 508 l 1
 68 540 l 1
 86 595 l 1
 187 562 l 1
 187 668 l 1
 244 668 l 1
 244 562 l 1
 345 595 l 1
 363 540 l 1
 261 508 l 1
 324 422 l 1
 278 388 l 1
 215 474 l 1
 153 388 l 1
EndSplineSet
EndChar

StartChar: plus
Encoding: 43 43 130
Width: 602
GlyphClass: 1
Flags: W
HStem: 0 21G<261 341> 208 80<53 261 341 549> 476 20G<261 341>
VStem: 261 80<0 208 288 496>
LayerCount: 2
Fore
SplineSet
261 0 m 1
 261 208 l 1
 53 208 l 1
 53 288 l 1
 261 288 l 1
 261 496 l 1
 341 496 l 1
 341 288 l 1
 549 288 l 1
 549 208 l 1
 341 208 l 1
 341 0 l 1
 261 0 l 1
EndSplineSet
EndChar

StartChar: comma
Encoding: 44 44 131
Width: 205
GlyphClass: 1
Flags: W
HStem: -133 250<92.3334 100>
VStem: 38 129<5.35938 100.253>
DStem2: 45 -133 100 -133 0.359367 0.933196<19.7652 130.74>
LayerCount: 2
Fore
SplineSet
102 117 m 0
 138.281672017 117 167 88.7234924474 167 53 c 0
 167 45.4921032933 165.217670017 36.5804533774 162 28 c 2
 100 -133 l 1
 45 -133 l 1
 92 -11 l 1
 60.8732913121 -5.97956311485 38 21.1295228847 38 53 c 0
 38 88 67 117 102 117 c 0
EndSplineSet
EndChar

StartChar: hyphen
Encoding: 45 45 132
Width: 368
GlyphClass: 1
Flags: W
HStem: 208 81<38 330>
VStem: 38 292<208 289>
LayerCount: 2
Fore
SplineSet
38 208 m 1
 38 289 l 1
 330 289 l 1
 330 208 l 1
 38 208 l 1
EndSplineSet
EndChar

StartChar: period
Encoding: 46 46 133
Width: 205
GlyphClass: 1
Flags: W
HStem: -12 129<54.7473 150.07>
VStem: 38 129<4.74728 100.07>
LayerCount: 2
Fore
SplineSet
167 52 m 0
 167 16.7766548884 137.773709879 -12 102 -12 c 0
 67 -12 38 17 38 52 c 0
 38 87.7737098788 66.7766548885 117 102 117 c 0
 138 117 167 88 167 52 c 0
EndSplineSet
EndChar

StartChar: slash
Encoding: 47 47 134
Width: 377
GlyphClass: 1
Flags: W
HStem: 0 21G<15 109.784> 648 20G<267.216 362>
DStem2: 15 0 102 0 0.362716 0.9319<31.5563 716.815>
LayerCount: 2
Fore
SplineSet
15 0 m 1
 275 668 l 1
 362 668 l 1
 102 0 l 1
 15 0 l 1
EndSplineSet
EndChar

StartChar: braceleft
Encoding: 123 123 135
Width: 319
GlyphClass: 1
Flags: W
HStem: -161 71<197.766 285> 220 67<38 93.8847> 597 71<197.599 285>
VStem: 108 84<-84.8513 206.443 301.302 592.055>
CounterMasks: 1 e0
LayerCount: 2
Fore
SplineSet
192 -26 m 2
 192 -78.8530850698 200.882697835 -90 243 -90 c 2
 285 -90 l 1
 285 -161 l 1
 242 -161 l 2
 135.793986655 -161 108 -132.791177724 108 -25 c 2
 108 125 l 2
 108 196.964291117 91.0263197705 220 38 220 c 1
 38 287 l 1
 91.0263197705 287 108 310.035708883 108 382 c 2
 108 532 l 2
 108 640.298779625 135.293849487 668 242 668 c 2
 285 668 l 1
 285 597 l 1
 243 597 l 2
 201.280593892 597 192 585.353764527 192 533 c 2
 192 380 l 2
 192 306.341333678 169.261384635 270.074681324 113 254 c 1
 113 253 l 1
 169.257862994 237.930929555 192 201.658660407 192 127 c 2
 192 -26 l 2
EndSplineSet
EndChar

StartChar: bar
Encoding: 124 124 136
Width: 233
GlyphClass: 1
Flags: W
HStem: -161 21G<76 157> 648 20G<76 157>
VStem: 76 81<-161 668>
LayerCount: 2
Fore
SplineSet
76 -161 m 1
 76 668 l 1
 157 668 l 1
 157 -161 l 1
 76 -161 l 1
EndSplineSet
EndChar

StartChar: braceright
Encoding: 125 125 137
Width: 319
GlyphClass: 1
Flags: W
HStem: -161 71<34 121.234> 220 67<226.441 281> 597 71<34 121.401>
VStem: 127 84<-84.8513 204.211 301.607 592.055>
CounterMasks: 1 e0
LayerCount: 2
Fore
SplineSet
211 -25 m 2
 211 -132.791177724 183.206013345 -161 77 -161 c 2
 34 -161 l 1
 34 -90 l 1
 76 -90 l 2
 118.117302165 -90 127 -78.8530850698 127 -26 c 2
 127 127 l 2
 127 201.158320218 150.11916051 238.031917994 206 253 c 1
 206 254 l 1
 149.738615365 270.074681324 127 306.341333678 127 380 c 2
 127 533 l 2
 127 585.353764527 117.719406108 597 76 597 c 2
 34 597 l 1
 34 668 l 1
 77 668 l 2
 183.706150513 668 211 640.298779625 211 532 c 2
 211 382 l 2
 211 311.214093127 228.841963356 287 281 287 c 1
 281 220 l 1
 228.841963356 220 211 195.785906873 211 125 c 2
 211 -25 l 2
EndSplineSet
EndChar

StartChar: asciitilde
Encoding: 126 126 138
Width: 555
GlyphClass: 1
Flags: W
HStem: 195 73<291.395 427.656> 249 74<127.892 263.634>
LayerCount: 2
Fore
SplineSet
515 297 m 1x80
 500 234 448 195 379 195 c 0x80
 304 195 254 249 179 249 c 0
 144.019997307 249 121.003432956 231.018309101 115 199 c 1
 40 221 l 1
 54.8986092601 284.56739951 106.518866781 323 177 323 c 0x40
 254 323 301 268 378 268 c 0
 411.265181831 268 435.047283251 287.25217734 441 319 c 1
 515 297 l 1x80
EndSplineSet
EndChar

StartChar: exclamdown
Encoding: 161 161 139
Width: 281
GlyphClass: 1
Flags: W
HStem: -161 21G<96 185> 390 129<92.7473 188.07>
VStem: 76 129<406.747 502.07> 96 89<-161 127.667>
LayerCount: 2
Fore
SplineSet
96 -161 m 1xd0
 96 11 l 1
 114 311 l 1
 167 311 l 1
 185 11 l 1
 185 -161 l 1
 96 -161 l 1xd0
205 454 m 0xe0
 205 418.776654889 175.773709879 390 140 390 c 0
 105 390 76 419 76 454 c 0
 76 489.773709879 104.776654889 519 140 519 c 0
 176 519 205 490 205 454 c 0xe0
EndSplineSet
EndChar

StartChar: cent
Encoding: 162 162 140
Width: 500
GlyphClass: 1
Flags: W
HStem: -10 77<193.247 236 286 354.741> 425 76<193.315 236 286 354.997>
VStem: 38 91<142.834 352.662> 236 50<-87 -10 67 425 504 571>
LayerCount: 2
Fore
SplineSet
236 425 m 1
 168.533742481 407.141284774 129 341.744346278 129 248 c 0
 129 153.485335446 168.367358449 86.8919533977 236 67 c 1
 236 425 l 1
467 99 m 1
 431.874199809 35.773559657 363.722095445 -6.02137727345 286 -12 c 1
 286 -87 l 1
 236 -87 l 1
 236 -10 l 1
 115.023827247 5.99684928975 38 105.972221019 38 247 c 0
 38 382.969698438 115.973248815 482.995987322 236 501 c 1
 236 571 l 1
 286 571 l 1
 286 504 l 1
 363.938926698 502.001565982 429.972542404 461.053346187 465 393 c 1
 388 365 l 1
 366.857587452 403.257698896 332.686576887 425.033342884 286 430 c 1
 286 62 l 1
 330.736150718 67.0836534907 368.353475459 90.5944814538 390 127 c 1
 467 99 l 1
EndSplineSet
EndChar

StartChar: sterling
Encoding: 163 163 141
Width: 586
GlyphClass: 1
Flags: W
HStem: -12 78<328.408 522.973> 26 76<195.325 340.557> 318 51<70 156 272 453> 609 71<244.983 413.145>
VStem: 112 89<424.927 569.483> 202 88<160.653 315.266>
LayerCount: 2
Fore
SplineSet
235 26 m 0x7c
 194.153517422 26 149.995149557 13.4774777696 101 -12 c 1xbc
 73 55 l 1
 152.974178761 88.9890259738 202 153.976742499 202 226 c 0
 202 255 194 287 179 318 c 1
 70 318 l 1
 70 369 l 1
 156 369 l 1
 120.526743889 443.887985123 112 471.406113128 112 511 c 0
 112 615 197 680 333 680 c 0
 441.924472575 680 519.981953477 629.061080538 546 541 c 1
 463 516 l 1
 447.988934429 577.044999987 401.946246238 609 329 609 c 0
 249.079190105 609 201 571.062514058 201 508 c 0
 201 471.738834374 206.305735397 456.374308954 249 369 c 1
 453 369 l 1
 453 318 l 1
 272 318 l 1
 284.152382493 290.657139391 290 264.667728249 290 238 c 0
 290 177.937484144 256.934528049 126.961548219 194 90 c 1
 214.503164684 98.2012658736 233.496835316 102 254 102 c 0x7c
 327 102 349 66 422 66 c 0
 456.060027152 66 491.070308145 74.0298809617 531 91 c 1
 556 18 l 1
 510.20512846 -1.9108137132 468.166852265 -12 431 -12 c 0xbc
 347 -12 319 26 235 26 c 0x7c
EndSplineSet
EndChar

StartChar: currency
Encoding: 164 164 142
Width: 580
GlyphClass: 1
Flags: W
HStem: 103 75<215.471 364.308> 463 76<216.4 364.549>
VStem: 72 76<246.389 394.466> 432 76<246.256 395.549>
DStem2: 89 558 53 522 0.7063 -0.707913<0.0580521 96.6186 523.705 619.483> 53 119 89 84 0.7063 0.707913<0.649861 96.6897 524.021 620.075>
LayerCount: 2
Fore
SplineSet
148 321 m 0
 148 242.22522958 211.776102101 178 290 178 c 0
 368.72396207 178 432 241.721643831 432 321 c 0
 432 400 369 463 290 463 c 0
 212 463 148 399 148 321 c 0
290 103 m 0
 240.978258539 103 193.982714619 119.013296447 155 149 c 1
 89 84 l 1
 53 119 l 1
 119 185 l 1
 87.5855744435 226.54811122 72 271.646794716 72 321 c 0
 72 369.585947323 88.7410840437 417.672039789 119 456 c 1
 53 522 l 1
 89 558 l 1
 155 492 l 1
 193.983420104 522.986821106 239.978721181 539 290 539 c 0
 341.522554908 539 388.369696248 522.690254497 425 492 c 1
 491 558 l 1
 527 522 l 1
 461 456 l 1
 491.690254497 419.369696248 508 372.522554908 508 321 c 0
 508 270.145517081 491.491761981 222.376998557 461 185 c 1
 527 119 l 1
 491 84 l 1
 425 149 l 1
 388.377263555 119.305889369 340.523023015 103 290 103 c 0
EndSplineSet
EndChar

StartChar: yen
Encoding: 165 165 143
Width: 595
GlyphClass: 1
Flags: W
HStem: 0 21G<251 345> 86 51<101 251 345 494> 223 51<101 242 353 494> 648 20G<10 124.455 470.607 585>
VStem: 251 94<0 86 137 223>
DStem2: 113 668 10 668 0.507402 -0.861709<0 372.202> 298 345 353 274 0.507402 0.861709<0 371.694>
LayerCount: 2
Fore
SplineSet
251 0 m 1
 251 86 l 1
 101 86 l 1
 101 137 l 1
 251 137 l 1
 251 223 l 1
 101 223 l 1
 101 274 l 1
 242 274 l 1
 10 668 l 1
 113 668 l 1
 298 345 l 1
 482 668 l 1
 585 668 l 1
 353 274 l 1
 494 274 l 1
 494 223 l 1
 345 223 l 1
 345 137 l 1
 494 137 l 1
 494 86 l 1
 345 86 l 1
 345 0 l 1
 251 0 l 1
EndSplineSet
EndChar

StartChar: brokenbar
Encoding: 166 166 144
Width: 233
GlyphClass: 1
Flags: W
HStem: -161 21G<76 157> 648 20G<76 157>
VStem: 76 81<-161 149 358 668>
LayerCount: 2
Fore
SplineSet
76 -161 m 1
 76 149 l 1
 157 149 l 1
 157 -161 l 1
 76 -161 l 1
76 358 m 1
 76 668 l 1
 157 668 l 1
 157 358 l 1
 76 358 l 1
EndSplineSet
EndChar

StartChar: section
Encoding: 167 167 145
Width: 530
GlyphClass: 1
Flags: W
HStem: -173 70<188.454 339.746> 610 70<179.065 329.347>
VStem: 31 84<239.615 341.87> 76 86<505.962 591.441> 363 86<-81.5696 16.5682> 416 84<176.512 281.122>
DStem2: 201 195 160 124 0.879543 -0.475819<-100.652 153.315> 257 456 218 387 0.88025 -0.47451<-21.2477 225.962>
LayerCount: 2
Fore
SplineSet
218 387 m 1xe4
 155.713948093 369.203985169 115 332.442847571 115 294 c 0
 115 254.011626854 134.980801053 231.010472153 201 195 c 2
 323 129 l 1
 383.335209844 154.139670768 416 188.209398135 416 226 c 0
 416 262.885804182 393.146191048 292.922238804 346 318 c 2
 218 387 l 1xe4
449 -23 m 0xc8
 449 -113.978724487 375.026668024 -173 261 -173 c 0
 161.841026081 -173 90.9616128046 -125.868843749 67 -44 c 1
 150 -20 l 1
 163.860785978 -75.4431439115 201.377951496 -103 263 -103 c 0
 325.343711617 -103 363 -77.7702867834 363 -36 c 0
 363 5.91289368297 331.160543251 38.9207708631 254 77 c 2
 160 124 l 1
 74.1580301694 168.435843206 31 223.637974818 31 289 c 0xe8
 31 348.687874701 75.6047898516 398.868263284 151 424 c 1
 100.488487694 459.358058614 76 500.49871794 76 550 c 0
 76 626.066310291 151.092291056 680 257 680 c 0
 345.377736552 680 411.11892835 641.711174008 439 574 c 1
 358 550 l 1
 342.8941865 589.275115099 306.625637924 610 253 610 c 0
 196.258353703 610 162 588.165005332 162 552 c 0
 162 519.651654905 191.699251853 489.639779348 257 456 c 2
 371 398 l 2
 457.848850116 353.078180974 500 302.104697394 500 242 c 0xd4
 500 178.073893142 458.084525 123.037052055 385 91 c 1
 429.310432777 56.7601201269 449 21.6880785109 449 -23 c 0xc8
EndSplineSet
EndChar

StartChar: dieresis
Encoding: 168 168 146
Width: 425
GlyphClass: 1
Flags: W
HStem: 590 107<63.7424 150.324 276.079 361.324>
VStem: 53 108<600.676 685.987> 265 107<600.742 686.685>
LayerCount: 2
Fore
SplineSet
372 644 m 0
 372 614 348 590 318 590 c 0
 288.777456182 590 265 614.226087431 265 644 c 0
 265 674 288 697 318 697 c 0
 348.783323729 697 372 674.213262178 372 644 c 0
161 644 m 0
 161 614 137 590 107 590 c 0
 77 590 53 614 53 644 c 0
 53 673.222543818 77.2260874307 697 107 697 c 0
 137.783323729 697 161 674.213262178 161 644 c 0
EndSplineSet
EndChar

StartChar: copyright
Encoding: 169 169 147
Width: 798
GlyphClass: 1
Flags: W
HStem: -12 62<295.267 502.733> 150 59<342.428 465.409> 473 58<341.222 460.159> 618 62<295.267 502.733>
VStem: 53 62<230.267 437.733> 227 76<251.291 430.969> 683 62<230.267 437.733>
LayerCount: 2
Fore
SplineSet
550 230 m 1
 521.181377602 178.325228803 468.425638956 150 401 150 c 0
 290.718583624 150 227 220.31016124 227 342 c 0
 227 460.062507514 293.058194061 531 403 531 c 0
 468.85982762 531 519.940218183 502.11315844 548 449 c 1
 481 424 l 1
 464.201661703 456.608539048 437.440092801 473 401 473 c 0
 338.954190643 473 303 424.938785977 303 342 c 0
 303 257.928557406 339.052621247 209 401 209 c 0
 439.744849065 209 468.900246467 224.80714317 484 254 c 1
 550 230 l 1
115 334 m 0
 115 176 241 50 399 50 c 0
 557 50 683 176 683 334 c 0
 683 492 557 618 399 618 c 0
 241 618 115 492 115 334 c 0
745 334 m 0
 745 143 590 -12 399 -12 c 0
 208 -12 53 143 53 334 c 0
 53 525 208 680 399 680 c 0
 590 680 745 525 745 334 c 0
EndSplineSet
EndChar

StartChar: questiondown
Encoding: 191 191 148
Width: 520
GlyphClass: 1
Flags: W
HStem: -174 70<180.963 342.657> 390 129<244.93 340.253>
VStem: 49 88<-62.529 62.9883> 228 129<406.93 502.253> 251 86<221.519 316> 397 82<-48.1766 -16.0366>
LayerCount: 2
Fore
SplineSet
479 -18 m 1xec
 459 -114 374 -174 258 -174 c 0
 133.05487291 -174 49 -108.043066233 49 -10 c 0
 49 60.9160247695 90.9015408874 123.935942264 174 178 c 0
 239.150896259 221.099823679 251 237.103807953 251 282 c 2
 251 316 l 1
 337 316 l 1
 337 279 l 2
 337 211.140254137 314.188731034 179.124438044 223 119 c 0
 164.007296326 83.0044519962 137 45.0058141417 137 -2 c 0
 137 -64.0080002256 186.009803645 -104 262 -104 c 0
 336.110128733 -104 387.014828144 -62.8991686238 397 5 c 1
 479 -18 l 1xec
357 455 m 0xf4
 357 419.226290121 328.223345111 390 293 390 c 0
 257 390 228 419 228 455 c 0
 228 490.223345111 257.226290121 519 293 519 c 0
 328 519 357 490 357 455 c 0xf4
EndSplineSet
EndChar

StartChar: germandbls
Encoding: 223 223 149
Width: 597
GlyphClass: 1
Flags: W
HStem: -12 74<302 407.175> 0 21G<76 160> 330 76<279 384.427> 611 69<217.369 392.168>
VStem: 76 84<0 553.83> 435 85<451.711 570.903> 469 90<118.443 270.319>
LayerCount: 2
Fore
SplineSet
520 521 m 0x7c
 520 451.924979522 486.927351728 403.969639528 420 376 c 1
 511.771371017 353.057157246 559 292.237555893 559 197 c 0
 559 65.2036312111 469.236926391 -12 316 -12 c 2
 302 -12 l 1
 279 65 l 1
 293 63 306 62 318 62 c 0
 414.252033877 62 469 110.221718506 469 195 c 0xba
 469 284.247360036 408.674296936 330 291 330 c 2
 279 330 l 1
 279 406 l 1
 285 406 l 2
 377.928583748 406 435 445.949991376 435 511 c 0
 435 570.83880248 385.200115075 611 311 611 c 0
 203.981011734 611 160 564.980133418 160 453 c 2
 160 0 l 1
 76 0 l 1
 76 453 l 2
 76 607.930092918 150.927304279 680 312 680 c 0
 436.138397578 680 520 615.894255841 520 521 c 0x7c
EndSplineSet
EndChar

StartChar: AE
Encoding: 198 198 150
Width: 998
GlyphClass: 1
Flags: W
HStem: 0 81<600 960> 145 81<279 506> 303 81<600 866> 587 81<600 960>
VStem: 10 109<0 109> 506 94<81 145 226 303 384 546>
DStem2: 10 0 119 0 0.588316 0.808631<64.1264 242.563 341.008 341.008>
AnchorPoint: "Anchor-0" 659 668 basechar 0
LayerCount: 2
Fore
SplineSet
279 226 m 1
 506 226 l 1
 506 546 l 1
 279 226 l 1
10 0 m 1
 496 668 l 1
 960 668 l 1
 960 587 l 1
 600 587 l 1
 600 384 l 1
 866 384 l 1
 866 303 l 1
 600 303 l 1
 600 81 l 1
 960 81 l 1
 960 0 l 1
 506 0 l 1
 506 145 l 1
 223 145 l 1
 119 0 l 1
 10 0 l 1
EndSplineSet
EndChar

StartChar: florin
Encoding: 402 402 151
Width: 321
GlyphClass: 1
Flags: W
HStem: -173 80<25.7118 97.3417> 429 67<25 109 193 296> 635 71<198.373 296>
VStem: 109 84<-79.6973 429 496 629.809>
LayerCount: 2
Fore
SplineSet
193 -27 m 2
 193 -122.805406333 154.150759696 -173 80 -173 c 0
 63.2859969831 -173 45.6547029147 -170.435448135 25 -165 c 1
 25 -90 l 1
 34.7740041263 -91.9548008252 43.8323969744 -93 51 -93 c 0
 89.8335133191 -93 109 -70.1984899831 109 -24 c 2
 109 429 l 1
 25 429 l 1
 25 496 l 1
 109 496 l 1
 109 570 l 2
 109 677.684513976 136.690879715 706 242 706 c 2
 296 706 l 1
 296 635 l 1
 244 635 l 2
 203.179423624 635 193 622.225821334 193 571 c 2
 193 496 l 1
 296 496 l 1
 296 429 l 1
 193 429 l 1
 193 -27 l 2
EndSplineSet
EndChar

StartChar: integral
Encoding: 8747 8747 152
Width: 458
GlyphClass: 1
Flags: W
HStem: -173 112<68.6675 142.191> 569 112<315.824 389.332>
VStem: 53 99<-126.451 -69.4714> 189 84<-92.4922 611.382> 305 100<577.438 634.759>
LayerCount: 2
Fore
SplineSet
273 44 m 0
 273 -100.833381364 228.103716517 -173 138 -173 c 0
 83.0806169047 -173 53 -151.05884414 53 -111 c 0
 53 -83 75 -61 103 -61 c 0
 130.931406157 -61 152 -82.9285364489 152 -112 c 2
 152 -120 l 2
 152 -121.999999971 153.99999994 -115.000000182 150 -127 c 1
 176.900343672 -123.0147639 189 -93.2309944773 189 -31 c 0
 189 185 185 248 185 464 c 0
 185 608.333525125 230.207253955 681 320 681 c 0
 374.919383096 681 405 659.05884414 405 619 c 0
 405 591 383 569 355 569 c 0
 327 569 305 591 305 619 c 0
 305 624.834577184 305.940737465 629.851843661 308 635 c 1
 281.246056858 631.036452868 269 600.578311452 269 538 c 0
 269 322 273 260 273 44 c 0
EndSplineSet
EndChar

StartChar: approxequal
Encoding: 8776 8776 153
Width: 581
GlyphClass: 1
Flags: W
HStem: 97 73<304.395 440.656> 151 74<140.892 276.634> 283 73<306.558 440.294> 337 74<141.864 277.442>
VStem: 53 75<120.947 137.432 306.947 323.589> 454 74<184.681 201.081 370.681 387.081>
LayerCount: 2
Fore
SplineSet
192 151 m 0x4c
 157.019997307 151 134.003432956 133.018309101 128 101 c 1
 53 123 l 1
 67.8986092601 186.56739951 119.518866781 225 190 225 c 0x4c
 267 225 314 170 391 170 c 0
 424.265181831 170 448.047283251 189.25217734 454 221 c 1
 528 199 l 1
 513 136 461 97 392 97 c 0x8c
 317 97 267 151 192 151 c 0x4c
192 337 m 0x1c
 157.019997307 337 134.003432956 319.018309101 128 287 c 1
 53 309 l 1
 70.0950670619 373.357899527 121.391654961 411 192 411 c 0x1c
 269 411 315 356 392 356 c 0
 424.452384521 356 448.081984706 375.437251765 454 407 c 1
 528 385 l 1
 513 322 461 283 392 283 c 0x2c
 317 283 267 337 192 337 c 0x1c
EndSplineSet
EndChar

StartChar: notequal
Encoding: 8800 8800 154
Width: 602
GlyphClass: 1
Flags: W
HStem: 0 21G<77 191.05> 121 79<53 162 317 549> 307 80<53 292 448 549> 476 20G<410.872 524>
VStem: 77 100<0 100> 425 99<397 496>
DStem2: 77 0 177 0 0.574348 0.818611<57.4348 147.872 301.566 374.798 529.886 605.904>
LayerCount: 2
Fore
SplineSet
77 0 m 1
 162 121 l 1
 53 121 l 1
 53 200 l 1
 218 200 l 1
 292 307 l 1
 53 307 l 1
 53 387 l 1
 348 387 l 1
 425 496 l 1
 524 496 l 1
 448 387 l 1
 549 387 l 1
 549 307 l 1
 392 307 l 1
 317 200 l 1
 549 200 l 1
 549 121 l 1
 262 121 l 1
 177 0 l 1
 77 0 l 1
EndSplineSet
EndChar

StartChar: lessequal
Encoding: 8804 8804 155
Width: 579
GlyphClass: 1
Flags: W
HStem: 0 80<53 526> 100 90<436 526> 414 91<435 526>
VStem: 53 105<214.5 389.5>
LayerCount: 2
Fore
SplineSet
53 0 m 1
 53 80 l 1
 526 80 l 1
 526 0 l 1
 53 0 l 1
526 100 m 1
 53 267 l 1
 53 337 l 1
 526 505 l 1
 526 414 l 1
 158 302 l 1
 526 190 l 1
 526 100 l 1
EndSplineSet
EndChar

StartChar: greaterequal
Encoding: 8805 8805 156
Width: 579
GlyphClass: 1
Flags: W
HStem: 0 80<53 526> 100 90<53 143> 414 91<53 144>
VStem: 421 105<214.5 389.5>
LayerCount: 2
Fore
SplineSet
53 0 m 1
 53 80 l 1
 526 80 l 1
 526 0 l 1
 53 0 l 1
53 100 m 1
 53 190 l 1
 421 302 l 1
 53 414 l 1
 53 505 l 1
 526 337 l 1
 526 267 l 1
 53 100 l 1
EndSplineSet
EndChar

StartChar: lozenge
Encoding: 9674 9674 157
Width: 561
GlyphClass: 1
Flags: W
VStem: 53 87<271.5 358.5> 421 87<271.5 358.5>
DStem2: 53 315 140 315 0.506632 0.862163<44.077 321.569> 140 315 53 315 0.506632 -0.862163<0 277.492> 281 703 281 554 0.504977 -0.863133<128.607 405.592> 281 76 281 -73 0.504977 0.863133<0 276.986>
LayerCount: 2
Fore
SplineSet
281 76 m 1
 421 315 l 1
 281 554 l 1
 140 315 l 1
 281 76 l 1
281 -73 m 1
 53 315 l 1
 281 703 l 1
 508 315 l 1
 281 -73 l 1
EndSplineSet
EndChar

StartChar: summation
Encoding: 8721 8721 158
Width: 587
GlyphClass: 1
Flags: W
HStem: -161 81<154 534> 587 81<154 534>
DStem2: 154 587 53 587 0.594187 -0.804327<0 353.998> 53 -80 154 -80 0.593035 0.805177<59.8965 414.816>
LayerCount: 2
Fore
SplineSet
53 -161 m 1
 53 -80 l 1
 299 254 l 1
 53 587 l 1
 53 668 l 1
 534 668 l 1
 534 587 l 1
 154 587 l 1
 399 254 l 1
 154 -80 l 1
 534 -80 l 1
 534 -161 l 1
 53 -161 l 1
EndSplineSet
EndChar

StartChar: minus
Encoding: 8722 8722 159
Width: 602
GlyphClass: 1
Flags: W
HStem: 209 79<53 549>
LayerCount: 2
Fore
SplineSet
53 209 m 1
 53 288 l 1
 549 288 l 1
 549 209 l 1
 53 209 l 1
EndSplineSet
EndChar

StartChar: uni2215
Encoding: 8725 8725 160
Width: 598
GlyphClass: 1
Flags: W
HStem: 0 21G<15 128.991> 649 20G<469.009 583>
VStem: 15 100<0 100> 483 100<569 669>
DStem2: 15 0 115 0 0.573216 0.819405<57.3216 816.447>
LayerCount: 2
Fore
SplineSet
15 0 m 1
 483 669 l 1
 583 669 l 1
 115 0 l 1
 15 0 l 1
EndSplineSet
EndChar

StartChar: uni2219
Encoding: 8729 8729 161
Width: 235
GlyphClass: 1
Flags: W
HStem: 191 129<69.8503 165.159>
VStem: 53 129<208.357 303.15>
LayerCount: 2
Fore
SplineSet
182 256 m 0
 182 220.726167847 152.731157812 191 118 191 c 0
 81.2184933368 191 53 218.78436267 53 255 c 0
 53 291 82 320 118 320 c 0
 153 320 182 291 182 256 c 0
EndSplineSet
EndChar

StartChar: radical
Encoding: 8730 8730 162
Width: 582
GlyphClass: 1
Flags: W
HStem: -161 21G<271.157 381.639> 145 80<53 159> 649 20G<437.516 529>
VStem: 441 88<581 669>
DStem2: 215 225 159 145 0.365088 -0.930973<54.033 281.519> 318 -37 378 -161 0.17899 0.983851<0 716.615>
LayerCount: 2
Fore
SplineSet
279 -161 m 1
 159 145 l 1
 53 145 l 1
 53 225 l 1
 215 225 l 1
 318 -37 l 1
 441 669 l 1
 529 669 l 1
 378 -161 l 1
 279 -161 l 1
EndSplineSet
EndChar

StartChar: infinity
Encoding: 8734 8734 163
Width: 773
GlyphClass: 1
Flags: W
HStem: 104 76<158.525 282.878 491.331 614.475> 330 76<157.872 284.069 488.936 615.128>
VStem: 53 81<204.672 306.691> 639 81<204.672 306.691>
LayerCount: 2
Fore
SplineSet
435 256 m 1
 480.385322481 200.748303067 513.418804995 180 556 180 c 0
 602.980264794 180 639 212.981926212 639 256 c 0
 639 299.941876707 604.067586443 330 553 330 c 0
 512.443817467 330 479.395821117 309.27498534 435 256 c 1
134 256 m 0
 134 212.981926212 170.019735206 180 217 180 c 0
 260.647375984 180 295.637900984 201.79737623 339 256 c 1
 292.908617611 310.107274978 260.918965211 330 220 330 c 0
 168.932413557 330 134 299.941876707 134 256 c 0
560 104 m 0
 499.263601559 104 446.285788719 132.78563241 387 198 c 1
 327.563251489 132.619576638 274.58658835 104 213 104 c 0
 118.131540496 104 53 165.874963472 53 256 c 0
 53 344.777226036 120.753203187 406 219 406 c 0
 278.573840227 406 330.594981062 378.441181343 387 317 c 1
 442.381342315 378.315057563 494.32949273 406 554 406 c 0
 652.246796813 406 720 344.777226036 720 256 c 0
 720 165.874963472 654.868459504 104 560 104 c 0
EndSplineSet
EndChar

StartChar: uni03A9
Encoding: 937 937 164
Width: 687
GlyphClass: 1
Flags: W
HStem: 0 173<234.785 286 401 452.215> 0 81<50 201 486 637> 606 74<248.167 438.11>
VStem: 50 73<289.478 480.372> 201 85<81 143.167> 401 85<81 143.209> 564 73<289.392 480.27>
LayerCount: 2
Fore
SplineSet
123 385 m 0xbe
 123 285.419867515 188.588537108 200.114530908 286 173 c 1
 286 0 l 1xbe
 50 0 l 1
 50 81 l 1
 201 81 l 1
 201 130 l 1
 107.329419107 182.814263695 50 279.628845631 50 385 c 0
 50 549.056317716 180.055928506 680 343 680 c 0
 505.72381855 680 637 548.277300926 637 385 c 0
 637 279.129103416 580.114830971 183.064745122 486 130 c 1
 486 81 l 1
 637 81 l 1
 637 0 l 1x7e
 401 0 l 1
 401 173 l 1
 498.411462892 200.114530908 564 285.419867515 564 385 c 0
 564 507 465 606 343 606 c 0
 221.775939411 606 123 506.775079046 123 385 c 0xbe
EndSplineSet
EndChar

StartChar: estimated
Encoding: 8494 8494 165
Width: 622
GlyphClass: 1
Flags: W
HStem: -12 32<226.62 393.382> 248 31<159 463> 472 32<229.252 393.493>
VStem: 53 106<149.642 248 279 351.2> 463 106<279 347.883>
LayerCount: 2
Fore
SplineSet
311 472 m 0
 253.549575037 472 200.397848671 451.368737792 159 413 c 1
 159 279 l 1
 463 279 l 1
 463 413 l 1
 421.602151329 451.368737792 368.450424963 472 311 472 c 0
514 87 m 1
 465.055540866 24.071409685 391.090933128 -12 311 -12 c 0
 163.854448906 -12 53 103.151132972 53 256 c 0
 53 389.806253398 171.798333158 504 311 504 c 0
 454.05469151 504 569 389.945740413 569 248 c 1
 159 248 l 1
 159 78 l 1
 200.786491931 40.1931739672 253.706534052 20 311 20 c 0
 375.591519329 20 436.719128392 47.6872111638 481 97 c 1
 514 87 l 1
EndSplineSet
EndChar

StartChar: partialdiff
Encoding: 8706 8706 166
Width: 582
GlyphClass: 1
Flags: W
HStem: -12 73<216.895 364.088> 430 74<216.842 364.702> 598 82<142 308.106>
VStem: 53 89<146.824 344.974> 439 91<144.988 344.736>
LayerCount: 2
Fore
SplineSet
142 246 m 0
 142 136.869094689 203.105378966 61 291 61 c 0
 379 61 439 136 439 246 c 0
 439 355.702873796 379.239268053 430 291 430 c 0
 202.866805586 430 142 354.835622632 142 246 c 0
530 277 m 0
 530 91.9958158771 443.996539811 -12 291 -12 c 0
 148.968990809 -12 53 92.0336118852 53 246 c 0
 53 399.966388115 148.968990809 504 291 504 c 0
 345.335165307 504 395.663674597 483.411064381 423 450 c 1
 389.95466176 554.14288415 313.79737275 598 166 598 c 2
 142 598 l 1
 142 680 l 1
 416.196068066 680 530 561.796431522 530 277 c 0
EndSplineSet
EndChar

StartChar: uni0394
Encoding: 916 916 167
Width: 759
GlyphClass: 1
Flags: W
HStem: 0 78<178 580> 660 20G<369.412 388.618>
DStem2: 53 0 178 78 0.4323 0.90173<124.372 589.991> 379 680 379 498 0.433377 -0.901213<164.021 629.639>
LayerCount: 2
Fore
SplineSet
178 78 m 1
 580 78 l 1
 379 498 l 1
 178 78 l 1
53 0 m 1
 379 680 l 1
 706 0 l 1
 53 0 l 1
EndSplineSet
EndChar

StartChar: product
Encoding: 8719 8719 168
Width: 585
GlyphClass: 1
Flags: W
HStem: -161 21G<53 134 450 532> 587 81<134 450>
VStem: 53 81<-161 587> 450 82<-161 587>
LayerCount: 2
Fore
SplineSet
53 -161 m 1
 53 668 l 1
 532 668 l 1
 532 -161 l 1
 450 -161 l 1
 450 587 l 1
 134 587 l 1
 134 -161 l 1
 53 -161 l 1
EndSplineSet
EndChar

StartChar: pi
Encoding: 960 960 169
Width: 591
GlyphClass: 1
Flags: W
HStem: 0 74<471.342 551> 414 82<20 104 185 383 467 551>
VStem: 104 81<0 414> 383 84<78.6111 414>
LayerCount: 2
Fore
SplineSet
500 0 m 2
 404.850726298 0 383 23.158034709 383 124 c 2
 383 414 l 1
 185 414 l 1
 185 0 l 1
 104 0 l 1
 104 414 l 1
 20 414 l 1
 20 496 l 1
 551 496 l 1
 551 414 l 1
 467 414 l 1
 467 139 l 2
 467 83.4588318946 474.421545025 74 518 74 c 2
 551 74 l 1
 551 0 l 1
 500 0 l 2
EndSplineSet
EndChar

StartChar: hungarumlaut
Encoding: 733 733 170
Width: 414
GlyphClass: 1
Flags: W
HStem: 572 136<199 199>
VStem: 53 308
LayerCount: 2
Fore
SplineSet
323 708 m 0
 343 708 361 690 361 670 c 0
 361 657.67956146 357.799989867 649.824991134 350 643 c 2
 269 572 l 1
 199 572 l 1
 295 695 l 2
 301.891747488 703.860818199 310.80690829 708 323 708 c 0
177 708 m 0
 199 708 215 692 215 670 c 0
 215 657.67956146 211.799989867 649.824991134 204 643 c 2
 123 572 l 1
 53 572 l 1
 149 695 l 2
 155.891747488 703.860818199 164.80690829 708 177 708 c 0
EndSplineSet
EndChar

StartChar: tilde
Encoding: 732 732 171
Width: 435
GlyphClass: 1
Flags: W
HStem: 575 63<222.547 316.719> 618 63<123.762 220.801>
VStem: 53 65<577 613.967>
LayerCount: 2
Fore
SplineSet
382 649 m 0xa0
 382 613.072141714 332.09462505 575 285 575 c 0xa0
 241 575 204 618 160 618 c 0
 135.17044056 618 121.020806935 604.187262413 118 577 c 1
 53 577 l 1
 63.9723226885 643.831420012 101.855683061 681 159 681 c 0x60
 215 681 227 638 283 638 c 0
 322 638 312 680 351 680 c 0
 369 680 382 667 382 649 c 0xa0
EndSplineSet
EndChar

StartChar: endash
Encoding: 8211 8211 172
Width: 480
GlyphClass: 1
InSpiro: 1
Flags: W
HStem: 208 79<41 439>
LayerCount: 2
Fore
SplineSet
41 208 m 1
 41 287 l 1
 439 287 l 1
 439 208 l 1
 41 208 l 1
EndSplineSet
EndChar

StartChar: emdash
Encoding: 8212 8212 173
Width: 800
GlyphClass: 1
Flags: W
HStem: 208 79<41 759>
LayerCount: 2
Fore
SplineSet
41 208 m 1
 41 287 l 1
 759 287 l 1
 759 208 l 1
 41 208 l 1
EndSplineSet
EndChar

StartChar: trademark
Encoding: 8482 8482 174
Width: 848
GlyphClass: 1
Flags: W
HStem: 292 92<512 676> 608 60<53 171 238 356>
VStem: 171 67<292 608> 393 67<292 571> 728 67<292 571>
DStem2: 501 668 460 571 0.311204 -0.950343<79.4239 298.839> 594 384 630 292 0.311204 0.950343<0 219.415>
LayerCount: 2
Fore
SplineSet
171 292 m 1
 171 608 l 1
 53 608 l 1
 53 668 l 1
 356 668 l 1
 356 608 l 1
 238 608 l 1
 238 292 l 1
 171 292 l 1
393 292 m 1
 393 668 l 1
 501 668 l 1
 594 384 l 1
 687 668 l 1
 795 668 l 1
 795 292 l 1
 728 292 l 1
 728 571 l 1
 630 292 l 1
 558 292 l 1
 460 571 l 1
 460 292 l 1
 393 292 l 1
EndSplineSet
EndChar

StartChar: uni2113
Encoding: 8467 8467 175
Width: 450
GlyphClass: 1
Flags: W
HStem: -12 73<221.235 336.204> 610 70<217.223 299.746>
VStem: 53 151<138 227> 119 85<79.9034 188 344 598.952> 312 82<440.948 598.657>
DStem2: 53 227 119 188 0.800636 0.599151<0 29.4751 190.997 302.142>
LayerCount: 2
Fore
SplineSet
259 610 m 0xd8
 218.97282081 610 204 584.954554281 204 518 c 2
 204 344 l 1
 275.844911102 393.892299376 312 457.833243631 312 535 c 0
 312 584.264497274 293.813578074 610 259 610 c 0xd8
397 42 m 1
 359.858977817 7.87041204781 309.814977104 -12 261 -12 c 0
 161.130905815 -12 119 37.8450153304 119 156 c 2
 119 188 l 1xd8
 53 138 l 1
 53 227 l 1xe8
 119 278 l 1
 119 507 l 2
 119 623.962072106 165.96820546 680 264 680 c 0
 344.281910901 680 394 625.692548831 394 538 c 0
 394 431.5177974 342.374992406 353.536864877 204 251 c 1xd8
 204 151 l 2xe8
 204 89.1044314001 224.92218782 61 271 61 c 0
 300.308533898 61 328.331558178 73.2797522126 360 100 c 1
 397 42 l 1
EndSplineSet
EndChar

StartChar: Lslash
Encoding: 321 321 176
Width: 573
GlyphClass: 1
Flags: W
HStem: 0 81<204 563> 216 71<20 91> 434 71<313 384> 649 20G<110 204>
VStem: 110 94<81 270 397 669>
DStem2: 20 287 20 216 0.857909 0.513802<0 68.4771 214.373 387.808>
LayerCount: 2
Fore
SplineSet
110 0 m 1
 110 270 l 1
 20 216 l 1
 20 287 l 1
 110 340 l 1
 110 669 l 1
 204 669 l 1
 204 397 l 1
 384 505 l 1
 384 434 l 1
 204 326 l 1
 204 81 l 1
 563 81 l 1
 563 0 l 1
 110 0 l 1
EndSplineSet
EndChar

StartChar: lslash
Encoding: 322 322 177
Width: 237
GlyphClass: 1
Flags: W
HStem: 0 74<156.399 222> 365 71<151 222> 648 20G<68 152>
VStem: 68 154<25.9459 74 365 394> 68 84<78.6111 273 394 668>
AnchorPoint: "Anchor-1" 145 0 basechar 0
AnchorPoint: "Anchor-0" 117 668 basechar 0
LayerCount: 2
Fore
SplineSet
152 139 m 2xe8
 152 84 160 74 204 74 c 2
 222 74 l 1
 222 0 l 1xf0
 185 0 l 2
 89.8507262982 0 68 23.1580347092 68 124 c 2
 68 273 l 1
 15 242 l 1
 15 312 l 1
 68 344 l 1
 68 668 l 1
 152 668 l 1
 152 394 l 1xe8
 222 436 l 1
 222 365 l 1xf0
 152 323 l 1
 152 139 l 2xe8
EndSplineSet
EndChar

StartChar: oslash
Encoding: 248 248 178
Width: 552
GlyphClass: 1
Flags: W
HStem: -12 74<202.704 350.066> 430 74<201.842 350.857>
VStem: 38 89<147.565 344.974> 424 90<144.959 348.87>
DStem2: 45 24 83 -9 0.648973 0.760811<0 65.0741 159.663 483.31 570.147 634.403>
AnchorPoint: "Anchor-0" 276 496 basechar 0
LayerCount: 2
Fore
SplineSet
178 103 m 1
 204.807354927 76.1926450729 238.731238272 62 276 62 c 0
 364.239268053 62 424 136.297126204 424 246 c 0
 424 290.6672956 415.135593702 327.766477513 397 359 c 1
 178 103 l 1
276 430 m 0
 187.866805586 430 127 354.835622632 127 246 c 0
 127 207.665951354 134.120430663 173.759138671 148 146 c 1
 364 398 l 1
 341.247550827 418.773975332 310.37598299 430 276 430 c 0
514 246 m 0
 514 92.0336118852 418.031009191 -12 276 -12 c 0
 217.634064987 -12 164.751520899 6.2112072356 125 40 c 1
 83 -9 l 1
 45 24 l 1
 89 77 l 1
 55.4174379292 121.447508623 38 179.164116663 38 246 c 0
 38 399.966388115 133.968990809 504 276 504 c 0
 329.136449313 504 377.099766629 488.925814558 416 460 c 1
 457 507 l 1
 495 474 l 1
 454 425 l 1
 493.642056378 380.402686575 514 319.668154769 514 246 c 0
EndSplineSet
EndChar

StartChar: Oslash
Encoding: 216 216 179
Width: 727
GlyphClass: 1
Flags: W
HStem: -12 79<268.908 455.744> 599 81<270.41 457.42> 653 20G<599.175 640.375>
VStem: 50 96<206.089 459.602> 581 96<207.022 458.873>
DStem2: 65 27 103 -6 0.649047 0.760749<0 86.7641 186.561 669.115 766.742 849.068>
AnchorPoint: "Anchor-0" 364 668 basechar 0
LayerCount: 2
Fore
SplineSet
363 67 m 0x98
 494.063916472 67 581 173.07797348 581 333 c 0
 581 399.350402571 566.278189273 457.552910097 538 503 c 1
 217 127 l 1
 256.223176423 86.7711011044 304.332855777 67 363 67 c 0x98
363 599 m 0xd8
 231.328768414 599 146 494.40344517 146 333 c 0
 146 266.147298889 159.337918316 211.461833793 186 169 c 1
 506 543 l 1
 466.464714955 580.50783453 419.243649558 599 363 599 c 0xd8
677 333 m 0
 677 126.219695258 551.200045475 -12 363 -12 c 0
 284.242872992 -12 214.167293438 12.8543927482 160 60 c 1
 103 -6 l 1
 65 27 l 1
 125 97 l 1
 76.3115098825 157.612201983 50 240.40575308 50 333 c 0
 50 540.656670791 175.690092341 680 363 680 c 0xd8
 441.714540846 680 509.806749264 656.167727054 563 610 c 1
 616 673 l 1xb8
 655 641 l 1
 599 574 l 1
 650.112938002 511.862702824 677 428.788575367 677 333 c 0
EndSplineSet
EndChar

StartChar: Thorn
Encoding: 222 222 180
Width: 576
GlyphClass: 1
Flags: W
HStem: 0 21G<76 160> 163 81<160 407.198> 447 81<160 401.377> 648 20G<76 160>
VStem: 76 84<0 163 244 447 528 668> 441 97<275.688 411.797>
LayerCount: 2
Fore
SplineSet
441 344 m 0
 441 419.148359872 401.791380403 447 296 447 c 2
 160 447 l 1
 160 244 l 1
 296 244 l 2
 404.37538713 244 441 269.258353703 441 344 c 0
538 345 m 0
 538 215.966133018 464.953300069 163 287 163 c 2
 160 163 l 1
 160 0 l 1
 76 0 l 1
 76 668 l 1
 160 668 l 1
 160 528 l 1
 287 528 l 2
 465.153041609 528 538 474.888472568 538 345 c 0
EndSplineSet
EndChar

StartChar: ae
Encoding: 230 230 181
Width: 874
GlyphClass: 1
Flags: W
HStem: -12 74<536.386 699.756> -12 66<158.377 318.993> 225 67<198.376 373 465 757> 436 68<185.852 335.443 536.327 680.715>
VStem: 38 93<79.4692 178.236> 373 92<292 366.939> 380 83<141.471 225> 757 89<292 362.501>
AnchorPoint: "Anchor-0" 433 496 basechar 0
LayerCount: 2
Fore
SplineSet
131 133 m 0x7b
 131 84.7236111021 168.335021086 54 227 54 c 0
 328.335758832 54 380 106.339590726 380 209 c 2
 380 225 l 1
 212.097811591 225 131 195.036149934 131 133 c 0x7b
757 292 m 1
 754.996095443 371.154229998 692.846487513 432 614 432 c 0
 526.139234149 432 472.011118845 381.14136817 465 292 c 1x3d
 757 292 l 1
417 88 m 1
 380.023092739 24.0399441966 305.06000881 -12 209 -12 c 0
 107.678106709 -12 38 46.2688260782 38 131 c 0
 38 236.125409373 154.260794162 292 373 292 c 1
 373 319 l 2x7d
 373 396.151859158 334.854771159 436 261 436 c 0
 202 436 162 408 151 359 c 1
 70 383 l 1
 96.0545752825 456.1532306 171.185866075 504 260 504 c 0
 346.30764791 504 403.764528668 477.430344158 433 424 c 1
 477.798908694 475.767627824 541.674650742 504 614 504 c 0
 748.399451246 504 846 397.564918815 846 251 c 0
 846 238.023796047 845.763306115 231.869755039 845 225 c 1
 463 225 l 1
 468.014579168 124.708416632 527.260567888 62 617 62 c 0
 666.379489514 62 705.654221588 78.5901885485 733 111 c 1
 814 87 l 1
 772.845230057 23.7621827707 701.682098685 -12 617 -12 c 0xbb
 529 -12 459 23 417 88 c 1
EndSplineSet
EndChar

StartChar: eth
Encoding: 240 240 182
Width: 567
GlyphClass: 1
Flags: W
HStem: -12 71<195.048 350.31> 371 74<196.172 352.413> 602 77<175 302.503>
VStem: 38 90<126.836 300.727> 419 98<149.888 382.398>
DStem2: 247 510 283 474 0.707107 0.707107<0 93.3381 183.848 240.416>
LayerCount: 2
Fore
SplineSet
128 215 m 0
 128 121.199908341 185.814017368 59 273 59 c 0
 360.98717989 59 419 120.986300939 419 215 c 0
 419 309.013699061 360.98717989 371 273 371 c 0
 185.814017368 371 128 308.800091659 128 215 c 0
517 303 m 0
 517 96.7212198261 432.784197976 -12 273 -12 c 0
 137.554051004 -12 38 85.4358797062 38 218 c 0
 38 350.70846572 127.722340989 445 254 445 c 0
 333.27579743 445 394.67587671 412.555639926 430 352 c 1
 424.974683292 440.44557406 400.775005812 504.214994447 356 547 c 1
 283 474 l 1
 247 510 l 1
 313 576 l 1
 279.42360298 593.775739599 235.771759313 602 175 602 c 1
 175 679 l 1
 256.837582435 679 320.274225763 664.435464542 371 634 c 1
 417 680 l 1
 453 644 l 1
 413 604 l 1
 478.747369442 546.222008672 517 435.510068307 517 303 c 0
EndSplineSet
EndChar

StartChar: thorn
Encoding: 254 254 183
Width: 566
GlyphClass: 1
Flags: W
HStem: -161 21G<70 154> -12 72<222.212 366.423> 433 72<222.181 366.546> 649 20G<70 154>
VStem: 70 84<-161 75 132.749 359.943 418 669> 434 94<136.225 356.476>
LayerCount: 2
Fore
SplineSet
293 433 m 0
 205.267195675 433 152 362.354853963 152 246 c 0
 152 130.456872904 205.410855266 60 293 60 c 0
 380.589144734 60 434 130.456872904 434 246 c 0
 434 362.354853963 380.732804325 433 293 433 c 0
315 -12 m 0
 243.258392366 -12 188.12311873 17.7935950704 154 75 c 1
 154 -161 l 1
 70 -161 l 1
 70 669 l 1
 154 669 l 1
 154 418 l 1
 188.12311873 475.206404929 243.258392367 505 315 505 c 0
 440.413411315 505 528 398.497997796 528 246 c 0
 528 94.7957174819 439.831442544 -12 315 -12 c 0
EndSplineSet
EndChar

StartChar: multiply
Encoding: 215 215 184
Width: 528
GlyphClass: 1
Flags: W
HStem: 193 115<206.5 321.5>
DStem2: 110 462 53 404 0.707107 -0.707107<0.707107 217.789 299.813 516.188> 53 97 110 39 0.707107 0.707107<0 217.082 298.399 515.481>
LayerCount: 2
Fore
SplineSet
110 39 m 1
 53 97 l 1
 207 250 l 1
 53 404 l 1
 110 462 l 1
 264 308 l 1
 418 462 l 1
 475 404 l 1
 322 250 l 1
 475 97 l 1
 418 39 l 1
 264 193 l 1
 110 39 l 1
EndSplineSet
EndChar

StartChar: divide
Encoding: 247 247 185
Width: 602
GlyphClass: 1
Flags: W
HStem: 14 129<252.93 348.603> 208 81<53 549> 354 129<252.85 348.603>
VStem: 236 129<30.8503 126.331 370.397 466.15>
CounterMasks: 1 e0
LayerCount: 2
Fore
SplineSet
365 79 m 0
 365 42.2184933368 337.21563733 14 301 14 c 0
 265 14 236 43 236 79 c 0
 236 114.223345111 265.226290121 143 301 143 c 0
 337 143 365 115 365 79 c 0
53 208 m 1
 53 289 l 1
 549 289 l 1
 549 208 l 1
 53 208 l 1
365 418 m 0
 365 382 337 354 301 354 c 0
 264.218493337 354 236 381.78436267 236 418 c 0
 236 454 265 483 301 483 c 0
 337.21563733 483 365 454.781506663 365 418 c 0
EndSplineSet
EndChar

StartChar: OE
Encoding: 338 338 186
Width: 1052
GlyphClass: 1
Flags: W
HStem: -12 81<270.517 458.393> 0 81<655 1014> 304 81<655 920> 588 81<655 1014> 602 78<270.271 458.362>
VStem: 50 96<208.533 461.653> 581 74<207.029 304 385 462.718>
LayerCount: 2
Fore
SplineSet
146 335 m 0xae
 146 174.209618201 231.828899059 69 363 69 c 0
 495.222723098 69 581 173.270543024 581 334 c 0
 581 497.25237896 495.794845572 602 363 602 c 0
 231.168492323 602 146 497.207431105 146 335 c 0xae
581 75 m 1
 524.944386865 17.9433937728 449.913813963 -12 363 -12 c 0
 175.690092341 -12 50 127.343329209 50 335 c 0
 50 542.110236222 175.099988587 680 363 680 c 0xae
 449.41662483 680 524.618125742 651.368235891 581 597 c 1
 581 669 l 1
 1014 669 l 1
 1014 588 l 1
 655 588 l 1
 655 385 l 1
 920 385 l 1
 920 304 l 1
 655 304 l 1
 655 81 l 1
 1014 81 l 1
 1014 0 l 1
 581 0 l 1x76
 581 75 l 1
EndSplineSet
EndChar

StartChar: oe
Encoding: 339 339 187
Width: 927
GlyphClass: 1
Flags: W
HStem: -12 74<201.842 350.438 588.754 754.576> 225 67<517 809> 431 74<201.771 349.156 580.128 744.64>
VStem: 38 89<147.026 347.407> 424 92<143.767 225 292 347.877> 809 90<292 363.757>
LayerCount: 2
Fore
SplineSet
127 246 m 0
 127 137.164377368 187.866805586 62 276 62 c 0
 364.239268053 62 424 136.297126204 424 246 c 0
 424 356.500481696 364.400385357 431 276 431 c 0
 187.702491962 431 127 355.631134141 127 246 c 0
809 292 m 1
 807.014309665 373.413303733 746.582412033 433 666 433 c 0
 580.003546066 433 524.000288662 380.0036289 517 292 c 1
 809 292 l 1
470 88 m 1
 428.057573477 25.0863602154 356.110034659 -12 276 -12 c 0
 133.968990809 -12 38 92.0336118852 38 246 c 0
 38 400.764782091 133.783713754 505 276 505 c 0
 357.282404224 505 429.14518588 467.778764373 471 404 c 1
 514.116332043 468.173145366 585.217685049 505 666 505 c 0
 800.923237248 505 899 398.08370069 899 251 c 0
 899 238.023796047 898.763306115 231.869755039 898 225 c 1
 516 225 l 1
 519.000206828 126.993243609 580.006134878 62 669 62 c 0
 720.061243091 62 758.032325505 78.0395089507 785 111 c 1
 866 87 l 1
 824.086939272 23.1324788911 754.176855014 -12 669 -12 c 0
 581.824915677 -12 511.915896297 23.1301604925 470 88 c 1
EndSplineSet
EndChar

StartChar: Aring
Encoding: 197 197 191
Width: 626
GlyphClass: 2
Flags: W
HStem: 0 21G<10 116.986 509.014 616> 146 81<190 436> 574 104<261 365> 780 58<271.168 355.074>
VStem: 204 57<687.218 769.805> 365 57<687.361 770.034>
DStem2: 10 0 110 0 0.350643 0.936509<35.0643 189.677 275.703 275.703> 377 640 313 574 0.34984 -0.93681<39.4397 407.543>
AnchorPoint: "Anchor-2" 615 0 basechar 0
AnchorPoint: "Anchor-1" 313 0 basechar 0
AnchorPoint: "Anchor-0" 313 788 basechar 0
LayerCount: 2
Fore
SplineSet
422 729 m 0
 422 692.822016057 405.858355162 660.8974296 377 640 c 1
 616 0 l 1
 516 0 l 1
 465 146 l 1
 161 146 l 1
 110 0 l 1
 10 0 l 1
 250 641 l 1
 221.200814878 661.85458233 204 694.760489053 204 729 c 0
 204 788.950458218 253.949533375 838 315 838 c 0
 374.940378514 838 422 790.060759421 422 729 c 0
190 227 m 1
 436 227 l 1
 313 574 l 1
 190 227 l 1
261 729 m 0
 261 700.278315609 283.715145327 678 313 678 c 0
 342.284854673 678 365 700.278315609 365 729 c 0
 365 757.721684391 342.284854673 780 313 780 c 0
 283.715145327 780 261 757.721684391 261 729 c 0
EndSplineSet
EndChar

StartChar: Ccedilla
Encoding: 199 199 202
Width: 656
GlyphClass: 2
Flags: W
HStem: -181 41<267.401 377.543> -81 40<326.068 381.055> -12 79<365 457.049> 499 21G<515.916 586.667> 601 79<267.155 453.015>
VStem: 50 96<207.071 461.96> 382 62<-134.092 -82.6367>
AnchorPoint: "Anchor-1" 352 -181 basechar 0
AnchorPoint: "Anchor-0" 353 668 basechar 0
LayerCount: 2
Fore
SplineSet
444 -102 m 0
 444 -147.804294696 403.240716272 -181 347 -181 c 0
 321.699059412 -181 294.579447704 -174.836451885 259 -161 c 1
 273 -126 l 1
 297.400188503 -135.547899849 315.844603415 -140 331 -140 c 0
 361 -140 382 -126 382 -106 c 0
 382 -90.3592135466 368.522732493 -81 346 -81 c 0
 332 -81 320 -87 306 -87 c 0
 295.455497178 -87 286.659556625 -78.0854225782 286.659556625 -67.3986988316 c 0
 286.659556625 -63.6408891819 287.806260223 -60.071235688 290 -57 c 2
 319 -10 l 1
 152.957687432 6.00407831975 50 138.050183019 50 335 c 0
 50 543.77657922 172.79850395 680 361 680 c 0
 476.086107478 680 570.032884936 623.928998434 614 529 c 1
 532 499 l 1
 499.83149508 564.34227562 436.578951051 601 356 601 c 0
 227.657694098 601 146 497.56692081 146 335 c 0
 146 171.715854212 229.225660251 67 359 67 c 0
 440.264911081 67 503.107059801 103.214119601 536 169 c 1
 618 139 l 1
 573.106161598 46.2194006354 482.277639072 -7.9905080659 365 -12 c 1
 345 -45 l 1
 355.296120855 -42.1919670395 364.235873651 -41 375 -41 c 0
 416.427170097 -41 444 -65.3759800591 444 -102 c 0
EndSplineSet
EndChar

StartChar: ccedilla
Encoding: 231 231 203
Width: 500
GlyphClass: 2
Flags: W
HStem: -181 41<189.401 299.543> -87 149<222.887 297.608> -81 40<248.068 303.055> 430 74<197.126 346.098>
VStem: 38 91<142.452 350.669> 304 62<-134.092 -82.6367>
AnchorPoint: "Anchor-1" 274 -181 basechar 0
AnchorPoint: "Anchor-0" 275 496 basechar 0
LayerCount: 2
Fore
SplineSet
366 -102 m 0xbc
 366 -147.804294696 325.240716272 -181 269 -181 c 0
 243.699059412 -181 216.579447704 -174.836451885 181 -161 c 1
 195 -126 l 1
 219.400188503 -135.547899849 237.844603415 -140 253 -140 c 0
 283 -140 304 -126 304 -106 c 0
 304 -90.3592135466 290.522732493 -81 268 -81 c 0xbc
 254 -81 242 -87 228 -87 c 0
 217.774088644 -87 209 -77.7641172169 209 -67 c 0
 209 -63.1647284211 209.908033684 -60.1379494753 212 -57 c 2
 241 -11 l 1
 117.423917576 1.95555702835 38 102.507019181 38 246 c 0
 38 399.362681181 135.337040762 504 278 504 c 0
 358.438403182 504 427.739018245 462.493749267 465 392 c 1
 388 364 l 1
 366.013315376 404.975184981 322.030307161 430 272 430 c 0
 184.740267659 430 129 358.66804908 129 247 c 0
 129 135.870597044 186.099975012 62 272 62 c 0xdc
 323.215591979 62 367.096227936 86.171536756 390 127 c 1
 467 99 l 1
 430.250078796 35.432568728 364.522370815 -4.95876019886 288 -11 c 1
 267 -45 l 1
 277.296120855 -42.1919670395 286.235873651 -41 297 -41 c 0
 338.427170097 -41 366 -65.3759800591 366 -102 c 0xbc
EndSplineSet
EndChar

StartChar: Eth
Encoding: 208 208 248
AltUni2: 000110.ffffffff.0 000189.ffffffff.0
Width: 712
GlyphClass: 2
Flags: W
HStem: 0 79<209 437.832> 303 80<20 115 209 349> 589 79<209 437.477>
VStem: 115 94<79 303 383 589> 566 96<201.667 467.282>
AnchorPoint: "Anchor-1" 376 0 basechar 0
AnchorPoint: "Anchor-0" 366 668 basechar 0
LayerCount: 2
Fore
SplineSet
566 335 m 0
 566 515.946498842 488.057091284 589 295 589 c 2
 209 589 l 1
 209 383 l 1
 349 383 l 1
 349 303 l 1
 209 303 l 1
 209 79 l 1
 295 79 l 2
 488.861355743 79 566 151.868977601 566 335 c 0
662 335 m 0
 662 108.650547412 543.61955282 0 297 0 c 2
 115 0 l 1
 115 303 l 1
 20 303 l 1
 20 383 l 1
 115 383 l 1
 115 668 l 1
 297 668 l 2
 543.810847849 668 662 560.17263653 662 335 c 0
EndSplineSet
EndChar

StartChar: one.tf
Encoding: 1114115 -1 250
Width: 639
GlyphClass: 1
Flags: W
HStem: 0 77<109 287 370 530> 504 67<109 245.08> 648 20G<301.991 370>
VStem: 287 83<77 504> 314 56<628.449 668>
LayerCount: 2
Fore
SplineSet
109 571 m 1xf0
 230.912388538 571 289.982733307 598.950358257 314 668 c 1
 370 668 l 1xe8
 370 77 l 1
 530 77 l 1
 530 0 l 1
 109 0 l 1
 109 77 l 1
 287 77 l 1
 287 504 l 1
 109 504 l 1
 109 571 l 1xf0
EndSplineSet
Substitution2: "'pnum' Proportional Numbers lookup 13 subtable" one
Substitution2: "'aalt' Access All Alternates lookup 0 subtable" one
EndChar

StartChar: Aogonek
Encoding: 260 260 261
Width: 626
GlyphClass: 2
Flags: W
HStem: -173 58<532.179 614.139> 0 21G<10 116.986> 146 81<190 436> 574 95<261 366>
VStem: 458 70<-109.112 -35.0554>
DStem2: 10 0 110 0 0.351277 0.936272<35.1277 189.738 275.763 643.857> 366 669 313 574 0.350049 -0.936731<70.4369 438.539 524.565 679.181>
AnchorPoint: "Anchor-2" 615 0 basechar 0
AnchorPoint: "Anchor-1" 313 0 basechar 0
AnchorPoint: "Anchor-0" 313 668 basechar 0
LayerCount: 2
Fore
SplineSet
190 227 m 1
 436 227 l 1
 313 574 l 1
 190 227 l 1
577 -115 m 0
 588.383484193 -115 601.233926097 -112.29464381 615 -107 c 1
 615 -161 l 1
 592 -169 571 -173 552 -173 c 0
 496.987804319 -173 458 -138.98936219 458 -91 c 0
 458 -48.1997983873 489.774420718 -12.0563948207 538 0 c 1
 516 0 l 1
 465 146 l 1
 161 146 l 1
 110 0 l 1
 10 0 l 1
 261 669 l 1
 366 669 l 1
 616 0 l 1
 615 0 l 1
 555.728530588 -21.7328721178 528 -45.6367777971 528 -75 c 0
 528 -100.153274799 546.187238372 -115 577 -115 c 0
EndSplineSet
EndChar

StartChar: aogonek
Encoding: 261 261 262
Width: 526
GlyphClass: 2
Flags: W
HStem: -173 58<392.179 474.139> -12 67<158.307 314.832> 239 67<242.337 373> 437 67<186.889 334.88>
VStem: 38 93<79.7467 179.224> 318 70<-109.112 -35.0554> 373 85<304.72 397.764> 380 78<120.061 239>
AnchorPoint: "Anchor-2" 475 0 basechar 0
AnchorPoint: "Anchor-1" 263 0 basechar 0
AnchorPoint: "Anchor-0" 263 496 basechar 0
LayerCount: 2
Fore
SplineSet
131 133 m 0xf9
 131 85.0312454804 167.961532899 55 227 55 c 0
 325 55 380 110 380 208 c 2
 380 239 l 1
 196.510246769 220.052688525 131 192.16479231 131 133 c 0xf9
437 -115 m 0
 448.383484193 -115 461.233926097 -112.29464381 475 -107 c 1
 475 -161 l 1
 452 -169 431 -173 412 -173 c 0
 356.987804319 -173 318 -138.98936219 318 -91 c 0xfc
 318 -48.1997983873 349.774420718 -12.0563948207 398 0 c 1
 378 68 l 1
 345.792068067 14.6556127356 289.482086163 -12 209 -12 c 0
 107.678106709 -12 38 46.2688260782 38 131 c 0
 38 231.992537472 127.981894383 278.998004687 373 306 c 1
 373 315 l 2xfa
 373 396.348587025 335.680670055 437 261 437 c 0
 202 437 162 409 151 360 c 1
 70 384 l 1
 95.894975124 458.697043628 167.624656047 504 260 504 c 0
 396.962689255 504 458 442.037881516 458 303 c 2
 458 187 l 2xf9
 458 114.985471386 463.321968333 56.4438197209 475 0 c 1
 415.728530588 -21.7328721178 388 -45.6367777971 388 -75 c 0xfc
 388 -100.153274799 406.187238372 -115 437 -115 c 0
EndSplineSet
EndChar

StartChar: Eogonek
Encoding: 280 280 267
Width: 567
GlyphClass: 2
Flags: W
HStem: -173 58<423.179 505.139> 0 81<170 429 459.558 529> 303 81<170 435> 587 81<170 529>
VStem: 76 94<81 303 384 587> 349 70<-109.112 -35.0554>
AnchorPoint: "Anchor-2" 506 0 basechar 0
AnchorPoint: "Anchor-1" 284 0 basechar 0
AnchorPoint: "Anchor-0" 304 668 basechar 0
LayerCount: 2
Fore
SplineSet
468 -115 m 0
 479.383484193 -115 492.233926097 -112.29464381 506 -107 c 1
 506 -161 l 1
 483 -169 462 -173 443 -173 c 0
 387.987804319 -173 349 -138.98936219 349 -91 c 0
 349 -48.1997983873 380.774420718 -12.0563948207 429 0 c 1
 76 0 l 1
 76 668 l 1
 529 668 l 1
 529 587 l 1
 170 587 l 1
 170 384 l 1
 435 384 l 1
 435 303 l 1
 170 303 l 1
 170 81 l 1
 529 81 l 1
 529 0 l 1
 506 0 l 1
 446.728530588 -21.7328721178 419 -45.6367777971 419 -75 c 0
 419 -100.153274799 437.187238372 -115 468 -115 c 0
EndSplineSet
EndChar

StartChar: eogonek
Encoding: 281 281 268
Width: 539
GlyphClass: 2
Flags: W
HStem: -173 58<281.179 363.139> 225 67<129 421> 432 72<196.394 355.774>
VStem: 38 90<140.978 225 292 356.967> 207 70<-109.112 -34.8289> 421 90<292 361.963>
AnchorPoint: "Anchor-2" 365 0 basechar 0
AnchorPoint: "Anchor-1" 270 0 basechar 0
AnchorPoint: "Anchor-0" 281 496 basechar 0
LayerCount: 2
Fore
SplineSet
421 292 m 1
 421 369.943669826 358.057150824 432 279 432 c 0
 190.821344567 432 135.985859525 380.82021396 129 292 c 1
 421 292 l 1
326 -115 m 0
 337.383484193 -115 350.233926097 -112.29464381 364 -107 c 1
 364 -161 l 1
 341 -169 320 -173 301 -173 c 0
 245.987804319 -173 207 -138.98936219 207 -91 c 0
 207 -58.6993823848 226.284688771 -27.8438803507 257 -11 c 1
 124.776231494 -0.983047840527 38 101.246485153 38 247 c 0
 38 398.713806077 136.731411422 504 279 504 c 0
 413.133885427 504 511 396.853478011 511 250 c 0
 511 237.595917933 510.775255129 231.977296152 510 225 c 1
 128 225 l 1
 131.000206828 126.993243609 192.006134878 62 281 62 c 0
 332.379412669 62 371.692488733 78.6063855788 397 111 c 1
 478 87 l 1
 423 -1 333 1 295 -38 c 0
 282.841582427 -50.1584175724 277 -62.1661147838 277 -75 c 0
 277 -100.153274799 295.187238372 -115 326 -115 c 0
EndSplineSet
EndChar

StartChar: Iogonek
Encoding: 302 302 275
Width: 414
GlyphClass: 2
Flags: W
HStem: -173 58<190.179 272.139> 0 74<66 160 254.679 348> 594 74<66 160 254 348>
VStem: 116 70<-109.112 -35.0554> 160 94<74 594>
AnchorPoint: "Anchor-2" 273 0 basechar 0
AnchorPoint: "Anchor-1" 207 0 basechar 0
AnchorPoint: "Anchor-0" 207 668 basechar 0
LayerCount: 2
Fore
SplineSet
235 -115 m 0xf0
 246.383484193 -115 259.233926097 -112.29464381 273 -107 c 1
 273 -161 l 1
 250 -169 229 -173 210 -173 c 0
 154.987804319 -173 116 -138.98936219 116 -91 c 0xf0
 116 -48.1997983873 147.774420718 -12.0563948207 196 0 c 1
 66 0 l 1
 66 74 l 1
 160 74 l 1
 160 594 l 1
 66 594 l 1
 66 668 l 1
 348 668 l 1
 348 594 l 1
 254 594 l 1
 254 74 l 1xe8
 348 74 l 1
 348 0 l 1
 273 0 l 1
 213.728530588 -21.7328721178 186 -45.6367777971 186 -75 c 0
 186 -100.153274799 204.187238372 -115 235 -115 c 0xf0
EndSplineSet
EndChar

StartChar: iogonek
Encoding: 303 303 276
Width: 278
GlyphClass: 1
Flags: W
HStem: -173 58<115.179 197.139> 429 67<45 114> 590 125<109.2 203.707>
VStem: 41 70<-109.112 -35.0554> 94 125<605.369 699.8> 114 84<0 429>
LayerCount: 2
Fore
SplineSet
219 653 m 0xe8
 219 618 191 590 156 590 c 0
 121.77750275 590 94 618.225526988 94 653 c 0
 94 687 122 715 156 715 c 0
 191.282697173 715 219 687.72265436 219 653 c 0xe8
160 -115 m 0
 171.383484193 -115 184.233926097 -112.29464381 198 -107 c 1
 198 -161 l 1
 175 -169 154 -173 135 -173 c 0
 79.9878043188 -173 41 -138.98936219 41 -91 c 0
 41 -48.1997983869 72.7744207176 -12.0563948206 121 0 c 1
 114 0 l 1
 114 429 l 1
 45 429 l 1
 45 496 l 1
 198 496 l 1
 198 0 l 1
 138.728530588 -21.7328721178 111 -45.6367777971 111 -75 c 0xf4
 111 -100.153274799 129.187238372 -115 160 -115 c 0
EndSplineSet
EndChar

StartChar: Uogonek
Encoding: 370 370 289
Width: 690
GlyphClass: 2
Flags: W
HStem: -173 58<344.179 426.139> -11 80<247.879 320> 648 20G<76 170 520 614>
VStem: 76 94<153.883 668> 270 70<-109.112 -34.2692> 520 94<154.81 668>
AnchorPoint: "Anchor-2" 427 0 basechar 0
AnchorPoint: "Anchor-1" 345 0 basechar 0
AnchorPoint: "Anchor-0" 345 668 basechar 0
LayerCount: 2
Fore
SplineSet
389 -115 m 0
 400.383484193 -115 413.233926097 -112.29464381 427 -107 c 1
 427 -161 l 1
 404 -169 383 -173 364 -173 c 0
 308.987804319 -173 270 -138.98936219 270 -91 c 0
 270 -58.6993823848 289.284688771 -27.8438803507 320 -11 c 1
 151.856279734 -2.99315617781 76 87.1638976044 76 279 c 2
 76 668 l 1
 170 668 l 1
 170 272 l 2
 170 131.819939056 224.155119876 69 345 69 c 0
 465.844880124 69 520 131.819939056 520 272 c 2
 520 668 l 1
 614 668 l 1
 614 279 l 2
 614 99.8437143566 548.875420548 9.9843186703 406 -8 c 1
 361.573070001 -26.7580371104 340 -48.6579718086 340 -75 c 0
 340 -100.153274799 358.187238372 -115 389 -115 c 0
EndSplineSet
EndChar

StartChar: uogonek
Encoding: 371 371 290
Width: 536
GlyphClass: 1
Flags: W
HStem: -173 58<383.179 465.139> -12 74<188.532 321.335> 477 20G<68 152 382 466>
VStem: 68 84<101.002 497> 309 70<-109.112 -35.0459> 382 84<120.799 497>
LayerCount: 2
Fore
SplineSet
428 -115 m 0
 439.383484193 -115 452.233926097 -112.29464381 466 -107 c 1
 466 -161 l 1
 443 -169 422 -173 403 -173 c 0
 347.987804319 -173 309 -138.98936219 309 -91 c 0
 309 -44 340 -13 402 2 c 1
 382 72 l 1
 368 48 349 28 325 12 c 0
 301.096676835 -3.93554877673 268.16683434 -12 227 -12 c 0
 121.914045157 -12 68 53.1037526424 68 180 c 2
 68 497 l 1
 152 497 l 1
 152 200 l 2
 152 103.067295043 182.949265829 62 256 62 c 0
 336.944453466 62 382 119.928559829 382 224 c 2
 382 497 l 1
 466 497 l 1
 466 0 l 1
 406.728530588 -21.7328721178 379 -45.6367777971 379 -75 c 0
 379 -100.153274799 397.187238372 -115 428 -115 c 0
EndSplineSet
EndChar

StartChar: Hbar
Encoding: 294 294 299
Width: 710
GlyphClass: 2
Flags: W
HStem: 0 21G<86 180 530 624> 303 81<180 530> 504 77<10 86 180 530 624 700> 648 20G<86 180 530 624>
VStem: 86 94<0 303 384 504 581 668> 530 94<0 303 384 504 581 668>
AnchorPoint: "Anchor-1" 355 0 basechar 0
AnchorPoint: "Anchor-0" 355 668 basechar 0
LayerCount: 2
Fore
SplineSet
180 384 m 1
 530 384 l 1
 530 504 l 1
 180 504 l 1
 180 384 l 1
86 0 m 1
 86 504 l 1
 10 504 l 1
 10 581 l 1
 86 581 l 1
 86 668 l 1
 180 668 l 1
 180 581 l 1
 530 581 l 1
 530 668 l 1
 624 668 l 1
 624 581 l 1
 700 581 l 1
 700 504 l 1
 624 504 l 1
 624 0 l 1
 530 0 l 1
 530 303 l 1
 180 303 l 1
 180 0 l 1
 86 0 l 1
EndSplineSet
EndChar

StartChar: hbar
Encoding: 295 295 300
Width: 581
GlyphClass: 1
Flags: W
HStem: 0 21G<105 189 429 513> 432 72<253.189 392.626> 548 67<20 105 189 349> 648 20G<105 189>
VStem: 105 84<0 369.554 421 548 615 668> 429 84<0 392.904>
LayerCount: 2
Fore
SplineSet
349 504 m 0
 458.916787168 504 513 441.34261928 513 314 c 2
 513 0 l 1
 429 0 l 1
 429 289 l 2
 429 392.321383123 398.755459863 432 320 432 c 0
 236.208466883 432 189 373.259693879 189 269 c 2
 189 0 l 1
 105 0 l 1
 105 548 l 1
 20 548 l 1
 20 615 l 1
 105 615 l 1
 105 668 l 1
 189 668 l 1
 189 615 l 1
 349 615 l 1
 349 548 l 1
 189 548 l 1
 189 421 l 1
 222.220874425 476.368124041 275.487141334 504 349 504 c 0
EndSplineSet
EndChar

StartChar: dcroat
Encoding: 273 273 319
Width: 603
GlyphClass: 1
Flags: W
HStem: -12 72<199.577 344.855> 0 21G<428.133 513> 432 72<199.493 345.809> 548 67<249 412 496 578> 648 20G<412 496>
VStem: 38 94<136.225 355.884> 412 84<133.244 359.468 418 548 615 668>
LayerCount: 2
Fore
SplineSet
273 432 m 0xbe
 185.032255383 432 132 362.042556729 132 246 c 0
 132 130.456872904 185.410855266 60 273 60 c 0
 360.589144734 60 414 130.456872904 414 246 c 0
 414 362.042556729 360.967744617 432 273 432 c 0xbe
412 75 m 1
 381.100383781 18.1845766298 325.241569558 -12 251 -12 c 0xbe
 126.168557456 -12 38 94.7957174819 38 246 c 0
 38 397.204282518 126.168557456 504 251 504 c 0
 324.419729173 504 379.744078115 474.447863298 412 418 c 1
 412 548 l 1
 249 548 l 1
 249 615 l 1
 412 615 l 1
 412 668 l 1
 496 668 l 1
 496 615 l 1
 578 615 l 1
 578 548 l 1
 496 548 l 1
 496 187 l 2
 496 114.47516311 500.567170819 64.2362840993 513 0 c 1
 434 0 l 1x7e
 412 75 l 1
EndSplineSet
EndChar

StartChar: Scedilla
Encoding: 350 350 327
Width: 596
GlyphClass: 2
Flags: W
HStem: -181 41<217.401 327.543> -81 40<276.068 331.055> -12 79<315 393.987> 601 79<197.36 381.837>
VStem: 46 97<442.201 553.094> 332 62<-134.092 -82.6367> 457 99<121.433 241.044>
DStem2: 286 392 238 313 0.975916 -0.218146<-126.856 168.386>
AnchorPoint: "Anchor-1" 302 -181 basechar 0
AnchorPoint: "Anchor-0" 298 668 basechar 0
LayerCount: 2
Fore
SplineSet
394 -102 m 0
 394 -147.804294696 353.240716272 -181 297 -181 c 0
 271.699059412 -181 244.579447704 -174.836451885 209 -161 c 1
 223 -126 l 1
 247.400188503 -135.547899849 265.844603415 -140 281 -140 c 0
 311 -140 332 -126 332 -106 c 0
 332 -90.3592135466 318.522732493 -81 296 -81 c 0
 282 -81 270 -87 256 -87 c 0
 245.774088644 -87 237 -77.7641172169 237 -67 c 0
 237 -63.1647284211 237.908033684 -60.1379494753 240 -57 c 2
 269 -11 l 1
 156.031960988 -3.00226272475 70.0084911111 55.9745266667 40 146 c 1
 127 172 l 1
 148.987690408 107.03636925 214.952374981 67 300 67 c 0
 393.836195435 67 457 114.875749957 457 186 c 0
 457 239.992537611 421.013547678 268.99654396 323 294 c 1
 238 313 l 1
 101.101762098 348.973259595 46 402.927068316 46 501 c 0
 46 604.008163396 150.011173006 680 291 680 c 0
 397.384312644 680 485.13655889 632.719694911 523 555 c 1
 437 530 l 1
 413.973732327 573.049109129 354.92255443 601 287 601 c 0
 202.269052471 601 143 558.194573216 143 497 c 0
 143 443.216520365 178.566446227 417.101297611 286 392 c 1
 359 376 l 1
 497.739710102 342.823112802 556 285.45003544 556 182 c 0
 556 76.1514078378 455.20066343 -4.98996682851 315 -12 c 1
 295 -45 l 1
 305.296120855 -42.1919670395 314.235873651 -41 325 -41 c 0
 366.427170097 -41 394 -65.3759800591 394 -102 c 0
EndSplineSet
Substitution2: "'locl' Localized Forms in Latin lookup 8 subtable" uni0218
Substitution2: "'aalt' Access All Alternates lookup 0 subtable" uni0218
EndChar

StartChar: scedilla
Encoding: 351 351 328
Width: 471
GlyphClass: 2
Flags: W
HStem: -181 41<149.401 259.543> -81 40<208.068 263.055> -12 71<247 320.491> 434 71<151.191 305.417>
VStem: 41 85<325.315 409.404> 264 62<-134.092 -82.6367> 356 85<90.7326 182.902>
DStem2: 218 299 177 231 0.980031 -0.198847<-87.1902 144.809>
AnchorPoint: "Anchor-1" 234 -181 basechar 0
AnchorPoint: "Anchor-0" 240 496 basechar 0
LayerCount: 2
Fore
SplineSet
326 -102 m 0
 326 -147.804294696 285.240716272 -181 229 -181 c 0
 203.699059412 -181 176.579447704 -174.836451885 141 -161 c 1
 155 -126 l 1
 179.400188503 -135.547899849 197.844603415 -140 213 -140 c 0
 243 -140 264 -126 264 -106 c 0
 264 -90.3592135466 250.522732493 -81 228 -81 c 0
 214 -81 202 -87 188 -87 c 0
 177.774088644 -87 169 -77.7641172169 169 -67 c 0
 169 -63.1647284211 169.908033684 -60.1379494753 172 -57 c 2
 202 -10 l 1
 121.045550892 0.993814076491 58.0152046761 45.9628330141 31 112 c 1
 112 142 l 1
 125.096490782 90.621459239 173.481133232 59 239 59 c 0
 305.202825137 59 356 91.1281276911 356 133 c 0
 356 178.04546763 325.919378053 201.016124389 246 217 c 2
 177 231 l 1
 82 252 41 293 41 367 c 0
 41 446.738394481 121.637439523 505 232 505 c 0
 321.00990124 505 391.003002927 466.99299317 418 404 c 1
 339 375 l 1
 322.992316732 411.017287354 278.974578952 434 226 434 c 0
 168.211963014 434 126 406.140104411 126 368 c 0
 126 331.749522954 152.451192191 311.911128811 218 299 c 2
 283 286 l 2
 394.78156396 264.042907079 441 220.164645016 441 136 c 0
 441 52.8968809867 359.860028188 -9.00371606581 247 -12 c 1
 227 -45 l 1
 237.296120855 -42.1919670395 246.235873651 -41 257 -41 c 0
 298.427170097 -41 326 -65.3759800591 326 -102 c 0
EndSplineSet
Substitution2: "'locl' Localized Forms in Latin lookup 8 subtable" uni0219
Substitution2: "'aalt' Access All Alternates lookup 0 subtable" uni0219
EndChar

StartChar: uni0162
Encoding: 354 354 330
Width: 558
GlyphClass: 2
Flags: W
HStem: -181 41<198.401 308.543> -81 40<257.068 312.055> 587 81<10 232 326 548>
VStem: 232 94<0 587> 313 62<-134.092 -82.6367>
AnchorPoint: "Anchor-1" 269 -250 basechar 0
AnchorPoint: "Anchor-0" 279 668 basechar 0
LayerCount: 2
Fore
SplineSet
375 -102 m 0xe8
 375 -147.804294696 334.240716272 -181 278 -181 c 0
 252.699059412 -181 225.579447704 -174.836451885 190 -161 c 1
 204 -126 l 1
 228.400188503 -135.547899849 246.844603415 -140 262 -140 c 0
 292 -140 313 -126 313 -106 c 0xe8
 313 -90.3592135466 299.522732493 -81 277 -81 c 0
 263 -81 251 -87 237 -87 c 0
 226.774088644 -87 218 -77.7641172169 218 -67 c 0
 218 -63.1647284211 218.908033684 -60.1379494753 221 -57 c 2
 256 -0 l 1
 232 0 l 1
 232 587 l 1
 10 587 l 1
 10 668 l 1
 548 668 l 1
 548 587 l 1
 326 587 l 1
 326 0 l 1xf0
 304 0 l 1
 276 -45 l 1
 286.296120855 -42.1919670395 295.235873651 -41 306 -41 c 0
 347.427170097 -41 375 -65.3759800591 375 -102 c 0xe8
EndSplineSet
Substitution2: "'locl' Localized Forms in Latin lookup 8 subtable" uni021A
Substitution2: "'aalt' Access All Alternates lookup 0 subtable" uni021A
EndChar

StartChar: acutecomb
Encoding: 769 769 332
Width: 162
GlyphClass: 4
Flags: W
HStem: 571 136<88.5331 95.2746>
VStem: 0 162
AnchorPoint: "Anchor-4" 81 707 basemark 0
AnchorPoint: "Anchor-4" 47 496 mark 0
AnchorPoint: "Anchor-0" 47 496 mark 0
LayerCount: 2
Fore
SplineSet
124 707 m 0
 146 707 162 691 162 669 c 0
 162 650.874712619 147.603653045 634.678822294 90 588 c 0
 79.7721634506 579.631770096 72.169541083 573.169541084 70 571 c 1
 0 571 l 1
 65.3179461246 656.809850791 88.457840643 686.457840643 96 694 c 0
 102.891747488 702.860818199 111.80690829 707 124 707 c 0
EndSplineSet
Substitution2: "'case' Case-Sensitive Forms lookup 15 subtable" acutecomb.case
Substitution2: "Single Substitution lookup 7 subtable" acutecomb.case
Substitution2: "Single Substitution lookup 6 subtable" acutecomb.case
Substitution2: "Single Substitution lookup 4 subtable" acutecomb.case
Substitution2: "Single Substitution lookup 3 subtable" acutecomb.case
Substitution2: "'aalt' Access All Alternates lookup 0 subtable" acutecomb.case
EndChar

StartChar: acutecomb.case
Encoding: 1114124 -1 333
Width: 0
GlyphClass: 4
Flags: W
HStem: 744 120
VStem: 0 172
AnchorPoint: "Anchor-4" 86 864 basemark 0
AnchorPoint: "Anchor-4" 58 668 mark 0
AnchorPoint: "Anchor-0" 58 668 mark 0
LayerCount: 2
Fore
SplineSet
136 864 m 0
 156 864 172 848 172 828 c 0
 172 806.077822995 159.22858994 794.135725277 95 756 c 0
 84 750 78 745 76 744 c 1
 0 744 l 1
 8 752 91 839 107 852 c 0
 115.855419364 859.871483879 125.832666656 864 136 864 c 0
EndSplineSet
EndChar

StartChar: uni0306
Encoding: 774 774 334
Width: 294
GlyphClass: 4
Flags: W
HStem: 569 67<91.5743 201.521>
VStem: 0 294
AnchorPoint: "Anchor-4" 147 689 basemark 0
AnchorPoint: "Anchor-4" 147 496 mark 0
AnchorPoint: "Anchor-0" 147 496 mark 0
LayerCount: 2
Fore
SplineSet
294 689 m 1
 279.975601002 618.878005008 218.875044867 569 147 569 c 0
 75.0124995442 569 15.0026051662 617.98766888 0 689 c 1
 69 689 l 1
 82.1731605746 656.573758586 112.451522267 636 147 636 c 0
 180.047184339 636 211.019948244 657.045595987 225 689 c 1
 294 689 l 1
EndSplineSet
Substitution2: "'case' Case-Sensitive Forms lookup 15 subtable" uni0306.case
Substitution2: "Single Substitution lookup 7 subtable" uni0306.case
Substitution2: "Single Substitution lookup 6 subtable" uni0306.case
Substitution2: "Single Substitution lookup 4 subtable" uni0306.case
Substitution2: "Single Substitution lookup 3 subtable" uni0306.case
Substitution2: "'aalt' Access All Alternates lookup 0 subtable" uni0306.case
EndChar

StartChar: uni030C
Encoding: 780 780 336
Width: 323
GlyphClass: 4
Flags: W
HStem: 569 120
VStem: 0 323
DStem2: 94 689 0 689 0.742634 -0.669697<0 90.608> 161 628 211 588 0.742634 0.669697<0 91.3507>
AnchorPoint: "Anchor-4" 162 689 basemark 0
AnchorPoint: "Anchor-4" 162 496 mark 0
AnchorPoint: "Anchor-0" 162 496 mark 0
LayerCount: 2
Fore
SplineSet
162 569 m 0
 141.390311605 569 124.6317445 575.3682555 112 588 c 2
 0 689 l 1
 94 689 l 1
 161 628 l 1
 229 689 l 1
 323 689 l 1
 211 588 l 2
 198.478749315 575.478749315 181.770395818 569 162 569 c 0
EndSplineSet
Substitution2: "'case' Case-Sensitive Forms lookup 15 subtable" uni030C.case
Substitution2: "Single Substitution lookup 7 subtable" uni030C.case
Substitution2: "Single Substitution lookup 6 subtable" uni030C.case
Substitution2: "Single Substitution lookup 4 subtable" uni030C.case
Substitution2: "Single Substitution lookup 3 subtable" uni030C.case
Substitution2: "'aalt' Access All Alternates lookup 0 subtable" uni030C.case
EndChar

StartChar: uni030C.alt
Encoding: 1114126 -1 337
Width: 0
GlyphClass: 1
Flags: W
HStem: 495 183<48.6391 69>
VStem: 46 74<575.156 674.688>
LayerCount: 2
Fore
SplineSet
82 678 m 0
 104 678 120 662 120 640 c 0
 120 631 115 623 111 609 c 1
 69 495 l 1
 20 495 l 1
 22 506 38 626 46 649 c 0
 49.9879108005 665.948620903 64.9482434728 678 82 678 c 0
EndSplineSet
EndChar

StartChar: uni0327
Encoding: 807 807 339
Width: 0
GlyphClass: 4
Flags: W
HStem: -181 41<8.40051 118.543> -81 40<67.0682 122.055>
VStem: 123 62<-134.092 -82.6367>
DStem2: 31 -57 86 -45 0.528136 0.84916<39.2374 96.566>
AnchorPoint: "Anchor-3" 93 -181 basemark 0
AnchorPoint: "Anchor-3" 89 0 mark 0
AnchorPoint: "Anchor-1" 89 0 mark 0
LayerCount: 2
Fore
SplineSet
185 -102 m 0
 185 -147.804294696 144.240716272 -181 88 -181 c 0
 62.6990594131 -181 35.579447705 -174.836451885 0 -161 c 1
 14 -126 l 1
 38.4001885017 -135.547899849 56.8446034149 -140 72 -140 c 0
 102 -140 123 -126 123 -106 c 0
 123 -90.3592135466 109.522732493 -81 87 -81 c 0
 73 -81 61 -87 47 -87 c 0
 36.7740886439 -87 28 -77.7641172169 28 -67 c 0
 28 -63.1647284201 28.9080336837 -60.1379494745 31 -57 c 2
 82 25 l 1
 116 4 l 1
 86 -45 l 1
 96.2961208554 -42.1919670394 105.235873651 -41 116 -41 c 0
 157.427170097 -41 185 -65.3759800591 185 -102 c 0
EndSplineSet
EndChar

StartChar: uni0302
Encoding: 770 770 340
Width: 323
GlyphClass: 4
Flags: W
HStem: 575 120
VStem: 0 323
DStem2: 0 575 94 575 0.742634 0.669697<69.8076 160.416> 323 575 161 636 0.742634 -0.669697<-161.158 -69.8076>
AnchorPoint: "Anchor-4" 162 695 basemark 0
AnchorPoint: "Anchor-4" 162 496 mark 0
AnchorPoint: "Anchor-0" 162 496 mark 0
LayerCount: 2
Fore
SplineSet
0 575 m 1
 112 676 l 2
 124.6317445 688.6317445 141.390311605 695 162 695 c 0
 181.770395818 695 198.478749315 688.521250685 211 676 c 2
 323 575 l 1
 229 575 l 1
 161 636 l 1
 94 575 l 1
 0 575 l 1
EndSplineSet
Substitution2: "'case' Case-Sensitive Forms lookup 15 subtable" uni0302.case
Substitution2: "Single Substitution lookup 7 subtable" uni0302.case
Substitution2: "Single Substitution lookup 6 subtable" uni0302.case
Substitution2: "Single Substitution lookup 4 subtable" uni0302.case
Substitution2: "Single Substitution lookup 3 subtable" uni0302.case
Substitution2: "'aalt' Access All Alternates lookup 0 subtable" uni0302.case
EndChar

StartChar: uni0302.case
Encoding: 1114128 -1 341
Width: 0
GlyphClass: 4
Flags: W
HStem: 747 120
VStem: 0 323
DStem2: 0 747 94 747 0.742634 0.669697<69.8076 160.416> 323 747 161 808 0.742634 -0.669697<-161.158 -69.8076>
AnchorPoint: "Anchor-4" 162 867 basemark 0
AnchorPoint: "Anchor-4" 162 668 mark 0
AnchorPoint: "Anchor-0" 162 668 mark 0
LayerCount: 2
Fore
SplineSet
0 747 m 1
 112 848 l 2
 124.6317445 860.6317445 141.390311605 867 162 867 c 0
 181.770395818 867 198.478749315 860.521250685 211 848 c 2
 323 747 l 1
 229 747 l 1
 161 808 l 1
 94 747 l 1
 0 747 l 1
EndSplineSet
EndChar

StartChar: uni0326
Encoding: 806 806 342
Width: 0
GlyphClass: 4
Flags: W
HStem: -250 34<40 68.4232>
VStem: 94 66<-195.943 -98.1528>
AnchorPoint: "Anchor-3" 80 -250 basemark 0
AnchorPoint: "Anchor-3" 90 0 mark 0
AnchorPoint: "Anchor-1" 90 0 mark 0
LayerCount: 2
Fore
SplineSet
104 -56 m 1
 140.034824226 -75.0183794529 160 -106.035706101 160 -143 c 0
 160 -206.154245447 110.827191156 -250 40 -250 c 1
 0 -216 l 1
 61.1522651908 -216 94 -191.888364874 94 -147 c 0
 94 -116.049980059 77.0534193543 -94.0194252197 44 -82 c 1
 104 -56 l 1
EndSplineSet
EndChar

StartChar: uni0308
Encoding: 776 776 343
Width: 319
GlyphClass: 4
Flags: W
HStem: 590 107<10.7424 97.324 223.079 308.324>
VStem: 0 108<600.676 685.987> 212 107<600.742 686.685>
AnchorPoint: "Anchor-4" 160 697 basemark 0
AnchorPoint: "Anchor-4" 160 496 mark 0
AnchorPoint: "Anchor-0" 160 496 mark 0
LayerCount: 2
Fore
SplineSet
319 644 m 0
 319 614 295 590 265 590 c 0
 235.777456182 590 212 614.226087431 212 644 c 0
 212 674 235 697 265 697 c 0
 295.783323729 697 319 674.213262178 319 644 c 0
108 644 m 0
 108 614 84 590 54 590 c 0
 24 590 0 614 0 644 c 0
 0 673.222543818 24.2260874307 697 54 697 c 0
 84.7833237287 697 108 674.213262178 108 644 c 0
EndSplineSet
Substitution2: "'case' Case-Sensitive Forms lookup 15 subtable" uni0308.case
Substitution2: "Single Substitution lookup 7 subtable" uni0308.case
Substitution2: "Single Substitution lookup 6 subtable" uni0308.case
Substitution2: "Single Substitution lookup 4 subtable" uni0308.case
Substitution2: "Single Substitution lookup 3 subtable" uni0308.case
Substitution2: "'aalt' Access All Alternates lookup 0 subtable" uni0308.case
EndChar

StartChar: uni0307
Encoding: 775 775 345
Width: 108
GlyphClass: 4
Flags: W
HStem: 590 108<10.676 96.8458>
VStem: 0 108<600.676 686.846>
AnchorPoint: "Anchor-4" 54 698 basemark 0
AnchorPoint: "Anchor-4" 54 496 mark 0
AnchorPoint: "Anchor-0" 54 496 mark 0
LayerCount: 2
Fore
SplineSet
108 644 m 0
 108 614 84 590 54 590 c 0
 24 590 0 614 0 644 c 0
 0 674 24 698 54 698 c 0
 85 698 108 675 108 644 c 0
EndSplineSet
Substitution2: "'case' Case-Sensitive Forms lookup 15 subtable" uni0307.case
Substitution2: "Single Substitution lookup 7 subtable" uni0307.case
Substitution2: "Single Substitution lookup 6 subtable" uni0307.case
Substitution2: "Single Substitution lookup 4 subtable" uni0307.case
Substitution2: "Single Substitution lookup 3 subtable" uni0307.case
Substitution2: "'aalt' Access All Alternates lookup 0 subtable" uni0307.case
EndChar

StartChar: Euro
Encoding: 8364 8364 347
Width: 664
GlyphClass: 1
Flags: W
HStem: -12 79<301.331 474.335> 240 51<43 100 197 343> 377 51<43 100 197 418> 500 21G<529.553 600.714> 601 79<296.71 471.612>
VStem: 106 91<183.503 240 428 490.745>
LayerCount: 2
Fore
SplineSet
626 139 m 1
 581.005273188 42.0113666504 493.0132454 -12 380 -12 c 0
 236.059518134 -12 135.011998496 80.9342151415 106 240 c 1
 15 240 l 1
 43 291 l 1
 100 291 l 1
 100 377 l 1
 15 377 l 1
 43 428 l 1
 106 428 l 1
 135.981272011 585.901365924 240.908717151 680 387 680 c 0
 492.526809707 680 578.801396335 624.433317087 623 528 c 1
 545 500 l 1
 514.105589931 565.775195631 457.257638326 601 382 601 c 0
 289.719458191 601 220.92735962 536.670091606 197 428 c 1
 446 428 l 1
 418 377 l 1
 189 377 l 1
 189 291 l 1
 371 291 l 1
 343 240 l 1
 197 240 l 1
 223.92162838 130.319291787 292.731032171 67 385 67 c 0
 459.80012925 67 516.914153673 101.825624648 549 167 c 1
 626 139 l 1
EndSplineSet
EndChar

StartChar: uni2074
Encoding: 8308 8308 348
Width: 412
GlyphClass: 1
Flags: W
HStem: 489 57<113 225 293 358>
VStem: 225 68<403 489 546 692>
DStem2: 40 543 113 546 0.618997 0.785394<47.5429 231.538>
LayerCount: 2
Fore
SplineSet
113 546 m 1
 225 546 l 1
 225 692 l 1
 113 546 l 1
225 403 m 1
 225 489 l 1
 40 489 l 1
 40 543 l 1
 226 779 l 1
 293 779 l 1
 293 546 l 1
 358 546 l 1
 358 489 l 1
 293 489 l 1
 293 403 l 1
 225 403 l 1
EndSplineSet
EndChar

StartChar: gravecomb
Encoding: 768 768 349
Width: 162
GlyphClass: 4
Flags: W
HStem: 571 136
VStem: 0 162
AnchorPoint: "Anchor-4" 81 707 basemark 0
AnchorPoint: "Anchor-4" 108 496 mark 0
AnchorPoint: "Anchor-0" 108 496 mark 0
LayerCount: 2
Fore
SplineSet
0 669 m 0
 0 691 16 707 38 707 c 0
 50.8338852158 707 60.8943882848 702.132014644 69 692 c 2
 162 571 l 1
 92 571 l 1
 2.55935126398 646.371333204 0 649.097598681 0 669 c 0
EndSplineSet
Substitution2: "'case' Case-Sensitive Forms lookup 15 subtable" gravecomb.case
Substitution2: "Single Substitution lookup 7 subtable" gravecomb.case
Substitution2: "Single Substitution lookup 6 subtable" gravecomb.case
Substitution2: "Single Substitution lookup 4 subtable" gravecomb.case
Substitution2: "Single Substitution lookup 3 subtable" gravecomb.case
Substitution2: "'aalt' Access All Alternates lookup 0 subtable" gravecomb.case
EndChar

StartChar: gravecomb.case
Encoding: 1114131 -1 350
Width: 0
GlyphClass: 4
Flags: W
HStem: 744 120<62.7388 75.2812>
VStem: 0 173
AnchorPoint: "Anchor-4" 87 864 basemark 0
AnchorPoint: "Anchor-4" 122 668 mark 0
AnchorPoint: "Anchor-0" 122 668 mark 0
LayerCount: 2
Fore
SplineSet
0 828 m 0
 0 848 16 864 36 864 c 0
 49.7322098654 864 58.8391438522 860.180963167 67 851 c 2
 173 744 l 1
 97 744 l 1
 96 745 38 779 16 796 c 0
 5.418898916 804.657264523 0 815.495062355 0 828 c 0
EndSplineSet
EndChar

StartChar: uni030B
Encoding: 779 779 351
Width: 308
GlyphClass: 4
Flags: W
HStem: 572 136<146 146>
VStem: 0 308
AnchorPoint: "Anchor-4" 154 708 basemark 0
AnchorPoint: "Anchor-4" 114 496 mark 0
AnchorPoint: "Anchor-0" 114 496 mark 0
LayerCount: 2
Fore
SplineSet
270 708 m 0
 290 708 308 690 308 670 c 0
 308 657.67956146 304.799989867 649.824991134 297 643 c 2
 216 572 l 1
 146 572 l 1
 242 695 l 2
 248.891747488 703.860818199 257.80690829 708 270 708 c 0
124 708 m 0
 146 708 162 692 162 670 c 0
 162 657.67956146 158.799989867 649.824991134 151 643 c 2
 70 572 l 1
 0 572 l 1
 96 695 l 2
 102.891747488 703.860818199 111.80690829 708 124 708 c 0
EndSplineSet
Substitution2: "'case' Case-Sensitive Forms lookup 15 subtable" uni030B.case
Substitution2: "Single Substitution lookup 7 subtable" uni030B.case
Substitution2: "Single Substitution lookup 6 subtable" uni030B.case
Substitution2: "Single Substitution lookup 4 subtable" uni030B.case
Substitution2: "Single Substitution lookup 3 subtable" uni030B.case
Substitution2: "'aalt' Access All Alternates lookup 0 subtable" uni030B.case
EndChar

StartChar: dotlessi
Encoding: 305 305 353
Width: 274
GlyphClass: 2
Flags: W
HStem: 0 21G<112 196> 429 67<43 112>
VStem: 112 84<0 429>
AnchorPoint: "Anchor-2" 248 10 basechar 0
AnchorPoint: "Anchor-1" 137 0 basechar 0
AnchorPoint: "Anchor-0" 132 496 basechar 0
LayerCount: 2
Fore
SplineSet
112 0 m 1
 112 429 l 1
 43 429 l 1
 43 496 l 1
 196 496 l 1
 196 0 l 1
 112 0 l 1
EndSplineSet
EndChar

StartChar: uni0304
Encoding: 772 772 354
Width: 276
GlyphClass: 4
Flags: W
HStem: 601 67<0 276>
VStem: 0 276<601 668>
AnchorPoint: "Anchor-4" 138 668 basemark 0
AnchorPoint: "Anchor-4" 138 496 mark 0
AnchorPoint: "Anchor-0" 138 496 mark 0
LayerCount: 2
Fore
SplineSet
0 601 m 1
 0 668 l 1
 276 668 l 1
 276 601 l 1
 0 601 l 1
EndSplineSet
Substitution2: "'case' Case-Sensitive Forms lookup 15 subtable" uni0304.case
Substitution2: "Single Substitution lookup 7 subtable" uni0304.case
Substitution2: "Single Substitution lookup 6 subtable" uni0304.case
Substitution2: "Single Substitution lookup 4 subtable" uni0304.case
Substitution2: "Single Substitution lookup 3 subtable" uni0304.case
Substitution2: "'aalt' Access All Alternates lookup 0 subtable" uni0304.case
EndChar

StartChar: mu
Encoding: 181 181 356
Width: 555
GlyphClass: 1
Flags: W
HStem: -162 21G<70 154> -11 72<190.671 327.576> 0 75<472.955 539.256> 476 20G<70 154 385 469>
VStem: 70 84<-162 20.9923 100.614 496> 385 84<125.215 496>
LayerCount: 2
Fore
SplineSet
139 24 m 1xdc
 151.991598714 -40.9579935711 154 -54.7490157321 154 -79 c 2
 154 -162 l 1
 70 -162 l 1
 70 496 l 1
 154 496 l 1
 154 198 l 2
 154 103.325176336 186.747946654 61 260 61 c 0xdc
 339.142916866 61 385 125.199916388 385 236 c 2
 385 496 l 1
 469 496 l 1
 469 122 l 2
 469 87.3040943762 479.733358924 75 510 75 c 0
 516.035759956 75 523.171392035 75.7928480088 528 77 c 2
 540 80 l 1
 540 7 l 1
 512 1.4 500 0 480 0 c 0xbc
 435.641639621 0 403.192129113 26.3201585231 390 73 c 1
 358.741186123 17.5408140896 307.435675081 -11 239 -11 c 0
 198.142734285 -11 164.087794737 0.919228841792 139 24 c 1xdc
EndSplineSet
EndChar

StartChar: uni0328
Encoding: 808 808 357
Width: 157
GlyphClass: 4
Flags: W
HStem: -173 58<74.1793 156.139> -20 20G<55.8872 157>
VStem: 0 70<-109.112 -35.0554>
AnchorPoint: "Anchor-2" 157 0 mark 0
LayerCount: 2
Fore
SplineSet
119 -115 m 0
 130.383484193 -115 143.233926097 -112.29464381 157 -107 c 1
 157 -161 l 1
 134 -169 113 -173 94 -173 c 0
 38.9878043188 -173 0 -138.98936219 0 -91 c 0
 0 -48.1997983869 31.7744207176 -12.0563948206 80 0 c 1
 157 0 l 1
 97.7285305879 -21.7328721178 70 -45.636777797 70 -75 c 0
 70 -100.153274799 88.1872383713 -115 119 -115 c 0
EndSplineSet
Substitution2: "'case' Case-Sensitive Forms lookup 15 subtable" uni0328.case
Substitution2: "Single Substitution lookup 7 subtable" uni0328.case
Substitution2: "Single Substitution lookup 6 subtable" uni0328.case
Substitution2: "Single Substitution lookup 4 subtable" uni0328.case
Substitution2: "Single Substitution lookup 3 subtable" uni0328.case
Substitution2: "'aalt' Access All Alternates lookup 0 subtable" uni0328.case
EndChar

StartChar: uni0328.case
Encoding: 1114134 -1 358
Width: 0
GlyphClass: 4
Flags: W
HStem: -173 58<74.1602 156.139> -20 20G<38.3845 157>
VStem: 0 70<-109.07 -32.8258>
AnchorPoint: "Anchor-2" 157 0 mark 0
LayerCount: 2
Fore
SplineSet
0 -91 m 0
 0 -51.6085685331 19.769067963 -20.047424943 57 0 c 1
 157 0 l 1
 93.5730232069 -23.1558804165 70 -43.2064978569 70 -74 c 0
 70 -99.9693961176 87.96340464 -115 119 -115 c 0
 130.383484193 -115 143.233926097 -112.29464381 157 -107 c 1
 157 -161 l 1
 134 -169 113 -173 94 -173 c 0
 38.9878043188 -173 0 -138.98936219 0 -91 c 0
EndSplineSet
EndChar

StartChar: uni030A
Encoding: 778 778 359
Width: 218
GlyphClass: 4
Flags: W
HStem: 559 58<67.1682 151.074> 719 58<67.1682 151.074>
VStem: 0 57<627.195 708.805> 161 57<626.966 709.034>
AnchorPoint: "Anchor-4" 109 777 basemark 0
AnchorPoint: "Anchor-4" 109 496 mark 0
AnchorPoint: "Anchor-0" 109 496 mark 0
LayerCount: 2
Fore
SplineSet
57 668 m 0
 57 639.278315609 79.7151453268 617 109 617 c 0
 138.284854673 617 161 639.278315609 161 668 c 0
 161 696.721684391 138.284854673 719 109 719 c 0
 79.7151453268 719 57 696.721684391 57 668 c 0
218 668 m 0
 218 606.939240579 170.940378514 559 111 559 c 0
 49.9495333745 559 0 608.049541782 0 668 c 0
 0 727.950458218 49.9495333745 777 111 777 c 0
 170.940378514 777 218 729.060759421 218 668 c 0
EndSplineSet
Substitution2: "'case' Case-Sensitive Forms lookup 15 subtable" uni030A.case
Substitution2: "Single Substitution lookup 7 subtable" uni030A.case
Substitution2: "Single Substitution lookup 6 subtable" uni030A.case
Substitution2: "Single Substitution lookup 4 subtable" uni030A.case
Substitution2: "Single Substitution lookup 3 subtable" uni030A.case
Substitution2: "'aalt' Access All Alternates lookup 0 subtable" uni030A.case
EndChar

StartChar: uni00AD
Encoding: 173 173 362
Width: 348
GlyphClass: 1
Flags: W
HStem: 208 81<38 310>
VStem: 38 272<208 289>
LayerCount: 2
Fore
SplineSet
38 208 m 1
 38 289 l 1
 310 289 l 1
 310 208 l 1
 38 208 l 1
EndSplineSet
EndChar

StartChar: uni0163
Encoding: 355 355 363
Width: 324
GlyphClass: 2
Flags: W
HStem: -181 41<102.401 212.543> -81 40<161.068 216.055> 0 74<208 284> 429 67<20 104 188 284>
VStem: 104 84<78.9616 429 496 621> 217 62<-134.092 -82.6367>
AnchorPoint: "Anchor-1" 173 -250 basechar 0
AnchorPoint: "Anchor-0" 162 496 basechar 0
LayerCount: 2
Fore
SplineSet
279 -102 m 0
 279 -147.804294696 238.240716272 -181 182 -181 c 0
 156.699059412 -181 129.579447704 -174.836451885 94 -161 c 1
 108 -126 l 1
 132.400188503 -135.547899849 150.844603415 -140 166 -140 c 0
 196 -140 217 -126 217 -106 c 0
 217 -90.3592135466 203.522732493 -81 181 -81 c 0
 167 -81 155 -87 141 -87 c 0
 130.774088644 -87 122 -77.7641172169 122 -67 c 0
 122 -63.1647284211 122.908033684 -60.1379494753 125 -57 c 2
 164 5 l 1
 118.495105657 16.1234186174 104 44.8720448368 104 124 c 2
 104 429 l 1
 20 429 l 1
 20 496 l 1
 104 496 l 1
 104 621 l 1
 188 621 l 1
 188 496 l 1
 284 496 l 1
 284 429 l 1
 188 429 l 1
 188 138 l 2
 188 84.0196052456 195.98437293 74 239 74 c 2
 284 74 l 1
 284 0 l 1
 208 0 l 1
 180 -45 l 1
 190.296120855 -42.1919670395 199.235873651 -41 210 -41 c 0
 251.427170097 -41 279 -65.3759800591 279 -102 c 0
EndSplineSet
Substitution2: "'locl' Localized Forms in Latin lookup 8 subtable" uni021B
Substitution2: "'aalt' Access All Alternates lookup 0 subtable" uni021B
EndChar

StartChar: tildecomb
Encoding: 771 771 365
Width: 329
GlyphClass: 4
Flags: W
HStem: 575 63<169.547 263.719> 618 63<70.7619 167.801>
VStem: 0 65<577 613.967>
AnchorPoint: "Anchor-4" 165 681 basemark 0
AnchorPoint: "Anchor-4" 165 496 mark 0
AnchorPoint: "Anchor-0" 165 496 mark 0
LayerCount: 2
Fore
SplineSet
329 649 m 0xa0
 329 613.072141714 279.09462505 575 232 575 c 0xa0
 188 575 151 618 107 618 c 0
 82.1704405605 618 68.0208069348 604.187262413 65 577 c 1
 0 577 l 1
 10.9723226885 643.831420012 48.8556830609 681 106 681 c 0x60
 162 681 174 638 230 638 c 0
 269 638 259 680 298 680 c 0
 316 680 329 667 329 649 c 0xa0
EndSplineSet
Substitution2: "'case' Case-Sensitive Forms lookup 15 subtable" tildecomb.case
Substitution2: "Single Substitution lookup 7 subtable" tildecomb.case
Substitution2: "Single Substitution lookup 6 subtable" tildecomb.case
Substitution2: "Single Substitution lookup 4 subtable" tildecomb.case
Substitution2: "Single Substitution lookup 3 subtable" tildecomb.case
Substitution2: "'aalt' Access All Alternates lookup 0 subtable" tildecomb.case
EndChar

StartChar: zero.alt1
Encoding: 1114137 -1 367
Width: 648
Flags: W
HStem: -12 74<242.336 406.138> 606 74<241.82 406.265>
VStem: 60 91<193 489.851> 497 91<179.198 483.667>
DStem2: 168 190 213 107 0.571572 0.820552<0 419.499>
LayerCount: 2
Fore
SplineSet
497 335 m 0
 497 393.078632633 490.211237519 444.333789366 477 486 c 1
 213 107 l 1
 241 77 278 62 324 62 c 0
 438.032969376 62 497 155.052019425 497 335 c 0
151 335 m 0
 151 279.576867213 156.673086523 231.188776286 168 190 c 1
 431 566 l 1
 403.386431259 592.627369857 367.614645627 606 324 606 c 0
 209.865274535 606 151 513.789078619 151 335 c 0
60 335 m 0
 60 558.733031018 152.795593656 680 324 680 c 0
 495.204406344 680 588 558.733031018 588 335 c 0
 588 110.119303008 495.090789642 -12 324 -12 c 0
 152.909210358 -12 60 110.119303008 60 335 c 0
EndSplineSet
Substitution2: "'aalt' Access All Alternates lookup 0 subtable" zero
Substitution2: "'tnum' Tabular Numbers lookup 14 subtable" zero
Substitution2: "'zero' Slashed Zero lookup 0-1" zero
EndChar

StartChar: copyleft
Encoding: 127279 127279 368
Width: 798
Flags: W
HStem: -12 62<295.267 502.733> 150 59<332.591 455.572> 473 58<337.841 456.778> 618 62<295.267 502.733>
VStem: 53 62<230.267 437.733> 495 76<251.291 430.969> 683 62<230.267 437.733>
LayerCount: 2
Fore
SplineSet
571 342 m 0
 571 220.31016124 507.281416376 150 397 150 c 0
 329.574361044 150 276.818622398 178.325228803 248 230 c 1
 314 254 l 1
 329.099753533 224.80714317 358.255150935 209 397 209 c 0
 458.947378753 209 495 257.928557406 495 342 c 0
 495 424.938785977 459.045809357 473 397 473 c 0
 360.559907199 473 333.798338297 456.608539048 317 424 c 1
 250 449 l 1
 278.059781817 502.11315844 329.14017238 531 395 531 c 0
 504.941805939 531 571 460.062507514 571 342 c 0
115 334 m 0
 115 176 241 50 399 50 c 0
 557 50 683 176 683 334 c 0
 683 492 557 618 399 618 c 0
 241 618 115 492 115 334 c 0
745 334 m 0
 745 143 590 -12 399 -12 c 0
 208 -12 53 143 53 334 c 0
 53 525 208 680 399 680 c 0
 590 680 745 525 745 334 c 0
EndSplineSet
EndChar

StartChar: fi
Encoding: 64257 64257 369
Width: 527
Flags: W
HStem: 0 21G<99 183 363 447> 429 67<15 99 183 363> 590 125<358.2 452.707> 635 71<188.373 286>
VStem: 99 84<0 429 496 629.809> 343 125<605.369 699.8> 363 84<0 429>
LayerCount: 2
Fore
SplineSet
468 653 m 0xec
 468 618 440 590 405 590 c 0
 370.77750275 590 343 618.225526988 343 653 c 0
 343 687 371 715 405 715 c 0
 440.282697173 715 468 687.72265436 468 653 c 0xec
234 635 m 2xda
 193.179423624 635 183 622.225821334 183 571 c 2
 183 496 l 1
 447 496 l 1
 447 0 l 1
 363 0 l 1
 363 429 l 1
 183 429 l 1
 183 0 l 1
 99 0 l 1
 99 429 l 1
 15 429 l 1
 15 496 l 1
 99 496 l 1
 99 570 l 2
 99 677.684513976 126.690879715 706 232 706 c 2
 286 706 l 1
 286 635 l 1
 234 635 l 2xda
EndSplineSet
LCarets2: 1 286
Ligature2: "'liga' Standard Ligatures lookup 0-1" f i
EndChar

StartChar: f_f_i
Encoding: 64259 64259 370
Width: 791
Flags: W
HStem: 0 21G<99 183 363 447 627 711> 429 67<15 99 183 363 447 627> 590 125<622.2 716.707> 635 71<188.373 286 452.373 550>
VStem: 99 84<0 429 496 629.809> 363 84<0 429 496 629.809> 607 125<605.369 699.8> 627 84<0 429>
LayerCount: 2
Fore
SplineSet
732 653 m 0xee
 732 618 704 590 669 590 c 0
 634.77750275 590 607 618.225526988 607 653 c 0
 607 687 635 715 669 715 c 0
 704.282697173 715 732 687.72265436 732 653 c 0xee
498 635 m 2xdd
 457.179423624 635 447 622.225821334 447 571 c 2
 447 496 l 1
 711 496 l 1
 711 0 l 1
 627 0 l 1
 627 429 l 1
 447 429 l 1
 447 0 l 1
 363 0 l 1
 363 429 l 1
 183 429 l 1
 183 0 l 1
 99 0 l 1
 99 429 l 1
 15 429 l 1
 15 496 l 1
 99 496 l 1
 99 570 l 2
 99 677.684513976 126.690879715 706 232 706 c 2
 286 706 l 1
 286 635 l 1
 234 635 l 2
 193.179423624 635 183 622.225821334 183 571 c 2
 183 496 l 1
 363 496 l 1
 363 570 l 2
 363 677.684513976 390.690879715 706 496 706 c 2
 550 706 l 1
 550 635 l 1
 498 635 l 2xdd
EndSplineSet
LCarets2: 2 288 550
Ligature2: "'liga' Standard Ligatures lookup 0-1" f f i
EndChar

StartChar: f_f_l
Encoding: 64260 64260 372
Width: 814
Flags: W
HStem: 0 74<733.349 799> 429 67<15 99 183 363 447 550> 635 71<188.373 286 452.373 550> 647 20G<645 729>
VStem: 99 84<0 429 496 629.809> 363 84<0 429 496 629.809> 645 84<78.6111 667>
LayerCount: 2
Fore
SplineSet
498 635 m 2xee
 457.179423624 635 447 622.225821334 447 571 c 2
 447 496 l 1
 550 496 l 1
 550 429 l 1
 447 429 l 1
 447 0 l 1
 363 0 l 1
 363 429 l 1
 183 429 l 1
 183 0 l 1
 99 0 l 1
 99 429 l 1
 15 429 l 1
 15 496 l 1
 99 496 l 1
 99 570 l 2
 99 677.684513976 126.690879715 706 232 706 c 2
 286 706 l 1
 286 635 l 1
 234 635 l 2
 193.179423624 635 183 622.225821334 183 571 c 2
 183 496 l 1
 363 496 l 1
 363 570 l 2
 363 677.684513976 390.690879715 706 496 706 c 2
 550 706 l 1
 550 635 l 1
 498 635 l 2xee
729 138 m 2
 729 84.0196052456 736.98437293 74 780 74 c 2
 799 74 l 1
 799 0 l 1
 762 0 l 2
 666.850726298 0 645 23.158034709 645 124 c 2
 645 667 l 1
 729 667 l 1xde
 729 138 l 2
EndSplineSet
LCarets2: 2 288 602
Ligature2: "'liga' Standard Ligatures lookup 0-1" f f l
EndChar

StartChar: f_f
Encoding: 64256 64256 373
Width: 575
Flags: W
HStem: 0 21G<99 183 363 447> 429 67<15 99 183 363 447 550> 635 71<188.373 286 452.373 550>
VStem: 99 84<0 429 496 629.809> 363 84<0 429 496 629.809>
LayerCount: 2
Fore
SplineSet
498 635 m 2
 457.179423624 635 447 622.225821334 447 571 c 2
 447 496 l 1
 550 496 l 1
 550 429 l 1
 447 429 l 1
 447 0 l 1
 363 0 l 1
 363 429 l 1
 183 429 l 1
 183 0 l 1
 99 0 l 1
 99 429 l 1
 15 429 l 1
 15 496 l 1
 99 496 l 1
 99 570 l 2
 99 677.684513976 126.690879715 706 232 706 c 2
 286 706 l 1
 286 635 l 1
 234 635 l 2
 193.179423624 635 183 622.225821334 183 571 c 2
 183 496 l 1
 363 496 l 1
 363 570 l 2
 363 677.684513976 390.690879715 706 496 706 c 2
 550 706 l 1
 550 635 l 1
 498 635 l 2
EndSplineSet
Ligature2: "'liga' Standard Ligatures lookup 0-1" f f
LCarets2: 1 288
EndChar

StartChar: dong
Encoding: 8363 8363 374
Width: 603
Flags: W
HStem: -129 67<50 553> -12 72<199.577 344.855> 0 21G<428.133 513> 432 72<199.493 345.809> 548 67<249 412 496 578> 648 20G<412 496>
VStem: 38 94<136.225 355.884> 412 84<133.244 359.468 418 548 615 668>
LayerCount: 2
Fore
SplineSet
50 -129 m 1x9f
 50 -62 l 1
 553 -62 l 1
 553 -129 l 1
 50 -129 l 1x9f
EndSplineSet
Refer: 319 273 N 1 0 0 1 0 0 2
EndChar

StartChar: uni0237
Encoding: 567 567 410
Width: 254
HStem: -161 74<-58 72.9596> 476 20G<90 174>
VStem: 90 84<-69.3502 496>
AnchorPoint: "Anchor-0" 134 496 basechar 0
LayerCount: 2
Fore
SplineSet
174 7 m 2
 174 -121.568246878 132.455831532 -161 -3 -161 c 1
 -58 -159 l 1
 -58 -86 l 1
 -11 -87 l 1
 72.8284075908 -87 90 -70.1684391237 90 12 c 2
 90 496 l 1
 174 496 l 1
 174 7 l 2
EndSplineSet
EndChar

StartChar: uni2010
Encoding: 8208 8208 425
Width: 328
Flags: W
HStem: 208 81<38 290>
VStem: 38 252<208 289>
LayerCount: 2
Fore
SplineSet
38 208 m 1
 38 289 l 1
 290 289 l 1
 290 208 l 1
 38 208 l 1
EndSplineSet
EndChar

StartChar: Ldot
Encoding: 319 319 432
Width: 539
HStem: 0 81<170 529> 250 130<317.097 411.879> 648 20G<76 170>
VStem: 76 94<81 668> 300 129<267.384 362.903>
LayerCount: 2
Fore
SplineSet
429 316 m 0
 429 280.230492529 399.227545237 250 364 250 c 0
 329.045443443 250 300 279.95311355 300 316 c 0
 300 350 330 380 364 380 c 0
 399.273832153 380 429 350.731157812 429 316 c 0
EndSplineSet
Refer: 26 76 N 1 0 0 1 0 0 3
EndChar

StartChar: ldot
Encoding: 320 320 433
Width: 370
Flags: W
HStem: 0 74<158.349 224> 250 129<247.747 343.07> 647 20G<70 154>
VStem: 70 84<78.6111 667> 231 129<266.93 362.253>
LayerCount: 2
Fore
SplineSet
360 315 m 0
 360 279 331 250 295 250 c 0
 259.776654889 250 231 279.226290121 231 315 c 0
 231 350 260 379 295 379 c 0
 330.773709879 379 360 350.223345111 360 315 c 0
EndSplineSet
Refer: 52 108 N 1 0 0 1 0 0 2
EndChar

StartChar: uni031B
Encoding: 795 795 455
Width: 324
Flags: W
HStem: 427 74<0 187.986>
VStem: 205 79<517.336 616>
LayerCount: 2
Fore
SplineSet
134 501 m 2
 181.012987901 501 205 527.014083544 205 578 c 2
 205 616 l 1
 284 616 l 1
 284 575 l 2
 284 476.342559308 237.32460606 427 144 427 c 2
 0 427 l 1
 0 501 l 1
 134 501 l 2
EndSplineSet
EndChar

StartChar: Ohorn
Encoding: 416 416 456
Width: 727
Flags: W
HStem: -12 79<272.313 455.81> 591 79<272.811 457.603 569 630.352>
VStem: 50 96<211.557 451.959> 581 96<205.67 452.121> 648 79<688.578 765>
AnchorPoint: "Anchor-2" 654 10 basechar 0
AnchorPoint: "Anchor-1" 364 0 basechar 0
AnchorPoint: "Anchor-0" 364 658 basechar 0
LayerCount: 2
Fore
SplineSet
677 329 m 0xf0
 677 127.225186795 549.206793353 -12 364 -12 c 0
 179.756609848 -12 50 127.2610749 50 325 c 0
 50 531.780304742 175.799954525 670 364 670 c 2
 577 670 l 2
 624.012987901 670 648 696.014083544 648 747 c 2
 648 765 l 1
 727 765 l 1
 727 744 l 2xe8
 727 649.822702071 673.802882522 599.992490763 569 596 c 1
 638.13123729 534.883978628 677 438.791759706 677 329 c 0xf0
146 329 m 0
 146 173.481336587 234.598974717 67 364 67 c 0
 493.770048947 67 581 172.721092751 581 330 c 0xf0
 581 486.17976765 493.850611418 591 364 591 c 0
 233.183151116 591 146 486.220249576 146 329 c 0
EndSplineSet
EndChar

StartChar: ohorn
Encoding: 417 417 457
Width: 570
Flags: W
HStem: -12 74<202.883 349.209> 420 74<203.726 348.368 440 494.287>
VStem: 38 90<145.353 336.754> 424 90<145.092 336.911> 510 79<509.929 589>
AnchorPoint: "Anchor-2" 497 10 basechar 0
AnchorPoint: "Anchor-1" 276 0 basechar 0
AnchorPoint: "Anchor-0" 276 486 basechar 0
LayerCount: 2
Fore
SplineSet
128 240 m 0xf0
 128 136.783691315 190.179698396 62 276 62 c 0
 362.166732857 62 424 137.202622201 424 242 c 0
 424 343.857183008 361.118010686 420 277 420 c 0
 189.627448881 420 128 345.550732895 128 240 c 0xf0
38 242 m 0
 38 388.559095793 137.583076195 494 276 494 c 2
 439 494 l 2
 486.012987901 494 510 520.014083544 510 571 c 2
 510 589 l 1
 589 589 l 1
 589 568 l 2xe8
 589 475.164356894 539.175736635 426.008875588 440 421 c 1
 458.640184067 408.246189849 475.681898689 386.61632129 492 355 c 0
 506.786891576 326.412009619 514 288.707124676 514 240 c 0
 514 91.8823334957 415.888907254 -12 276 -12 c 0
 136.192858037 -12 38 92.7940585774 38 242 c 0
EndSplineSet
EndChar

StartChar: Uhorn
Encoding: 431 431 458
Width: 710
Flags: W
HStem: -12 81<249.353 441.333> 648 20G<76 170>
VStem: 76 94<155.375 668> 520 94<155.289 596.992> 662 79<688.873 775>
AnchorPoint: "Anchor-2" 427 0 basechar 0
AnchorPoint: "Anchor-1" 345 0 basechar 0
AnchorPoint: "Anchor-0" 345 668 basechar 0
LayerCount: 2
Fore
SplineSet
614 279 m 2
 614 77.0186562587 532.017182552 -12 346 -12 c 0
 158.788596491 -12 76 77.2277095516 76 279 c 2
 76 668 l 1
 170 668 l 1
 170 272 l 2
 170 131.819939056 224.155119876 69 345 69 c 0
 465.844880124 69 520 131.819939056 520 272 c 2
 520 668 l 1
 583 668 l 2
 635.685863172 668 662 697.645040223 662 757 c 2
 662 775 l 1
 741 775 l 1
 741 754 l 2
 741 654.116667124 700.85866652 603.544908409 614 594 c 1
 614 279 l 2
EndSplineSet
EndChar

StartChar: uhorn
Encoding: 432 432 459
Width: 564
Flags: W
HStem: -12 74<187.062 319.733> 0 21G<397.167 466> 477 20G<68 152>
VStem: 68 84<100.629 497> 382 84<120.975 430.097> 403 63<0 24> 520 75<516.479 599>
AnchorPoint: "Anchor-2" 466 0 basechar 0
AnchorPoint: "Anchor-1" 268 0 basechar 0
AnchorPoint: "Anchor-0" 267 496 basechar 0
LayerCount: 2
Fore
SplineSet
255 62 m 0xba
 336.265636037 62 382 120.338322536 382 224 c 2
 382 497 l 1
 449 497 l 2
 496.166813123 497 520 525.197009827 520 581 c 2
 520 599 l 1
 595 599 l 1
 595 578 l 2
 595 477.510975125 557.555638509 433.971019903 466 428 c 1xba
 466 0 l 1
 403 0 l 1x76
 382 72 l 1
 349 16 298 -12 229 -12 c 0
 121.833268684 -12 68 52.1986806666 68 180 c 2
 68 497 l 1
 152 497 l 1
 152 200 l 2
 152 104.436364277 183.673518265 62 255 62 c 0xba
EndSplineSet
EndChar

StartChar: dotbelowcomb
Encoding: 803 803 544
Width: 205
Flags: W
HStem: -207 129<42.6691 137.331>
VStem: 26 128<-190.07 -94.5717>
AnchorPoint: "Anchor-3" 90 -207 basemark 0
AnchorPoint: "Anchor-3" 90 0 mark 0
AnchorPoint: "Anchor-1" 90 0 mark 0
LayerCount: 2
Fore
SplineSet
154 -142 m 0
 154 -177.773709879 125.223345111 -207 90 -207 c 0
 54.7766548884 -207 26 -177.773709879 26 -142 c 0
 26 -106.498648639 54.498648639 -78 90 -78 c 0
 125.501351361 -78 154 -106.498648639 154 -142 c 0
EndSplineSet
EndChar

StartChar: hookabovecomb
Encoding: 777 777 545
Width: 157
Flags: W
HStem: 678 21G<0 6.88304> 686 58<0.865134 82.0994>
VStem: 30 77<571 648> 87 70<602.682 679.779>
AnchorPoint: "Anchor-4" 81 744 basemark 0
AnchorPoint: "Anchor-4" 67 496 mark 0
AnchorPoint: "Anchor-0" 67 496 mark 0
LayerCount: 2
Fore
SplineSet
38 686 m 0x50
 26.6165158074 686 13.7660739027 683.29464381 0 678 c 1x90
 0 732 l 1
 23.195329969 740.067940859 44.1663120547 744 64 744 c 0
 117.652895394 744 157 709.306854003 157 662 c 0x50
 157 624.009999158 146.010269427 604.008689515 107 571 c 1
 30 571 l 1x60
 74.2656469179 606.965838122 87 623.944975564 87 647 c 0
 87 670.938810179 68.076966635 686 38 686 c 0x50
EndSplineSet
EndChar

StartChar: longs
Encoding: 383 383 546
Width: 311
Flags: W
HStem: 0 21G<99 183> 429 67<15 99> 635 71<188.373 286>
VStem: 99 84<0 429 496 629.809>
AnchorPoint: "Anchor-0" 90 668 basechar 0
LayerCount: 2
Fore
SplineSet
234 635 m 2
 193.179423624 635 183 622.225821334 183 571 c 2
 183 0 l 1
 99 0 l 1
 99 429 l 1
 15 429 l 1
 15 496 l 1
 99 496 l 1
 99 570 l 2
 99 677.684513976 126.690879715 706 232 706 c 2
 286 706 l 1
 286 635 l 1
 234 635 l 2
EndSplineSet
EndChar

StartChar: uniFFFD
Encoding: 65533 65533 547
Width: 523
Flags: W
HStem: 0 21<77 447> 680 20<76 447>
VStem: 48 21<49 650> 455 20<47 652>
DStem2: 76 680 69 650 0.513698 -0.857971<22.1432 360.147 396.696 737.787> 69 49 77 21 0.513896 0.857853<0 339.381 374.897 715.649>
LayerCount: 2
Fore
SplineSet
77 21 m 1
 447 21 l 1
 262 329 l 1
 77 21 l 1
69 49 m 1
 249 350 l 1
 69 650 l 1
 69 49 l 1
455 47 m 1
 455 652 l 1
 274 350 l 1
 455 47 l 1
261 371 m 1
 447 680 l 1
 76 680 l 1
 261 371 l 1
48 0 m 1
 48 700 l 1
 475 700 l 1
 475 0 l 1
 48 0 l 1
EndSplineSet
EndChar

StartChar: uni0256
Encoding: 598 598 576
Width: 579
Flags: W
HStem: -161 74<500.349 586> -12 72<199.577 344.855> 432 72<199.493 345.809> 648 20G<412 496>
VStem: 38 94<136.225 355.884> 412 84<-82.3889 75 132.749 359.468 418 668>
AnchorPoint: "Anchor-1" 282 0 basechar 0
AnchorPoint: "Anchor-0" 251 496 basechar 0
LayerCount: 2
Fore
SplineSet
273 432 m 0
 185.032255383 432 132 362.042556729 132 246 c 0
 132 130.456872904 185.410855266 60 273 60 c 0
 360.589144734 60 414 130.456872904 414 246 c 0
 414 362.042556729 360.967744617 432 273 432 c 0
496 668 m 1
 496 -23 l 2
 496 -76.9803947544 503.98437293 -87 547 -87 c 2
 586 -87 l 1
 586 -161 l 1
 529 -161 l 2
 433.850726298 -161 412 -137.841965291 412 -37 c 2
 412 75 l 1
 381.100383781 18.1845766298 325.241569558 -12 251 -12 c 0
 126.168557456 -12 38 94.7957174819 38 246 c 0
 38 397.204282518 126.168557456 504 251 504 c 0
 324.419729173 504 379.744078115 474.447863298 412 418 c 1
 412 668 l 1
 496 668 l 1
EndSplineSet
EndChar

StartChar: Eng
Encoding: 330 330 578
Width: 689
Flags: W
HStem: -161 74<429 512.994> 0 21G<76 170> 648 20G<76 225.704 519 613>
VStem: 76 94<0 571> 519 94<-82.3889 0 100 668>
DStem2: 215 668 170 571 0.471149 -0.882053<64.3575 644.236>
AnchorPoint: "Anchor-1" 311 0 basechar 0
AnchorPoint: "Anchor-0" 362 668 basechar 0
LayerCount: 2
Fore
SplineSet
613 668 m 9
 613 -37 l 2
 613 -137.841965291 591.149273702 -161 496 -161 c 2
 429 -161 l 1
 429 -87 l 1
 468 -87 l 2
 510.952400154 -87 519 -77.0588472489 519 -24 c 10
 519 0 l 25
 475 0 l 17
 170 571 l 1
 170 0 l 1
 76 0 l 1
 76 668 l 1
 215 668 l 1
 519 100 l 1
 519 668 l 1
 613 668 l 9
EndSplineSet
EndChar

StartChar: eng
Encoding: 331 331 579
Width: 546
Flags: W
HStem: -161 74<304 389.651> 0 21G<70 154> 432 72<218.189 357.532> 476 20G<70 137.867>
VStem: 70 84<0 369.554> 70 62<472.136 496> 394 84<-82.3889 392.615>
AnchorPoint: "Anchor-1" 257 0 basechar 0
AnchorPoint: "Anchor-0" 288 496 basechar 0
LayerCount: 2
Fore
SplineSet
478 314 m 10xea
 478 -37 l 2
 478 -137.841965291 456.149273702 -161 361 -161 c 2
 304 -161 l 1
 304 -87 l 1
 343 -87 l 2
 386.01562707 -87 394 -76.9803947544 394 -23 c 2
 394 289 l 2
 394 392.321383123 363.755459863 432 285 432 c 0
 201.208466883 432 154 373.259693879 154 269 c 2
 154 0 l 1
 70 0 l 1xea
 70 496 l 1
 132 496 l 1xd6
 154 421 l 1
 187.220874425 476.368124041 240.487141334 504 314 504 c 0
 423.310746781 504 478 440.640499319 478 314 c 10xea
EndSplineSet
EndChar

StartChar: uni019D
Encoding: 413 413 580
Width: 689
Flags: W
HStem: -161 74<-14 71.446> 0 21G<464.317 613> 648 20G<76 225.704 519 613>
VStem: 76 94<-81.348 571> 519 94<100 668>
DStem2: 215 668 170 571 0.471149 -0.882053<64.3575 644.236>
AnchorPoint: "Anchor-1" 311 0 basechar 0
AnchorPoint: "Anchor-0" 362 668 basechar 0
LayerCount: 2
Fore
SplineSet
170 571 m 1
 170 0 l 2
 170 -143.05556418 156.959633596 -161 53 -161 c 2
 -14 -161 l 1
 -14 -87 l 1
 25 -87 l 2
 68.0156270695 -87 76 -76.9803947539 76 -23 c 2
 76 668 l 1
 215 668 l 1
 519 100 l 1
 519 668 l 1
 613 668 l 1
 613 0 l 1
 475 0 l 1
 170 571 l 1
EndSplineSet
EndChar

StartChar: uni019E
Encoding: 414 414 581
Width: 546
Flags: W
HStem: -161 21G<394 478> 0 21G<70 154> 432 72<218.189 357.532> 476 20G<70 137.867>
VStem: 70 84<0 369.554> 70 62<472.136 496> 394 84<-161 392.615>
AnchorPoint: "Anchor-1" 257 0 basechar 0
AnchorPoint: "Anchor-0" 288 496 basechar 0
LayerCount: 2
Fore
SplineSet
285 432 m 0xea
 201.208466883 432 154 373.259693879 154 269 c 2
 154 0 l 1
 70 0 l 1xea
 70 496 l 1
 132 496 l 1xd6
 154 421 l 1
 187.220874425 476.368124041 240.487141334 504 314 504 c 0
 423.310746781 504 478 440.640499319 478 314 c 2
 478 -161 l 1
 394 -161 l 1
 394 289 l 2
 394 392.321383123 363.755459863 432 285 432 c 0xea
EndSplineSet
EndChar

StartChar: uni0272
Encoding: 626 626 582
Width: 546
Flags: W
HStem: -161 74<-20 65.6511> 0 21G<394 478> 432 72<218.189 357.532> 476 20G<70 137.867>
VStem: 70 84<-82.3889 369.554> 70 62<472.136 496> 394 84<0 392.615>
AnchorPoint: "Anchor-1" 257 0 basechar 0
AnchorPoint: "Anchor-0" 288 496 basechar 0
LayerCount: 2
Fore
SplineSet
70 496 m 17xd6
 132 496 l 1xd6
 154 421 l 1
 187.220874425 476.368124041 240.487141334 504 314 504 c 0
 423.310746781 504 478 440.640499319 478 314 c 2
 478 0 l 1
 394 0 l 1
 394 289 l 2
 394 392.321383123 363.755459863 432 285 432 c 0
 201.208466883 432 154 373.259693879 154 269 c 2
 154 -37 l 2
 154 -137.841965291 132.149273702 -161 37 -161 c 2
 -20 -161 l 1
 -20 -87 l 1
 19 -87 l 2
 62.0156270695 -87 70 -76.9803947539 70 -23 c 2xea
 70 496 l 17xd6
EndSplineSet
EndChar

StartChar: uni01EA
Encoding: 490 490 583
Width: 727
HStem: -173 58<371.179 453.139> -12 79<275.28 347> 601 79<270.581 455.939>
VStem: 50 96<209.846 461.024> 297 70<-109.112 -35.1523> 581 96<207.716 461.222>
LayerCount: 2
Fore
SplineSet
416 -115 m 0
 427.383484193 -115 440.233926097 -112.29464381 454 -107 c 1
 454 -161 l 1
 431 -169 410 -173 391 -173 c 0
 335.987804319 -173 297 -138.98936219 297 -91 c 0
 297 -58.5081597656 315.503844676 -29.272085177 347 -12 c 1
 168.05992503 -4.00267821367 50 133.932655071 50 335 c 0
 50 541.059109041 176.053619914 680 363 680 c 0
 551.200045475 680 677 541.780304742 677 335 c 0
 677 163.499670098 592.593291781 36.8896077692 453 -1 c 1
 393.761267624 -23.0890188521 367 -46.1161561099 367 -75 c 0
 367 -100.153274799 385.187238372 -115 416 -115 c 0
146 335 m 0
 146 173.105975769 231.914166947 67 363 67 c 0
 494.888080303 67 581 172.862359994 581 335 c 0
 581 496.032111481 494.973685349 601 363 601 c 0
 231.828899059 601 146 495.790381799 146 335 c 0
EndSplineSet
EndChar

StartChar: uni01EB
Encoding: 491 491 584
Width: 552
HStem: -173 58<272.179 354.139> 430 74<202.202 350.066>
VStem: 38 90<145.473 346.716> 198 70<-109.112 -34.8803> 424 90<144.686 347.041>
LayerCount: 2
Fore
SplineSet
317 -115 m 0
 328.383484193 -115 341.233926097 -112.29464381 355 -107 c 1
 355 -161 l 1
 332 -169 311 -173 292 -173 c 0
 236.987804319 -173 198 -138.98936219 198 -91 c 0
 198 -57.9018946923 217.094443082 -27.9498271127 249 -11 c 1
 122.305667527 0.971118028891 38 103.656220183 38 246 c 0
 38 398.924377625 134.930225292 504 276 504 c 0
 418.031009191 504 514 399.966388115 514 246 c 0
 514 124.124970819 454.102693373 32.032861879 354 -0 c 0
 295.453295312 -21.8309746295 268 -45.7728019364 268 -75 c 0
 268 -100.153274799 286.187238372 -115 317 -115 c 0
128 246 m 0
 128 136.797217914 188.162979626 62 276 62 c 0
 364.239268053 62 424 136.297126204 424 246 c 0
 424 355.702873796 364.239268053 430 276 430 c 0
 188.162979626 430 128 355.202782086 128 246 c 0
EndSplineSet
EndChar
